<?xml version="1.0" encoding="utf-8"?>
<!-- Generator: Adobe Illustrator 23.0.2, SVG Export Plug-In . SVG Version: 6.00 Build 0)  -->
<svg version="1.1" id="Слой_1" xmlns="http://www.w3.org/2000/svg" xmlns:xlink="http://www.w3.org/1999/xlink" x="0px" y="0px"
	 viewBox="0 0 100 100" style="enable-background:new 0 0 100 100;" xml:space="preserve">
<style type="text/css">
	.st0{fill:url(#SVGID_1_);}
	.st1{fill:#FFFFFF;}
	.st2{fill:none;stroke:#FFFFFF;stroke-width:2;stroke-linecap:round;stroke-linejoin:round;}
</style>
<title>cataloge</title>
<g>
	<g>
		
			<linearGradient id="SVGID_1_" gradientUnits="userSpaceOnUse" x1="2" y1="-458" x2="98" y2="-458" gradientTransform="matrix(1 0 0 -1 0 -408)">
			<stop  offset="0" style="stop-color:#3A6880"/>
			<stop  offset="0.26" style="stop-color:#39657C"/>
			<stop  offset="0.51" style="stop-color:#355D70"/>
			<stop  offset="0.77" style="stop-color:#2E4F5C"/>
			<stop  offset="1" style="stop-color:#263D43"/>
		</linearGradient>
		<path className="st0" d="M4,98c-1.1,0-2-0.9-2-2V4c0-1.1,0.9-2,2-2h92c1.1,0,2,0.9,2,2v92c0,1.1-0.9,2-2,2H4z"/>
		<path className="st1" d="M96,3c0.6,0,1,0.4,1,1v92c0,0.6-0.4,1-1,1H4c-0.6,0-1-0.4-1-1V4c0-0.6,0.4-1,1-1H96 M96,1H4C2.3,1,1,2.3,1,4
			v92c0,1.7,1.3,3,3,3h92c1.7,0,3-1.3,3-3V4C99,2.3,97.7,1,96,1L96,1z"/>
	</g>
</g>
<polyline className="st2" points="17.8,71.5 17.8,17.8 71.3,17.8 "/>
<polyline className="st2" points="82.2,71.5 82.2,82.2 71.3,82.2 "/>
<line className="st2" x1="17.8" y1="17.8" x2="3.2" y2="3.2"/>
<line className="st2" x1="49.6" y1="73.1" x2="49.6" y2="55.6"/>
<line className="st2" x1="41.7" y1="73.1" x2="58.3" y2="73.1"/>
<path className="st2" d="M47,53.6c-1.6,0.7-2.6,2.2-2.6,3.9l0,0c0,1.8,1.4,3.2,3.2,3.2l0,0h3.5c2.1,0,3.7,1.7,3.7,3.7l0,0l0,0
	c0,1.3-0.7,2.6-1.9,3.2"/>
<path className="st2" d="M53.4,28.5L53.4,28.5c3,0,5.5,2.5,5.5,5.5l0,0l0,0"/>
<line className="st2" x1="58.9" y1="36.9" x2="58.9" y2="34"/>
<g>
	<path className="st1" d="M49.5,26.6c1.6,0,2.8,1.3,2.8,2.8c0,1.6-1.3,2.8-2.8,2.8s-2.8-1.3-2.8-2.8C46.7,27.9,47.9,26.6,49.5,26.6
		 M49.5,24.6c-2.7,0-4.8,2.2-4.8,4.8c0,2.7,2.2,4.8,4.8,4.8c2.7,0,4.8-2.2,4.8-4.8C54.3,26.8,52.2,24.6,49.5,24.6L49.5,24.6z"/>
</g>
<g>
	<path className="st1" d="M59.7,38.8l-9.8,16L40,38.9L59.7,38.8 M63.3,36.8l-26.9,0.1l13.5,21.7L63.3,36.8L63.3,36.8z"/>
</g>
</svg>
