<?xml version="1.0" encoding="utf-8"?>
<!-- Generator: Adobe Illustrator 23.0.2, SVG Export Plug-In . SVG Version: 6.00 Build 0)  -->
<svg version="1.1" id="Слой_1" xmlns="http://www.w3.org/2000/svg" xmlns:xlink="http://www.w3.org/1999/xlink" x="0px" y="0px"
	 viewBox="0 0 100 100" style="enable-background:new 0 0 100 100;" xml:space="preserve">
<style type="text/css">
	.st0{fill:url(#SVGID_1_);}
	.st1{fill:#FFFFFF;}
	.st2{fill:none;stroke:#FFFFFF;stroke-width:2;stroke-linecap:round;stroke-linejoin:round;}
</style>
<title>cataloge</title>
<g>
	<g>
		
			<linearGradient id="SVGID_1_" gradientUnits="userSpaceOnUse" x1="2" y1="-458" x2="98" y2="-458" gradientTransform="matrix(1 0 0 -1 0 -408)">
			<stop  offset="0" style="stop-color:#3A6880"/>
			<stop  offset="0.26" style="stop-color:#39657C"/>
			<stop  offset="0.51" style="stop-color:#355D70"/>
			<stop  offset="0.77" style="stop-color:#2E4F5C"/>
			<stop  offset="1" style="stop-color:#263D43"/>
		</linearGradient>
		<path className="st0" d="M4,98c-1.1,0-2-0.9-2-2V4c0-1.1,0.9-2,2-2h92c1.1,0,2,0.9,2,2v92c0,1.1-0.9,2-2,2H4z"/>
		<path className="st1" d="M96,3c0.6,0,1,0.4,1,1v92c0,0.6-0.4,1-1,1H4c-0.6,0-1-0.4-1-1V4c0-0.6,0.4-1,1-1H96 M96,1H4C2.3,1,1,2.3,1,4
			v92c0,1.7,1.3,3,3,3h92c1.7,0,3-1.3,3-3V4C99,2.3,97.7,1,96,1L96,1z"/>
	</g>
</g>
<polyline className="st2" points="17.8,28.5 17.8,17.8 28.4,17.8 "/>
<polyline className="st2" points="28.6,82.2 17.8,82.2 17.8,71.5 "/>
<polyline className="st2" points="82.2,71.5 82.2,82.2 71.3,82.2 "/>
<polyline className="st2" points="71.3,17.8 82.2,17.8 82.2,28.5 "/>
<polyline className="st2" points="28.2,39.2 49.6,72.5 71,39.2 "/>
<line className="st2" x1="49.2" y1="66.2" x2="49.2" y2="38"/>
<path className="st2" d="M53,30.7L53,30.7c3,0,5.5,2.4,5.5,5.3l0,0l0,0c-0.1,4.3-3.6,7.8-8,7.8l0,0h-2.7c-2.3,0-4.2,1.8-4.3,4.1l0,0l0,0
	c0,1.7,1.5,3.1,3.2,3.1h3.6c2,0,3.7,1.6,3.7,3.6l0,0c0,2-1.7,3.7-3.7,3.6h-2c-1.2,0-2.1,0.9-2.1,2.1l0,0"/>
<g>
	<path className="st1" d="M49.2,27.4c1.6,0,2.8,1.3,2.8,2.8c0,1.6-1.3,2.8-2.8,2.8s-2.8-1.3-2.8-2.8C46.3,28.6,47.6,27.4,49.2,27.4
		 M49.2,25.4c-2.7,0-4.8,2.2-4.8,4.8s2.2,4.8,4.8,4.8c2.7,0,4.8-2.2,4.8-4.8S51.8,25.4,49.2,25.4L49.2,25.4z"/>
</g>
</svg>
