<?xml version="1.0" encoding="utf-8"?>
<!-- Generator: Adobe Illustrator 23.0.2, SVG Export Plug-In . SVG Version: 6.00 Build 0)  -->
<svg version="1.1" id="Слой_1" xmlns="http://www.w3.org/2000/svg" xmlns:xlink="http://www.w3.org/1999/xlink" x="0px" y="0px"
	 viewBox="0 0 100 100" style="enable-background:new 0 0 100 100;" xml:space="preserve">
<style type="text/css">
	.st0{fill:url(#SVGID_1_);}
	.st1{fill:#FFFFFF;}
	.st2{fill:none;stroke:#FFFFFF;stroke-width:2;stroke-linecap:round;stroke-linejoin:round;}
</style>
<title>cataloge</title>
<g>
	<g>
		<g>
			<g>
				
					<linearGradient id="SVGID_1_" gradientUnits="userSpaceOnUse" x1="-2003.98" y1="-421.23" x2="-1909.98" y2="-421.23" gradientTransform="matrix(6.123234e-17 -1 -1 -6.123234e-17 -371.23 -1906.98)">
					<stop  offset="0" style="stop-color:#3A6880"/>
					<stop  offset="0.26" style="stop-color:#39657C"/>
					<stop  offset="0.51" style="stop-color:#355D70"/>
					<stop  offset="0.77" style="stop-color:#2E4F5C"/>
					<stop  offset="1" style="stop-color:#263D43"/>
				</linearGradient>
				<path className="st0" d="M4,97c-0.6,0-1-0.4-1-1V4c0-0.6,0.4-1,1-1h92c0.6,0,1,0.4,1,1v92c0,0.6-0.4,1-1,1H4z"/>
				<path className="st1" d="M96,4v92H4V4H96 M96,2H4C2.9,2,2,2.9,2,4v92c0,1.1,0.9,2,2,2h92c1.1,0,2-0.9,2-2V4C98,2.9,97.1,2,96,2L96,2
					z"/>
			</g>
		</g>
	</g>
	<polyline className="st2" points="71.5,82.2 17.8,82.2 17.8,28.7 	"/>
	<polyline className="st2" points="71.5,17.8 82.2,17.8 82.2,28.7 	"/>
	<line className="st2" x1="17.8" y1="82.2" x2="3.2" y2="96.8"/>
	<path className="st2" d="M65.2,38.8h5.3v2.4c-2.7,4.2-8.3,5.5-12.5,2.8s-5.5-8.3-2.8-12.5s8.3-5.5,12.5-2.8c0.9,0.6,1.8,1.4,2.4,2.3"/>
	<path className="st2" d="M70.1,58.3c-3-4-8.7-4.9-12.7-1.9s-4.9,8.7-1.9,12.7S64.2,74,68.2,71c0.9-0.7,1.7-1.5,2.2-2.4"/>
	<polyline className="st2" points="29.5,54.6 38.4,54.6 47.2,54.6 	"/>
	<line className="st2" x1="38.4" y1="72.8" x2="38.4" y2="54.6"/>
	<polyline className="st2" points="47.2,45.1 38.4,27.2 29.5,45.1 	"/>
	<line className="st2" x1="33.6" y1="38.8" x2="44.1" y2="38.8"/>
</g>
</svg>
