<?xml version="1.0" encoding="utf-8"?>
<!-- Generator: Adobe Illustrator 23.0.2, SVG Export Plug-In . SVG Version: 6.00 Build 0)  -->
<svg version="1.1" id="Слой_1" xmlns="http://www.w3.org/2000/svg" xmlns:xlink="http://www.w3.org/1999/xlink" x="0px" y="0px"
	 viewBox="0 0 100 100" style="enable-background:new 0 0 100 100;" xml:space="preserve">
<style type="text/css">
	.st0{fill:url(#SVGID_1_);}
	.st1{fill:#FFFFFF;}
	.st2{fill:none;stroke:#FFFFFF;stroke-width:2;stroke-linecap:round;stroke-linejoin:round;}
</style>
<title>cataloge</title>
<g>
	<g>
		
			<linearGradient id="SVGID_1_" gradientUnits="userSpaceOnUse" x1="2" y1="560" x2="98" y2="560" gradientTransform="matrix(1 0 0 1 0 -510)">
			<stop  offset="0" style="stop-color:#3A6880"/>
			<stop  offset="0.26" style="stop-color:#39657C"/>
			<stop  offset="0.51" style="stop-color:#355D70"/>
			<stop  offset="0.77" style="stop-color:#2E4F5C"/>
			<stop  offset="1" style="stop-color:#263D43"/>
		</linearGradient>
		<path className="st0" d="M4,98c-1.1,0-2-0.9-2-2V4c0-1.1,0.9-2,2-2h92c1.1,0,2,0.9,2,2v92c0,1.1-0.9,2-2,2H4z"/>
		<path className="st1" d="M96,3c0.6,0,1,0.4,1,1v92c0,0.6-0.4,1-1,1H4c-0.6,0-1-0.4-1-1V4c0-0.6,0.4-1,1-1H96 M96,1H4C2.3,1,1,2.3,1,4
			v92c0,1.7,1.3,3,3,3h92c1.7,0,3-1.3,3-3V4C99,2.3,97.7,1,96,1L96,1z"/>
	</g>
</g>
<polyline className="st2" points="17.8,48.7 17.8,17.2 81.1,17.2 "/>
<polyline className="st2" points="28.6,81.6 17.8,81.6 17.8,70.9 "/>
<polyline className="st2" points="82.2,70.9 82.2,81.6 71.3,81.6 "/>
<line className="st2" x1="82.2" y1="17.2" x2="82.2" y2="48.7"/>
<line className="st2" x1="17.8" y1="17.2" x2="17.8" y2="1"/>
<line className="st2" x1="82.2" y1="17.2" x2="82.2" y2="1"/>
<path className="st2" d="M66.1,27.2v0.2c0,5-4.3,9-9.7,9h-7.7c-8.2,0-14.8,6.1-14.8,13.7v0.1c0,7.6,6.6,13.7,14.8,13.7H56
	c5.3,0,9.7,4,9.7,9l0,0"/>
<path className="st2" d="M33.9,27.2v0.2c0,5,4.3,9,9.7,9h7.7c8.2,0,14.8,6.1,14.8,13.7v0.1c0,7.6-6.6,13.7-14.8,13.7H44
	c-5.3,0-9.7,4-9.7,9l0,0"/>
<line className="st2" x1="40.8" y1="54.8" x2="59.2" y2="54.8"/>
<line className="st2" x1="40.8" y1="44.6" x2="59.2" y2="44.6"/>
</svg>
