<svg width="54" height="51" viewBox="0 0 54 51" fill="none" xmlns="http://www.w3.org/2000/svg">
<rect y="0.250122" width="54" height="50.5" rx="4" fill="url(#paint0_radial_424_2133)"/>
<path d="M27.5 40.1501H29.5V41.7501H27.5V40.1501Z" fill="#282828"/>
<path fill-rule="evenodd" clip-rule="evenodd" d="M25 16.05H32V27.55C32 28.3785 31.3284 29.05 30.5 29.05H26.5C25.6716 29.05 25 28.3785 25 27.55V16.05ZM26 17.05V27.55C26 27.8262 26.2239 28.05 26.5 28.05H30.5C30.7761 28.05 31 27.8262 31 27.55V17.05H26Z" fill="#282828"/>
<path fill-rule="evenodd" clip-rule="evenodd" d="M24 14.05H32.5C33.8807 14.05 35 15.1693 35 16.55V17.05H24V14.05ZM25 15.05V16.05H33.9146C33.7087 15.4675 33.1531 15.05 32.5 15.05H25Z" fill="#282828"/>
<path fill-rule="evenodd" clip-rule="evenodd" d="M27 10.8501H30V15.0501H27V10.8501ZM28 11.8501V14.0501H29V11.8501H28Z" fill="#282828"/>
<path fill-rule="evenodd" clip-rule="evenodd" d="M27 30.0502H30V40.6502H27V30.0502ZM28 31.0502V39.6502H29V31.0502H28Z" fill="#282828"/>
<path fill-rule="evenodd" clip-rule="evenodd" d="M26 9.25012H31V11.8501H26V9.25012ZM27 10.2501V10.8501H30V10.2501H27Z" fill="#282828"/>
<path fill-rule="evenodd" clip-rule="evenodd" d="M25.6909 28.05H31.309L29.809 31.05H27.1909L25.6909 28.05ZM27.309 29.05L27.809 30.05H29.1909L29.6909 29.05H27.309Z" fill="#282828"/>
<path fill-rule="evenodd" clip-rule="evenodd" d="M22 13.4501C20.7855 13.4501 20 14.22 20 14.9501H19C19 13.471 20.453 12.4501 22 12.4501C23.547 12.4501 25 13.471 25 14.9501H24C24 14.22 23.2145 13.4501 22 13.4501Z" fill="#282828"/>
<defs>
<radialGradient id="paint0_radial_424_2133" cx="0" cy="0" r="1" gradientUnits="userSpaceOnUse" gradientTransform="translate(25.5002 25.5002) rotate(90) scale(40.0717 40.0714)">
<stop stop-color="#DBEFF4"/>
<stop offset="1" stop-color="#9FBCCB"/>
</radialGradient>
</defs>
</svg>
