<svg width="51" height="51" viewBox="0 0 51 51" fill="none" xmlns="http://www.w3.org/2000/svg">
<rect y="0.000244141" width="51" height="51" rx="4" fill="#DBEFF4"/>
<path fill-rule="evenodd" clip-rule="evenodd" d="M25.5 10.0002C16.9396 10.0002 10 16.9398 10 25.5002C10 34.0607 16.9396 41.0002 25.5 41.0002C34.0604 41.0002 41 34.0607 41 25.5002C41 16.9398 34.0604 10.0002 25.5 10.0002ZM9 25.5002C9 16.3875 16.3873 9.00024 25.5 9.00024C34.6127 9.00024 42 16.3875 42 25.5002C42 34.6129 34.6127 42.0002 25.5 42.0002C16.3873 42.0002 9 34.6129 9 25.5002Z" fill="#B2B6BC"/>
<path d="M18.5 25.5002C18.5 26.0525 18.0523 26.5002 17.5 26.5002C16.9477 26.5002 16.5 26.0525 16.5 25.5002C16.5 24.948 16.9477 24.5002 17.5 24.5002C18.0523 24.5002 18.5 24.948 18.5 25.5002Z" fill="#B2B6BC"/>
<path d="M26.5 25.5002C26.5 26.0525 26.0523 26.5002 25.5 26.5002C24.9477 26.5002 24.5 26.0525 24.5 25.5002C24.5 24.948 24.9477 24.5002 25.5 24.5002C26.0523 24.5002 26.5 24.948 26.5 25.5002Z" fill="#B2B6BC"/>
<path d="M34.5 25.5002C34.5 26.0525 34.0523 26.5002 33.5 26.5002C32.9477 26.5002 32.5 26.0525 32.5 25.5002C32.5 24.948 32.9477 24.5002 33.5 24.5002C34.0523 24.5002 34.5 24.948 34.5 25.5002Z" fill="#B2B6BC"/>
</svg>
