<svg width="51" height="51" viewBox="0 0 51 51" fill="none" xmlns="http://www.w3.org/2000/svg">
<rect y="0.000244141" width="51" height="51" rx="4" fill="#DBEFF4"/>
<path fill-rule="evenodd" clip-rule="evenodd" d="M25.5 10.0002C16.9396 10.0002 10 16.9398 10 25.5002C10 34.0607 16.9396 41.0002 25.5 41.0002C34.0604 41.0002 41 34.0607 41 25.5002C41 16.9398 34.0604 10.0002 25.5 10.0002ZM9 25.5002C9 16.3875 16.3873 9.00024 25.5 9.00024C34.6127 9.00024 42 16.3875 42 25.5002C42 34.6129 34.6127 42.0002 25.5 42.0002C16.3873 42.0002 9 34.6129 9 25.5002Z" fill="#B2B6BC"/>
<path fill-rule="evenodd" clip-rule="evenodd" d="M25.5752 12.0752C18.1194 12.0752 12.0752 18.1194 12.0752 25.5752C12.0752 33.031 18.1194 39.0752 25.5752 39.0752C33.031 39.0752 39.0752 33.031 39.0752 25.5752C39.0752 18.1194 33.031 12.0752 25.5752 12.0752ZM11.0752 25.5752C11.0752 17.5671 17.5671 11.0752 25.5752 11.0752C33.5833 11.0752 40.0752 17.5671 40.0752 25.5752C40.0752 33.5833 33.5833 40.0752 25.5752 40.0752C17.5671 40.0752 11.0752 33.5833 11.0752 25.5752Z" fill="#B2B6BC"/>
</svg>
