<svg width="50" height="51" viewBox="0 0 50 51" fill="none" xmlns="http://www.w3.org/2000/svg">
<rect x="0.000244141" y="0.500244" width="50" height="50" rx="4" fill="url(#paint0_radial_424_2133)"/>
<path fill-rule="evenodd" clip-rule="evenodd" d="M19.0002 42.5002L12.0002 42.5002L12.0002 37.9687L13.0002 37.9687L13.0002 41.5002L18.0002 41.5002L18.0002 37.9687L19.0002 37.9687L19.0002 42.5002Z" fill="#282828"/>
<path fill-rule="evenodd" clip-rule="evenodd" d="M17.0002 38.2207L17.0002 42.0002L16.0002 42.0002L16.0002 38.2207L17.0002 38.2207Z" fill="#282828"/>
<path fill-rule="evenodd" clip-rule="evenodd" d="M15.0002 38.2207L15.0002 42.0002L14.0002 42.0002L14.0002 38.2207L15.0002 38.2207Z" fill="#282828"/>
<path fill-rule="evenodd" clip-rule="evenodd" d="M15.3105 10.5002L13.9996 38.2443L13.0007 38.1971L14.3566 9.50019L16.6438 9.50019L17.9996 38.1971L17.0007 38.2443L15.6899 10.5002L15.3105 10.5002Z" fill="#282828"/>
<path fill-rule="evenodd" clip-rule="evenodd" d="M29.7502 42.5002L22.7502 42.5002L22.7502 37.9687L23.7502 37.9687L23.7502 41.5002L28.7502 41.5002L28.7502 37.9687L29.7502 37.9687L29.7502 42.5002Z" fill="#282828"/>
<path fill-rule="evenodd" clip-rule="evenodd" d="M27.7502 38.2207L27.7502 42.0002L26.7502 42.0002L26.7502 38.2207L27.7502 38.2207Z" fill="#282828"/>
<path fill-rule="evenodd" clip-rule="evenodd" d="M25.7502 38.2207L25.7502 42.0002L24.7502 42.0002L24.7502 38.2207L25.7502 38.2207Z" fill="#282828"/>
<path fill-rule="evenodd" clip-rule="evenodd" d="M26.0605 10.5002L24.7496 38.2443L23.7507 38.1971L25.1066 9.50019L27.3938 9.50019L28.7496 38.1971L27.7507 38.2443L26.4399 10.5002L26.0605 10.5002Z" fill="#282828"/>
<path fill-rule="evenodd" clip-rule="evenodd" d="M40.5002 42.5002L33.5002 42.5002L33.5002 37.9687L34.5002 37.9687L34.5002 41.5002L39.5002 41.5002L39.5002 37.9687L40.5002 37.9687L40.5002 42.5002Z" fill="#282828"/>
<path fill-rule="evenodd" clip-rule="evenodd" d="M38.5002 38.2207L38.5002 42.0002L37.5002 42.0002L37.5002 38.2207L38.5002 38.2207Z" fill="#282828"/>
<path fill-rule="evenodd" clip-rule="evenodd" d="M36.5002 38.2207L36.5002 42.0002L35.5002 42.0002L35.5002 38.2207L36.5002 38.2207Z" fill="#282828"/>
<path fill-rule="evenodd" clip-rule="evenodd" d="M36.8105 10.5002L35.4996 38.2443L34.5007 38.1971L35.8566 9.50019L38.1438 9.50019L39.4996 38.1971L38.5007 38.2443L37.1899 10.5002L36.8105 10.5002Z" fill="#282828"/>
<defs>
<radialGradient id="paint0_radial_424_2133" cx="0" cy="0" r="1" gradientUnits="userSpaceOnUse" gradientTransform="translate(25.5002 25.5002) rotate(90) scale(40.0717 40.0714)">
<stop stop-color="#DBEFF4"/>
<stop offset="1" stop-color="#9FBCCB"/>
</radialGradient>
</defs>
</svg>
