<svg width="51" height="51" viewBox="0 0 51 51" fill="none" xmlns="http://www.w3.org/2000/svg">
<rect x="0.000244141" width="51" height="51.0004" rx="4" fill="url(#paint0_radial_424_2133)"/>
<path fill-rule="evenodd" clip-rule="evenodd" d="M9.00024 13.0004H42.0002V18.0004H9.00024V13.0004ZM10.0002 14.0004V17.0004H41.0002V14.0004H10.0002Z" fill="#282828"/>
<path fill-rule="evenodd" clip-rule="evenodd" d="M12.0002 9L19.0002 9L19.0002 13.5L18.0002 13.5L18.0002 10L13.0002 10L13.0002 13.5L12.0002 13.5L12.0002 9Z" fill="#282828"/>
<path fill-rule="evenodd" clip-rule="evenodd" d="M14.0002 13.5L14.0002 9.5L15.0002 9.5L15.0002 13.5L14.0002 13.5Z" fill="#282828"/>
<path fill-rule="evenodd" clip-rule="evenodd" d="M16.0002 13.5L16.0002 9.5L17.0002 9.5L17.0002 13.5L16.0002 13.5Z" fill="#282828"/>
<path fill-rule="evenodd" clip-rule="evenodd" d="M15.7859 41.0004L17.001 17.4746L17.9996 17.5262L16.7356 42.0004L14.265 42.0004L13.001 17.5262L13.9996 17.4746L15.2147 41.0004L15.7859 41.0004Z" fill="#282828"/>
<path fill-rule="evenodd" clip-rule="evenodd" d="M22.0002 9.00037L29.0002 9.00037L29.0002 13.5004L28.0002 13.5004L28.0002 10.0004L23.0002 10.0004L23.0002 13.5004L22.0002 13.5004L22.0002 9.00037Z" fill="#282828"/>
<path fill-rule="evenodd" clip-rule="evenodd" d="M24.0002 13.5004L24.0002 9.50037L25.0002 9.50037L25.0002 13.5004L24.0002 13.5004Z" fill="#282828"/>
<path fill-rule="evenodd" clip-rule="evenodd" d="M26.0002 13.5004L26.0002 9.50037L27.0002 9.50037L27.0002 13.5004L26.0002 13.5004Z" fill="#282828"/>
<path fill-rule="evenodd" clip-rule="evenodd" d="M25.7859 41.0004L27.001 17.4746L27.9996 17.5262L26.7356 42.0004L24.265 42.0004L23.001 17.5262L23.9996 17.4746L25.2147 41.0004L25.7859 41.0004Z" fill="#282828"/>
<path fill-rule="evenodd" clip-rule="evenodd" d="M32.0002 9.00037L39.0002 9.00037L39.0002 13.5004L38.0002 13.5004L38.0002 10.0004L33.0002 10.0004L33.0002 13.5004L32.0002 13.5004L32.0002 9.00037Z" fill="#282828"/>
<path fill-rule="evenodd" clip-rule="evenodd" d="M34.0002 13.5004L34.0002 9.50037L35.0002 9.50037L35.0002 13.5004L34.0002 13.5004Z" fill="#282828"/>
<path fill-rule="evenodd" clip-rule="evenodd" d="M36.0002 13.5004L36.0002 9.50037L37.0002 9.50037L37.0002 13.5004L36.0002 13.5004Z" fill="#282828"/>
<path fill-rule="evenodd" clip-rule="evenodd" d="M35.7859 41.0004L37.001 17.4746L37.9996 17.5262L36.7356 42.0004L34.265 42.0004L33.001 17.5262L33.9996 17.4746L35.2147 41.0004L35.7859 41.0004Z" fill="#282828"/>
<defs>
<radialGradient id="paint0_radial_424_2133" cx="0" cy="0" r="1" gradientUnits="userSpaceOnUse" gradientTransform="translate(25.5002 25.5002) rotate(90) scale(40.0717 40.0714)">
<stop stop-color="#DBEFF4"/>
<stop offset="1" stop-color="#9FBCCB"/>
</radialGradient>
</defs>
</svg>
