<svg width="51" height="51" viewBox="0 0 51 51" fill="none" xmlns="http://www.w3.org/2000/svg">
<rect width="51" height="51.0004" rx="4" fill="#DBEFF4"/>
<path fill-rule="evenodd" clip-rule="evenodd" d="M9 13.0004H42V18.0004H9V13.0004ZM10 14.0004V17.0004H41V14.0004H10Z" fill="#B2B6BC"/>
<path fill-rule="evenodd" clip-rule="evenodd" d="M12 9L19 9L19 13.5L18 13.5L18 10L13 10L13 13.5L12 13.5L12 9Z" fill="#B2B6BC"/>
<path fill-rule="evenodd" clip-rule="evenodd" d="M14 13.5L14 9.5L15 9.5L15 13.5L14 13.5Z" fill="#B2B6BC"/>
<path fill-rule="evenodd" clip-rule="evenodd" d="M16 13.5L16 9.5L17 9.5L17 13.5L16 13.5Z" fill="#B2B6BC"/>
<path fill-rule="evenodd" clip-rule="evenodd" d="M15.7854 41.0004L17.0005 17.4746L17.9992 17.5262L16.7351 42.0004L14.2645 42.0004L13.0005 17.5262L13.9992 17.4746L15.2142 41.0004L15.7854 41.0004Z" fill="#B2B6BC"/>
<path fill-rule="evenodd" clip-rule="evenodd" d="M22 9.00037L29 9.00037L29 13.5004L28 13.5004L28 10.0004L23 10.0004L23 13.5004L22 13.5004L22 9.00037Z" fill="#B2B6BC"/>
<path fill-rule="evenodd" clip-rule="evenodd" d="M24 13.5004L24 9.50037L25 9.50037L25 13.5004L24 13.5004Z" fill="#B2B6BC"/>
<path fill-rule="evenodd" clip-rule="evenodd" d="M26 13.5004L26 9.50037L27 9.50037L27 13.5004L26 13.5004Z" fill="#B2B6BC"/>
<path fill-rule="evenodd" clip-rule="evenodd" d="M25.7854 41.0004L27.0005 17.4746L27.9992 17.5262L26.7351 42.0004L24.2645 42.0004L23.0005 17.5262L23.9992 17.4746L25.2142 41.0004L25.7854 41.0004Z" fill="#B2B6BC"/>
<path fill-rule="evenodd" clip-rule="evenodd" d="M32 9.00037L39 9.00037L39 13.5004L38 13.5004L38 10.0004L33 10.0004L33 13.5004L32 13.5004L32 9.00037Z" fill="#B2B6BC"/>
<path fill-rule="evenodd" clip-rule="evenodd" d="M34 13.5004L34 9.50037L35 9.50037L35 13.5004L34 13.5004Z" fill="#B2B6BC"/>
<path fill-rule="evenodd" clip-rule="evenodd" d="M36 13.5004L36 9.50037L37 9.50037L37 13.5004L36 13.5004Z" fill="#B2B6BC"/>
<path fill-rule="evenodd" clip-rule="evenodd" d="M35.7854 41.0004L37.0005 17.4746L37.9992 17.5262L36.7351 42.0004L34.2645 42.0004L33.0005 17.5262L33.9992 17.4746L35.2142 41.0004L35.7854 41.0004Z" fill="#B2B6BC"/>
</svg>
