<svg width="51" height="52" viewBox="0 0 51 52" fill="none" xmlns="http://www.w3.org/2000/svg">
<rect y="0.500244" width="50.9998" height="51.0001" rx="4" fill="url(#paint0_radial_424_2133)"/>
<path fill-rule="evenodd" clip-rule="evenodd" d="M29.7778 14.2649L21.2223 14.2649L21.2223 11.3825L29.7778 11.3825L29.7778 14.2649ZM28.7778 13.2649L28.7778 12.3825L22.2223 12.3825L22.2223 13.2649L28.7778 13.2649Z" fill="#282828"/>
<path fill-rule="evenodd" clip-rule="evenodd" d="M18.4438 12.3826L9.88829 12.3826L9.88829 9.50021L18.4438 9.50022L18.4438 12.3826ZM17.4438 11.3826L17.4438 10.5002L10.8883 10.5002L10.8883 11.3826L17.4438 11.3826Z" fill="#282828"/>
<path fill-rule="evenodd" clip-rule="evenodd" d="M19.3887 14.2649L8.94423 14.2649L8.94423 11.3825L19.3887 11.3825L19.3887 14.2649ZM18.3887 13.2649L18.3887 12.3825L9.94423 12.3825L9.94423 13.2649L18.3887 13.2649Z" fill="#282828"/>
<path fill-rule="evenodd" clip-rule="evenodd" d="M8.5 13.2649L25.5 13.2649V14.2649L8.5 14.2649V13.2649Z" fill="#282828"/>
<path fill-rule="evenodd" clip-rule="evenodd" d="M22.1665 13.2649H28.8332V31.798C28.8332 32.0833 28.8061 32.3679 28.7522 32.648L27.1137 41.1672C26.9648 41.9409 26.2878 42.5002 25.4998 42.5002C24.7119 42.5002 24.0348 41.9409 23.886 41.1672L22.2475 32.648C22.1936 32.3679 22.1665 32.0833 22.1665 31.798V13.2649ZM23.1665 14.2649V31.798C23.1665 32.0199 23.1876 32.2412 23.2295 32.4591L24.868 40.9783C24.9263 41.2812 25.1914 41.5002 25.4998 41.5002C25.8083 41.5002 26.0734 41.2812 26.1317 40.9783L27.7702 32.4591C27.8121 32.2412 27.8332 32.0199 27.8332 31.798V14.2649H23.1665Z" fill="#282828"/>
<path fill-rule="evenodd" clip-rule="evenodd" d="M8 20.3532C8 21.669 9.06662 22.7356 10.3824 22.7356L20.3333 22.7356L20.3333 19.8532L8 19.8532L8 20.3532ZM9.0932 20.8532L19.3333 20.8532L19.3333 21.7356L10.3824 21.7356C9.79523 21.7356 9.29359 21.3696 9.0932 20.8532Z" fill="#282828"/>
<path fill-rule="evenodd" clip-rule="evenodd" d="M10.8335 24.618L19.3891 24.618L19.3891 21.7357L10.8335 21.7357L10.8335 24.618ZM11.8335 23.618L11.8335 22.7357L18.3891 22.7357L18.3891 23.618L11.8335 23.618Z" fill="#282828"/>
<path fill-rule="evenodd" clip-rule="evenodd" d="M11.7778 23.618H18.4445V30.771C18.4445 31.0289 18.4223 31.2863 18.3782 31.5404L16.7097 41.1553C16.5748 41.9328 15.9002 42.5004 15.1112 42.5004C14.3221 42.5004 13.6475 41.9328 13.5126 41.1553L11.8441 31.5404C11.8 31.2863 11.7778 31.0289 11.7778 30.771V23.618ZM12.7778 24.618V30.771C12.7778 30.9716 12.7951 31.1718 12.8294 31.3694L14.4979 40.9844C14.5496 41.2826 14.8085 41.5004 15.1112 41.5004C15.4139 41.5004 15.6727 41.2826 15.7245 40.9844L17.393 31.3694C17.4273 31.1718 17.4445 30.9716 17.4445 30.771V24.618H12.7778Z" fill="#282828"/>
<path fill-rule="evenodd" clip-rule="evenodd" d="M43 10.0233C43 11.339 41.9334 12.4056 40.6176 12.4056L30.6667 12.4056L30.6667 9.52329L43 9.52329L43 10.0233ZM41.9068 10.5233L31.6667 10.5233L31.6667 11.4056L40.6176 11.4056C41.2048 11.4056 41.7064 11.0396 41.9068 10.5233Z" fill="#282828"/>
<path fill-rule="evenodd" clip-rule="evenodd" d="M40.1665 14.2649L31.6109 14.2649L31.6109 11.3825L40.1665 11.3825L40.1665 14.2649ZM39.1665 13.2649L39.1665 12.3825L32.6109 12.3825L32.6109 13.2649L39.1665 13.2649Z" fill="#282828"/>
<path fill-rule="evenodd" clip-rule="evenodd" d="M32.5558 13.7649C32.5558 13.4887 32.7796 13.2649 33.0558 13.2649H38.7223C38.8549 13.2649 38.9821 13.3176 39.0759 13.4113C39.1696 13.5051 39.2223 13.6323 39.2223 13.7649L39.2222 38.1491C39.2222 38.7776 38.9855 39.3831 38.5592 39.8449L37.7259 40.7475C36.736 41.8198 35.042 41.8198 34.0521 40.7476L33.2188 39.8449C32.7924 39.3831 32.5557 38.7776 32.5557 38.1491L32.5558 13.7649ZM33.5558 14.2649L33.5557 38.1491C33.5557 38.5262 33.6977 38.8895 33.9535 39.1666L34.7868 40.0692C35.3808 40.7126 36.3972 40.7126 36.9911 40.0692L37.8244 39.1666C38.0802 38.8895 38.2222 38.5262 38.2222 38.1491L38.2223 14.2649H33.5558Z" fill="#282828"/>
<defs>
<radialGradient id="paint0_radial_424_2133" cx="0" cy="0" r="1" gradientUnits="userSpaceOnUse" gradientTransform="translate(25.5002 25.5002) rotate(90) scale(40.0717 40.0714)">
<stop stop-color="#DBEFF4"/>
<stop offset="1" stop-color="#9FBCCB"/>
</radialGradient>
</defs>
</svg>
