<svg id="Слой_1" data-name="Слой 1" xmlns="http://www.w3.org/2000/svg" xmlns:xlink="http://www.w3.org/1999/xlink" viewBox="0 0 80 80"><defs><style>.cls-1{fill:url(#Безымянный_градиент_4);}.cls-2{fill:none;stroke:#fff;stroke-miterlimit:10;}</style><radialGradient id="Безымянный_градиент_4" cx="-348.09" cy="981.99" r="77.09" gradientTransform="matrix(0.72, 0, 0, -0.72, 289.74, 744.27)" gradientUnits="userSpaceOnUse"><stop offset="0" stop-color="#3a6880"/><stop offset="0.26" stop-color="#39657c"/><stop offset="0.51" stop-color="#355d70"/><stop offset="0.77" stop-color="#2e4f5c"/><stop offset="1" stop-color="#263d43"/></radialGradient></defs><title>illustration_cards</title><rect className="cls-1" width="80" height="80" rx="4"/><path className="cls-2" d="M68,46.68l-5-1.2A23.55,23.55,0,0,0,63.57,40h0a23.61,23.61,0,0,0-.65-5.49l5-1.2a27.83,27.83,0,0,1,3.5,3.45,31.28,31.28,0,0,0-4.2-12.7,28.84,28.84,0,0,1-.68,5L61.78,31a23.1,23.1,0,0,0-2.72-4.85h0a23.38,23.38,0,0,0-3.78-4.05l3.37-3.87a27.56,27.56,0,0,1,4.86.73,32,32,0,0,0-10.84-7.79A27.77,27.77,0,0,1,55,15.58L52.32,20a23.37,23.37,0,0,0-5-2.31h0a22.88,22.88,0,0,0-5.44-1.06l.36-5.15A29.47,29.47,0,0,1,46.62,9.2a31.91,31.91,0,0,0-13.41,0,27.91,27.91,0,0,1,4.53,2.21l.41,5.14a22.87,22.87,0,0,0-5.45,1.06h0A24.67,24.67,0,0,0,27.65,20l-2.71-4.4a28.78,28.78,0,0,1,2.21-4.36,31.71,31.71,0,0,0-10.81,7.89,26.83,26.83,0,0,1,5-.87l3.37,3.88a23.88,23.88,0,0,0-3.82,4.09h0A24.23,24.23,0,0,0,18.13,31L13.36,29.1a26.5,26.5,0,0,1-.78-4.85A31.14,31.14,0,0,0,8.49,36.92,27.92,27.92,0,0,1,12,33.31l5,1.2A23.61,23.61,0,0,0,16.39,40h0A23.59,23.59,0,0,0,17,45.48l-5,1.2a27.16,27.16,0,0,1-3.5-3.45,31.27,31.27,0,0,0,4.19,12.7,26.82,26.82,0,0,1,.7-5L18.18,49a23.1,23.1,0,0,0,2.72,4.85h0a22.62,22.62,0,0,0,3.77,4L21.31,61.8a29.57,29.57,0,0,1-4.86-.74,31.85,31.85,0,0,0,10.89,7.83A26.88,26.88,0,0,1,25,64.43L27.65,60a23.86,23.86,0,0,0,5,2.31h0a22.87,22.87,0,0,0,5.45,1.06l-.41,5.15a28.63,28.63,0,0,1-4.37,2.25,32,32,0,0,0,13.42,0,28.32,28.32,0,0,1-4.53-2.21l-.4-5.15a22.88,22.88,0,0,0,5.44-1.06h0a23.86,23.86,0,0,0,5-2.31L55,64.43a28.42,28.42,0,0,1-2.21,4.37,31.79,31.79,0,0,0,10.83-7.89,28.61,28.61,0,0,1-5,.87L55.33,57.9a23.51,23.51,0,0,0,3.78-4.13h0a24.23,24.23,0,0,0,2.72-4.84l4.77,1.94a25.46,25.46,0,0,1,.79,4.84,31.13,31.13,0,0,0,4.12-12.6A27,27,0,0,1,68,46.68Z"/><path className="cls-2" d="M50.94,32.29a15.07,15.07,0,0,0-9.77-3.58,12.08,12.08,0,0,0-12.11,12h0a9.7,9.7,0,0,0,9.7,9.7h0a7.76,7.76,0,0,0,7.75-7.76,6.18,6.18,0,0,0-6.18-6.19h-.06a5,5,0,0,0-5,4.94h0a4,4,0,0,0,4,3.94h0a3.15,3.15,0,0,0,3.17-3.15h0a2.54,2.54,0,0,0-2.54-2.53,2,2,0,0,0-2,2h0a1.61,1.61,0,0,0,1.6,1.62h0a1.3,1.3,0,0,0,1.3-1.29"/></svg>