<svg id="Слой_1" data-name="Слой 1" xmlns="http://www.w3.org/2000/svg" xmlns:xlink="http://www.w3.org/1999/xlink" viewBox="0 0 80 80"><defs><style>.cls-1{fill:url(#Безымянный_градиент);}.cls-2{fill:none;stroke:#282828;stroke-miterlimit:10;}</style><radialGradient id="Безымянный_градиент" cx="-347.76" cy="1244.68" r="77.09" gradientTransform="matrix(0.72, 0, 0, -0.72, 289.74, 933.64)" gradientUnits="userSpaceOnUse"><stop offset="0" stop-color="#c2e3f0"/><stop offset="1" stop-color="#abc7d5"/></radialGradient></defs><title>illustration_cards</title><rect className="cls-1" x="0.24" y="0.23" width="80" height="80" rx="4"/><path className="cls-2" d="M68.39,46.8l-5.11-1.22A24.91,24.91,0,0,0,63.91,40h0a24.25,24.25,0,0,0-.67-5.57l5.11-1.22a28.62,28.62,0,0,1,3.55,3.5,31.6,31.6,0,0,0-4.26-12.9,27.78,27.78,0,0,1-.7,5.05l-4.86,2a23.08,23.08,0,0,0-2.76-4.92h0a23.79,23.79,0,0,0-3.84-4.12l3.43-3.93a28.36,28.36,0,0,1,4.93.74,32.53,32.53,0,0,0-11-7.91,28.66,28.66,0,0,1,2.4,4.51l-2.75,4.45a23.6,23.6,0,0,0-5.11-2.34h0a23.18,23.18,0,0,0-5.52-1.09L42.21,11a28.12,28.12,0,0,1,4.48-2.27,32.24,32.24,0,0,0-13.62,0A26.7,26.7,0,0,1,37.66,11l.42,5.21a23.66,23.66,0,0,0-5.53,1.09h0a24.16,24.16,0,0,0-5.13,2.38l-2.75-4.47a28.36,28.36,0,0,1,2.25-4.43,32.17,32.17,0,0,0-11,8,27,27,0,0,1,5-.87l3.42,3.93A24.15,24.15,0,0,0,20.52,26h0a24.56,24.56,0,0,0-2.77,4.92l-4.85-2A28.33,28.33,0,0,1,12.11,24,31.71,31.71,0,0,0,8,36.89a28.15,28.15,0,0,1,3.57-3.67l5.11,1.22A24.8,24.8,0,0,0,16,40h0a24.94,24.94,0,0,0,.66,5.57L11.53,46.8A28.71,28.71,0,0,1,8,43.29a31.73,31.73,0,0,0,4.25,12.9,28.48,28.48,0,0,1,.71-5l4.86-2a24,24,0,0,0,2.76,4.92h0a23.32,23.32,0,0,0,3.83,4.11L21,62.16a30.44,30.44,0,0,1-4.93-.76A32.2,32.2,0,0,0,27.1,69.35a27.69,27.69,0,0,1-2.41-4.53l2.73-4.46a24.36,24.36,0,0,0,5.11,2.34h0a23.15,23.15,0,0,0,5.53,1.08L37.64,69a29,29,0,0,1-4.43,2.28,32.61,32.61,0,0,0,13.63,0A28,28,0,0,1,42.24,69l-.4-5.22a23.16,23.16,0,0,0,5.52-1.08h0a24.59,24.59,0,0,0,5.11-2.34l2.77,4.42A28,28,0,0,1,53,69.26a32.21,32.21,0,0,0,11-8,29.59,29.59,0,0,1-5,.88l-3.43-3.94A24.23,24.23,0,0,0,59.37,54h0a24.51,24.51,0,0,0,2.76-4.92l4.85,2a26.43,26.43,0,0,1,.8,4.92A31.6,31.6,0,0,0,72,43.18,28.39,28.39,0,0,1,68.39,46.8Z"/><path className="cls-2" d="M51.24,32.06a15.48,15.48,0,0,0-10.07-3.69A12.46,12.46,0,0,0,28.68,40.8h0a10,10,0,0,0,10,10h0a8,8,0,0,0,8-8,6.37,6.37,0,0,0-6.38-6.38h-.06a5.1,5.1,0,0,0-5.11,5.09h0a4.09,4.09,0,0,0,4.09,4.07h0a3.26,3.26,0,0,0,3.27-3.25h0a2.61,2.61,0,0,0-2.62-2.61,2.09,2.09,0,0,0-2.09,2.09h0a1.68,1.68,0,0,0,1.65,1.67h0a1.34,1.34,0,0,0,1.34-1.33"/></svg>