<svg id="Слой_1" data-name="Слой 1" xmlns="http://www.w3.org/2000/svg" xmlns:xlink="http://www.w3.org/1999/xlink" viewBox="0 0 80 80"><defs><style>.cls-1{fill:url(#Безымянный_градиент);}.cls-2{fill:#fff;}.cls-3{fill:none;stroke:#fff;stroke-miterlimit:10;}</style><radialGradient id="Безымянный_градиент" cx="1022.71" cy="803.451" r="76.126" gradientTransform="translate(-697.222 -541.2) scale(0.72)" gradientUnits="userSpaceOnUse"><stop offset="0" stop-color="#3a6880"/><stop offset="0.26" stop-color="#39657c"/><stop offset="0.51" stop-color="#355d70"/><stop offset="0.77" stop-color="#2e4f5c"/><stop offset="1" stop-color="#263d43"/></radialGradient></defs><title>80x80_plasticМонтажная область 701 копия</title><rect class="cls-1" x="0.5" y="0.5" width="79" height="79" rx="3.5"/><path class="cls-2" d="M76,1a3,3,0,0,1,3,3V76a3,3,0,0,1-3,3H4a3,3,0,0,1-3-3V4A3,3,0,0,1,4,1H76m0-1H4A4.012,4.012,0,0,0,0,4V76a4.012,4.012,0,0,0,4,4H76a4.012,4.012,0,0,0,4-4V4a4.012,4.012,0,0,0-4-4Z"/><path class="cls-3" d="M33.965,20.264V47.711a5.023,5.023,0,0,0,.143,1.189l3.565,14.638a1.944,1.944,0,0,0,3.585,0L44.822,48.9a5.023,5.023,0,0,0,.143-1.189V20.264"/><rect class="cls-3" x="16.788" y="14.729" width="10.487" height="2.763"/><rect class="cls-3" x="32.413" y="18.053" width="13.962" height="2.211" transform="translate(78.788 38.318) rotate(180)"/><rect class="cls-3" x="15.05" y="18.053" width="13.962" height="2.211" transform="translate(44.063 38.318) rotate(180)"/><line class="cls-3" x1="32.413" y1="20.264" x2="28.461" y2="20.264"/><path class="cls-3" d="M19.727,38.729V52.174a3.762,3.762,0,0,0,.1.877l2.592,10.8a1.406,1.406,0,0,0,2.607,0l2.593-10.8a3.762,3.762,0,0,0,.1-.877V38.729"/><rect class="cls-3" x="18.322" y="36.453" width="10.687" height="1.724" transform="translate(47.332 74.63) rotate(180)"/><path class="cls-3" d="M15.089,34.729H29.054a1.034,1.034,0,0,1,1.034,1.034v.69a0,0,0,0,1,0,0h-15a0,0,0,0,1,0,0V34.729A0,0,0,0,1,15.089,34.729Z" transform="translate(45.178 71.182) rotate(180)"/><path class="cls-3" d="M50.344,19.975V61.617a.973.973,0,0,0,.484.87l4.682,2.159a.715.715,0,0,0,.667,0l4.682-2.159a.972.972,0,0,0,.485-.87V19.975"/><rect class="cls-3" x="49.523" y="17.786" width="12.641" height="2.211"/><path class="cls-3" d="M48.158,15.186H65.05a0,0,0,0,1,0,0v1a1.034,1.034,0,0,1-1.034,1.034H48.158a0,0,0,0,1,0,0V15.186a0,0,0,0,1,0,0Z"/></svg>