<svg id="Слой_1" data-name="Слой 1" xmlns="http://www.w3.org/2000/svg" xmlns:xlink="http://www.w3.org/1999/xlink" viewBox="0 0 80 80"><defs><style>.cls-1{fill:url(#Безымянный_градиент_3);}.cls-2{fill:#fff;}.cls-3{fill:none;stroke:#282828;stroke-miterlimit:10;}</style><radialGradient id="Безымянный_градиент_3" cx="1122.654" cy="-1105.282" r="76.127" gradientTransform="matrix(0.72, 0, 0, -0.72, -769.182, -758.518)" gradientUnits="userSpaceOnUse"><stop offset="0" stop-color="#c2e3f0"/><stop offset="1" stop-color="#abc7d5"/></radialGradient></defs><title>80x80_plasticМонтажная область 702 копия</title><rect class="cls-1" x="0.5" y="0.5" width="79" height="79" rx="3.5"/><path class="cls-2" d="M76,1a3,3,0,0,1,3,3V76a3,3,0,0,1-3,3H4a3,3,0,0,1-3-3V4A3,3,0,0,1,4,1H76m0-1H4A4.012,4.012,0,0,0,0,4V76a4.012,4.012,0,0,0,4,4H76a4.012,4.012,0,0,0,4-4V4a4.012,4.012,0,0,0-4-4Z"/><path class="cls-3" d="M33.915,20.536V47.982a5.023,5.023,0,0,0,.143,1.189l3.564,14.638a1.945,1.945,0,0,0,3.586,0l3.564-14.638a5.023,5.023,0,0,0,.143-1.189V20.536"/><rect class="cls-3" x="16.738" y="15" width="10.487" height="2.763"/><rect class="cls-3" x="32.363" y="18.324" width="13.962" height="2.211" transform="translate(78.687 38.86) rotate(180)"/><rect class="cls-3" x="15" y="18.324" width="13.962" height="2.211" transform="translate(43.962 38.86) rotate(180)"/><line class="cls-3" x1="32.363" y1="20.536" x2="28.41" y2="20.536"/><path class="cls-3" d="M19.676,39V52.445a3.762,3.762,0,0,0,.1.877l2.593,10.8a1.406,1.406,0,0,0,2.607,0l2.593-10.8a3.761,3.761,0,0,0,.1-.877V39"/><rect class="cls-3" x="18.272" y="36.724" width="10.687" height="1.724" transform="translate(47.231 75.173) rotate(180)"/><path class="cls-3" d="M15.039,35H29a1.034,1.034,0,0,1,1.034,1.034v.69a0,0,0,0,1,0,0h-15a0,0,0,0,1,0,0V35A0,0,0,0,1,15.039,35Z" transform="translate(45.078 71.724) rotate(180)"/><path class="cls-3" d="M50.293,20.246V61.888a.97.97,0,0,0,.485.87l4.682,2.159a.71.71,0,0,0,.667,0l4.682-2.159a.972.972,0,0,0,.484-.87V20.246"/><rect class="cls-3" x="49.473" y="18.057" width="12.641" height="2.211"/><path class="cls-3" d="M48.108,15.458H65a0,0,0,0,1,0,0v1A1.034,1.034,0,0,1,63.965,17.5H48.108a0,0,0,0,1,0,0V15.458A0,0,0,0,1,48.108,15.458Z"/></svg>