<?xml version="1.0" encoding="utf-8"?>
<!-- Generator: Adobe Illustrator 26.2.1, SVG Export Plug-In . SVG Version: 6.00 Build 0)  -->
<svg version="1.1" id="Слой_1" xmlns="http://www.w3.org/2000/svg" xmlns:xlink="http://www.w3.org/1999/xlink" x="0px" y="0px"
	 viewBox="0 0 80 80" style="enable-background:new 0 0 80 80;" xml:space="preserve">
<style type="text/css">
	.st0{fill:url(#SVGID_1_);}
	.st1{fill:#FFFFFF;}
</style>
<radialGradient id="SVGID_1_" cx="1701.5189" cy="-880.3356" r="76.13" gradientTransform="matrix(0.72 0 0 -0.72 -1185.96 -596.56)" gradientUnits="userSpaceOnUse">
	<stop  offset="0" style="stop-color:#3A6880"/>
	<stop  offset="0.26" style="stop-color:#39657C"/>
	<stop  offset="0.51" style="stop-color:#355D70"/>
	<stop  offset="0.77" style="stop-color:#2E4F5C"/>
	<stop  offset="1" style="stop-color:#263D43"/>
</radialGradient>
<path class="st0" d="M4,0.5h72c1.9,0,3.5,1.6,3.5,3.5v72c0,1.9-1.6,3.5-3.5,3.5H4c-1.9,0-3.5-1.6-3.5-3.5V4C0.5,2.1,2.1,0.5,4,0.5z"
	/>
<path class="st1" d="M76,1c1.7,0,3,1.3,3,3v72c0,1.7-1.3,3-3,3H4c-1.7,0-3-1.3-3-3V4c0-1.7,1.3-3,3-3H76 M76,0H4C1.8,0,0,1.8,0,4v72
	c0,2.2,1.8,4,4,4h72c2.2,0,4-1.8,4-4V4C80,1.8,78.2,0,76,0z"/>
<path class="st1" d="M63,60.4H17c-1.4,0-2.5-1.1-2.5-2.5V23.7l4.3-4.3H63c1.4,0,2.5,1.1,2.5,2.5v36C65.5,59.3,64.4,60.4,63,60.4z
	 M15.5,24.1v33.8c0,0.8,0.7,1.5,1.5,1.5h46c0.8,0,1.5-0.7,1.5-1.5v-36c0-0.8-0.7-1.5-1.5-1.5H19.2L15.5,24.1z"/>
<path class="st1" d="M17.3,29.3l1.2-3.5h1.1l1.2,3.5H20L19.3,27l-0.1-0.5l0,0L19,27l-0.7,2.3L17.3,29.3z M18.1,28.5v-0.6h2v0.6H18.1
	z"/>
<path class="st1" d="M17.7,35.8v-3.5h1.7c0.4,0,0.7,0.1,1,0.2c0.2,0.2,0.3,0.4,0.3,0.7c0,0.2-0.1,0.4-0.2,0.5
	C20.4,33.9,20.2,34,20,34l0,0c0.2,0,0.4,0.1,0.6,0.3c0.1,0.2,0.2,0.3,0.2,0.5c0,0.3-0.1,0.5-0.3,0.7c-0.3,0.2-0.6,0.3-1,0.2
	L17.7,35.8z M18.6,33.7h0.7c0.3,0,0.5-0.1,0.5-0.4S19.6,33,19.2,33h-0.7V33.7z M18.6,35.2h0.8c0.1,0,0.3,0,0.4-0.1
	c0.1-0.1,0.1-0.2,0.1-0.3c0-0.1,0-0.2-0.1-0.3c-0.1-0.1-0.2-0.1-0.4-0.1h-0.8V35.2z"/>
<path class="st1" d="M20.6,41.4c-0.1,0.2-0.2,0.4-0.3,0.6c-0.1,0.2-0.3,0.3-0.5,0.3c-0.2,0.1-0.4,0.1-0.7,0.1
	c-0.3,0-0.6-0.1-0.9-0.2c-0.3-0.1-0.5-0.4-0.6-0.6c-0.3-0.6-0.3-1.3,0-2c0.1-0.3,0.3-0.5,0.6-0.6c0.3-0.1,0.6-0.2,0.9-0.2
	c0.2,0,0.5,0,0.7,0.1c0.2,0.1,0.4,0.2,0.5,0.3c0.2,0.2,0.3,0.3,0.3,0.5l-0.8,0.3c0-0.2-0.1-0.3-0.2-0.5c-0.1-0.1-0.3-0.1-0.4-0.1
	c-0.3,0-0.6,0.2-0.7,0.5c-0.1,0.2-0.1,0.4-0.1,0.6c0,0.2,0,0.4,0.1,0.6c0.1,0.1,0.1,0.3,0.3,0.4c0.1,0.1,0.3,0.1,0.5,0.1
	c0.2,0,0.3,0,0.4-0.1c0.1-0.1,0.2-0.3,0.2-0.4L20.6,41.4z"/>
<path class="st1" d="M19,45.5c0.5,0,0.9,0.1,1.3,0.5c0.6,0.8,0.6,1.8,0,2.6C19.9,48.9,19.5,49,19,49h-1.5v-3.5H19z M18.9,48.3
	c0.2,0,0.5-0.1,0.6-0.3c0.3-0.5,0.3-1.1,0-1.6c-0.2-0.2-0.4-0.3-0.6-0.3h-0.5v2.1H18.9z"/>
<path class="st1" d="M17.5,55.5V52h2.8v0.7h-1.8v0.7h1.5v0.7h-1.5v0.7h1.9v0.7L17.5,55.5z"/>
<path class="st1" d="M28,54.3c-1.4,0-2.5-1.1-2.5-2.5s1.1-2.5,2.5-2.5s2.5,1.1,2.5,2.5S29.4,54.3,28,54.3z M28,50.3
	c-0.8,0-1.5,0.7-1.5,1.5s0.7,1.5,1.5,1.5s1.5-0.7,1.5-1.5S28.8,50.3,28,50.3z"/>
<path class="st1" d="M34,54.3c-1.4,0-2.5-1.1-2.5-2.5s1.1-2.5,2.5-2.5s2.5,1.1,2.5,2.5S35.4,54.3,34,54.3z M34,50.3
	c-0.8,0-1.5,0.7-1.5,1.5s0.7,1.5,1.5,1.5s1.5-0.7,1.5-1.5S34.8,50.3,34,50.3z"/>
<path class="st1" d="M40,54.3c-1.4,0-2.5-1.1-2.5-2.5s1.1-2.5,2.5-2.5c1.4,0,2.5,1.1,2.5,2.5S41.4,54.3,40,54.3z M40,50.3
	c-0.8,0-1.5,0.7-1.5,1.5s0.7,1.5,1.5,1.5s1.5-0.7,1.5-1.5S40.8,50.3,40,50.3z"/>
<path class="st1" d="M46,54.3c-1.4,0-2.5-1.1-2.5-2.5s1.1-2.5,2.5-2.5s2.5,1.1,2.5,2.5S47.4,54.3,46,54.3z M46,50.3
	c-0.8,0-1.5,0.7-1.5,1.5s0.7,1.5,1.5,1.5s1.5-0.7,1.5-1.5S46.8,50.3,46,50.3z"/>
<path class="st1" d="M52,54.3c-1.4,0-2.5-1.1-2.5-2.5s1.1-2.5,2.5-2.5s2.5,1.1,2.5,2.5S53.4,54.3,52,54.3z M52,50.3
	c-0.8,0-1.5,0.7-1.5,1.5s0.7,1.5,1.5,1.5s1.5-0.7,1.5-1.5S52.8,50.3,52,50.3z"/>
<path class="st1" d="M58,54.3c-1.4,0-2.5-1.1-2.5-2.5s1.1-2.5,2.5-2.5s2.5,1.1,2.5,2.5S59.4,54.3,58,54.3z M58,50.3
	c-0.8,0-1.5,0.7-1.5,1.5s0.7,1.5,1.5,1.5s1.5-0.7,1.5-1.5S58.8,50.3,58,50.3z"/>
<path class="st1" d="M28,48.3c-1.4,0-2.5-1.1-2.5-2.5s1.1-2.5,2.5-2.5s2.5,1.1,2.5,2.5S29.4,48.3,28,48.3z M28,44.3
	c-0.8,0-1.5,0.7-1.5,1.5s0.7,1.5,1.5,1.5s1.5-0.7,1.5-1.5S28.8,44.3,28,44.3z"/>
<path class="st1" d="M34,48.3c-1.4,0-2.5-1.1-2.5-2.5s1.1-2.5,2.5-2.5s2.5,1.1,2.5,2.5S35.4,48.3,34,48.3z M34,44.3
	c-0.8,0-1.5,0.7-1.5,1.5s0.7,1.5,1.5,1.5s1.5-0.7,1.5-1.5S34.8,44.3,34,44.3z"/>
<path class="st1" d="M40,48.3c-1.4,0-2.5-1.1-2.5-2.5s1.1-2.5,2.5-2.5c1.4,0,2.5,1.1,2.5,2.5S41.4,48.3,40,48.3z M40,44.3
	c-0.8,0-1.5,0.7-1.5,1.5s0.7,1.5,1.5,1.5s1.5-0.7,1.5-1.5S40.8,44.3,40,44.3z"/>
<path class="st1" d="M46,48.3c-1.4,0-2.5-1.1-2.5-2.5s1.1-2.5,2.5-2.5s2.5,1.1,2.5,2.5S47.4,48.3,46,48.3z M46,44.3
	c-0.8,0-1.5,0.7-1.5,1.5s0.7,1.5,1.5,1.5s1.5-0.7,1.5-1.5S46.8,44.3,46,44.3z"/>
<path class="st1" d="M52,48.3c-1.4,0-2.5-1.1-2.5-2.5s1.1-2.5,2.5-2.5s2.5,1.1,2.5,2.5S53.4,48.3,52,48.3z M52,44.3
	c-0.8,0-1.5,0.7-1.5,1.5s0.7,1.5,1.5,1.5s1.5-0.7,1.5-1.5S52.8,44.3,52,44.3z"/>
<path class="st1" d="M58,48.3c-1.4,0-2.5-1.1-2.5-2.5s1.1-2.5,2.5-2.5s2.5,1.1,2.5,2.5S59.4,48.3,58,48.3z M58,44.3
	c-0.8,0-1.5,0.7-1.5,1.5s0.7,1.5,1.5,1.5s1.5-0.7,1.5-1.5S58.8,44.3,58,44.3z"/>
<path class="st1" d="M28,42.3c-1.4,0-2.5-1.1-2.5-2.5s1.1-2.5,2.5-2.5s2.5,1.1,2.5,2.5S29.4,42.3,28,42.3z M28,38.3
	c-0.8,0-1.5,0.7-1.5,1.5s0.7,1.5,1.5,1.5s1.5-0.7,1.5-1.5S28.8,38.3,28,38.3z"/>
<path class="st1" d="M34,42.3c-1.4,0-2.5-1.1-2.5-2.5s1.1-2.5,2.5-2.5s2.5,1.1,2.5,2.5S35.4,42.3,34,42.3z M34,38.3
	c-0.8,0-1.5,0.7-1.5,1.5s0.7,1.5,1.5,1.5s1.5-0.7,1.5-1.5S34.8,38.3,34,38.3z"/>
<path class="st1" d="M40,42.3c-1.4,0-2.5-1.1-2.5-2.5s1.1-2.5,2.5-2.5c1.4,0,2.5,1.1,2.5,2.5S41.4,42.3,40,42.3z M40,38.3
	c-0.8,0-1.5,0.7-1.5,1.5s0.7,1.5,1.5,1.5s1.5-0.7,1.5-1.5S40.8,38.3,40,38.3z"/>
<path class="st1" d="M46,42.3c-1.4,0-2.5-1.1-2.5-2.5s1.1-2.5,2.5-2.5s2.5,1.1,2.5,2.5S47.4,42.3,46,42.3z M46,38.3
	c-0.8,0-1.5,0.7-1.5,1.5s0.7,1.5,1.5,1.5s1.5-0.7,1.5-1.5S46.8,38.3,46,38.3z"/>
<path class="st1" d="M52,42.3c-1.4,0-2.5-1.1-2.5-2.5s1.1-2.5,2.5-2.5s2.5,1.1,2.5,2.5S53.4,42.3,52,42.3z M52,38.3
	c-0.8,0-1.5,0.7-1.5,1.5s0.7,1.5,1.5,1.5s1.5-0.7,1.5-1.5S52.8,38.3,52,38.3z"/>
<path class="st1" d="M58,42.3c-1.4,0-2.5-1.1-2.5-2.5s1.1-2.5,2.5-2.5s2.5,1.1,2.5,2.5S59.4,42.3,58,42.3z M58,38.3
	c-0.8,0-1.5,0.7-1.5,1.5s0.7,1.5,1.5,1.5s1.5-0.7,1.5-1.5S58.8,38.3,58,38.3z"/>
<path class="st1" d="M28,36.3c-1.4,0-2.5-1.1-2.5-2.5s1.1-2.5,2.5-2.5s2.5,1.1,2.5,2.5S29.4,36.3,28,36.3z M28,32.3
	c-0.8,0-1.5,0.7-1.5,1.5s0.7,1.5,1.5,1.5s1.5-0.7,1.5-1.5S28.8,32.3,28,32.3z"/>
<path class="st1" d="M34,36.3c-1.4,0-2.5-1.1-2.5-2.5s1.1-2.5,2.5-2.5s2.5,1.1,2.5,2.5S35.4,36.3,34,36.3z M34,32.3
	c-0.8,0-1.5,0.7-1.5,1.5s0.7,1.5,1.5,1.5s1.5-0.7,1.5-1.5S34.8,32.3,34,32.3z"/>
<path class="st1" d="M40,36.3c-1.4,0-2.5-1.1-2.5-2.5s1.1-2.5,2.5-2.5c1.4,0,2.5,1.1,2.5,2.5S41.4,36.3,40,36.3z M40,32.3
	c-0.8,0-1.5,0.7-1.5,1.5s0.7,1.5,1.5,1.5s1.5-0.7,1.5-1.5S40.8,32.3,40,32.3z"/>
<path class="st1" d="M46,36.3c-1.4,0-2.5-1.1-2.5-2.5s1.1-2.5,2.5-2.5s2.5,1.1,2.5,2.5S47.4,36.3,46,36.3z M46,32.3
	c-0.8,0-1.5,0.7-1.5,1.5s0.7,1.5,1.5,1.5s1.5-0.7,1.5-1.5S46.8,32.3,46,32.3z"/>
<path class="st1" d="M52,36.3c-1.4,0-2.5-1.1-2.5-2.5s1.1-2.5,2.5-2.5s2.5,1.1,2.5,2.5S53.4,36.3,52,36.3z M52,32.3
	c-0.8,0-1.5,0.7-1.5,1.5s0.7,1.5,1.5,1.5s1.5-0.7,1.5-1.5S52.8,32.3,52,32.3z"/>
<path class="st1" d="M58,36.3c-1.4,0-2.5-1.1-2.5-2.5s1.1-2.5,2.5-2.5s2.5,1.1,2.5,2.5S59.4,36.3,58,36.3z M58,32.3
	c-0.8,0-1.5,0.7-1.5,1.5s0.7,1.5,1.5,1.5s1.5-0.7,1.5-1.5S58.8,32.3,58,32.3z"/>
<path class="st1" d="M28,30.3c-1.4,0-2.5-1.1-2.5-2.5s1.1-2.5,2.5-2.5s2.5,1.1,2.5,2.5S29.4,30.3,28,30.3z M28,26.3
	c-0.8,0-1.5,0.7-1.5,1.5s0.7,1.5,1.5,1.5s1.5-0.7,1.5-1.5S28.8,26.3,28,26.3z"/>
<path class="st1" d="M34,30.3c-1.4,0-2.5-1.1-2.5-2.5s1.1-2.5,2.5-2.5s2.5,1.1,2.5,2.5S35.4,30.3,34,30.3z M34,26.3
	c-0.8,0-1.5,0.7-1.5,1.5s0.7,1.5,1.5,1.5s1.5-0.7,1.5-1.5S34.8,26.3,34,26.3z"/>
<path class="st1" d="M40,30.3c-1.4,0-2.5-1.1-2.5-2.5s1.1-2.5,2.5-2.5c1.4,0,2.5,1.1,2.5,2.5S41.4,30.3,40,30.3z M40,26.3
	c-0.8,0-1.5,0.7-1.5,1.5s0.7,1.5,1.5,1.5s1.5-0.7,1.5-1.5S40.8,26.3,40,26.3z"/>
<path class="st1" d="M46,30.3c-1.4,0-2.5-1.1-2.5-2.5s1.1-2.5,2.5-2.5s2.5,1.1,2.5,2.5S47.4,30.3,46,30.3z M46,26.3
	c-0.8,0-1.5,0.7-1.5,1.5s0.7,1.5,1.5,1.5s1.5-0.7,1.5-1.5S46.8,26.3,46,26.3z"/>
<path class="st1" d="M52,30.3c-1.4,0-2.5-1.1-2.5-2.5s1.1-2.5,2.5-2.5s2.5,1.1,2.5,2.5S53.4,30.3,52,30.3z M52,26.3
	c-0.8,0-1.5,0.7-1.5,1.5s0.7,1.5,1.5,1.5s1.5-0.7,1.5-1.5S52.8,26.3,52,26.3z"/>
<path class="st1" d="M58,30.3c-1.4,0-2.5-1.1-2.5-2.5s1.1-2.5,2.5-2.5s2.5,1.1,2.5,2.5S59.4,30.3,58,30.3z M58,26.3
	c-0.8,0-1.5,0.7-1.5,1.5s0.7,1.5,1.5,1.5s1.5-0.7,1.5-1.5S58.8,26.3,58,26.3z"/>
</svg>
