<?xml version="1.0" encoding="utf-8"?>
<!-- Generator: Adobe Illustrator 26.2.1, SVG Export Plug-In . SVG Version: 6.00 Build 0)  -->
<svg version="1.1" id="Слой_1" xmlns="http://www.w3.org/2000/svg" xmlns:xlink="http://www.w3.org/1999/xlink" x="0px" y="0px"
	 viewBox="0 0 80 80" style="enable-background:new 0 0 80 80;" xml:space="preserve">
<style type="text/css">
	.st0{fill:url(#SVGID_1_);}
	.st1{fill:#FFFFFF;}
	.st2{fill:#282828;}
</style>
<radialGradient id="SVGID_1_" cx="1801.4589" cy="2161.1555" r="76.13" gradientTransform="matrix(0.72 0 0 0.72 -1257.92 -1518.75)" gradientUnits="userSpaceOnUse">
	<stop  offset="0" style="stop-color:#C2E3F0"/>
	<stop  offset="1" style="stop-color:#ABC7D5"/>
</radialGradient>
<path class="st0" d="M4,0.5h72c1.9,0,3.5,1.6,3.5,3.5v72c0,1.9-1.6,3.5-3.5,3.5H4c-1.9,0-3.5-1.6-3.5-3.5V4C0.5,2.1,2.1,0.5,4,0.5z"
	/>
<path class="st1" d="M76,1c1.7,0,3,1.3,3,3v72c0,1.7-1.3,3-3,3H4c-1.7,0-3-1.3-3-3V4c0-1.7,1.3-3,3-3H76 M76,0H4C1.8,0,0,1.8,0,4v72
	c0,2.2,1.8,4,4,4h72c2.2,0,4-1.8,4-4V4C80,1.8,78.2,0,76,0z"/>
<path class="st2" d="M63,59.6H17c-1.4,0-2.5-1.1-2.5-2.5V22.9l4.3-4.3H63c1.4,0,2.5,1.1,2.5,2.5v36C65.5,58.5,64.4,59.6,63,59.6z
	 M15.5,23.3v33.8c0,0.8,0.7,1.5,1.5,1.5h46c0.8,0,1.5-0.7,1.5-1.5v-36c0-0.8-0.7-1.5-1.5-1.5H19.2L15.5,23.3z"/>
<path class="st2" d="M17.3,28.5l1.2-3.5h1.1l1.2,3.5H20l-0.7-2.3l-0.1-0.6l0,0L19,26.2l-0.7,2.3L17.3,28.5z M18.1,27.7V27h2v0.6
	H18.1z"/>
<path class="st2" d="M17.7,35v-3.5h1.7c0.4,0,0.7,0.1,1,0.2c0.2,0.2,0.3,0.4,0.3,0.7c0,0.2-0.1,0.4-0.2,0.5
	c-0.1,0.2-0.3,0.3-0.5,0.3l0,0c0.2,0,0.4,0.1,0.6,0.3c0.1,0.2,0.2,0.3,0.2,0.5c0,0.3-0.1,0.5-0.3,0.7c-0.3,0.2-0.6,0.3-1,0.2
	L17.7,35z M18.6,32.9h0.7c0.3,0,0.5-0.1,0.5-0.4s-0.2-0.4-0.5-0.4h-0.7V32.9z M18.6,34.3h0.8c0.1,0,0.3,0,0.4-0.1
	c0.2-0.1,0.2-0.4,0-0.6c0,0,0,0,0,0c-0.1-0.1-0.2-0.1-0.4-0.1h-0.8V34.3z"/>
<path class="st2" d="M20.6,40.6c-0.1,0.2-0.2,0.4-0.3,0.6c-0.1,0.2-0.3,0.3-0.5,0.3c-0.2,0.1-0.4,0.1-0.7,0.1
	c-0.3,0-0.6-0.1-0.9-0.2c-0.3-0.1-0.5-0.4-0.6-0.6c-0.1-0.3-0.2-0.7-0.2-1c0-0.3,0.1-0.7,0.2-1c0.1-0.3,0.3-0.5,0.6-0.6
	c0.3-0.2,0.6-0.2,0.9-0.2c0.2,0,0.5,0,0.7,0.1c0.2,0.1,0.4,0.2,0.5,0.3c0.2,0.2,0.3,0.3,0.3,0.5l-0.8,0.3c0-0.2-0.1-0.3-0.2-0.5
	c-0.1-0.1-0.3-0.1-0.4-0.1c-0.2,0-0.3,0-0.4,0.1c-0.1,0.1-0.2,0.2-0.3,0.4c-0.1,0.2-0.1,0.4-0.1,0.6c0,0.2,0,0.4,0.1,0.6
	c0,0.1,0.1,0.3,0.3,0.4c0.1,0.1,0.3,0.1,0.5,0.1c0.2,0,0.3,0,0.4-0.1c0.1-0.1,0.2-0.3,0.2-0.4L20.6,40.6z"/>
<path class="st2" d="M19,44.6c0.5,0,0.9,0.1,1.3,0.5c0.3,0.4,0.5,0.8,0.4,1.3c0,0.5-0.1,0.9-0.4,1.3c-0.3,0.3-0.8,0.5-1.3,0.5h-1.5
	v-3.5H19z M18.9,47.5c0.2,0,0.5-0.1,0.6-0.3c0.3-0.5,0.3-1.1,0-1.6c-0.2-0.2-0.4-0.3-0.6-0.3h-0.5v2.1H18.9z"/>
<path class="st2" d="M17.5,54.7v-3.5h2.8v0.7h-1.8v0.7h1.5v0.7h-1.5V54h1.9v0.7L17.5,54.7z"/>
<path class="st2" d="M28,53.5c-1.4,0-2.5-1.1-2.5-2.5s1.1-2.5,2.5-2.5s2.5,1.1,2.5,2.5S29.4,53.5,28,53.5z M28,49.5
	c-0.8,0-1.5,0.7-1.5,1.5s0.7,1.5,1.5,1.5s1.5-0.7,1.5-1.5S28.8,49.5,28,49.5z"/>
<path class="st2" d="M34,53.5c-1.4,0-2.5-1.1-2.5-2.5s1.1-2.5,2.5-2.5s2.5,1.1,2.5,2.5S35.4,53.5,34,53.5z M34,49.5
	c-0.8,0-1.5,0.7-1.5,1.5s0.7,1.5,1.5,1.5s1.5-0.7,1.5-1.5S34.8,49.5,34,49.5z"/>
<path class="st2" d="M40,53.5c-1.4,0-2.5-1.1-2.5-2.5s1.1-2.5,2.5-2.5c1.4,0,2.5,1.1,2.5,2.5S41.4,53.5,40,53.5z M40,49.5
	c-0.8,0-1.5,0.7-1.5,1.5s0.7,1.5,1.5,1.5s1.5-0.7,1.5-1.5S40.8,49.5,40,49.5z"/>
<path class="st2" d="M46,53.5c-1.4,0-2.5-1.1-2.5-2.5s1.1-2.5,2.5-2.5s2.5,1.1,2.5,2.5S47.4,53.5,46,53.5z M46,49.5
	c-0.8,0-1.5,0.7-1.5,1.5s0.7,1.5,1.5,1.5s1.5-0.7,1.5-1.5S46.8,49.5,46,49.5z"/>
<path class="st2" d="M52,53.5c-1.4,0-2.5-1.1-2.5-2.5s1.1-2.5,2.5-2.5s2.5,1.1,2.5,2.5S53.4,53.5,52,53.5z M52,49.5
	c-0.8,0-1.5,0.7-1.5,1.5s0.7,1.5,1.5,1.5s1.5-0.7,1.5-1.5S52.8,49.5,52,49.5z"/>
<path class="st2" d="M58,53.5c-1.4,0-2.5-1.1-2.5-2.5s1.1-2.5,2.5-2.5s2.5,1.1,2.5,2.5S59.4,53.5,58,53.5z M58,49.5
	c-0.8,0-1.5,0.7-1.5,1.5s0.7,1.5,1.5,1.5s1.5-0.7,1.5-1.5S58.8,49.5,58,49.5z"/>
<path class="st2" d="M28,47.5c-1.4,0-2.5-1.1-2.5-2.5s1.1-2.5,2.5-2.5s2.5,1.1,2.5,2.5S29.4,47.5,28,47.5z M28,43.5
	c-0.8,0-1.5,0.7-1.5,1.5s0.7,1.5,1.5,1.5s1.5-0.7,1.5-1.5S28.8,43.5,28,43.5z"/>
<path class="st2" d="M34,47.5c-1.4,0-2.5-1.1-2.5-2.5s1.1-2.5,2.5-2.5s2.5,1.1,2.5,2.5S35.4,47.5,34,47.5z M34,43.5
	c-0.8,0-1.5,0.7-1.5,1.5s0.7,1.5,1.5,1.5s1.5-0.7,1.5-1.5S34.8,43.5,34,43.5z"/>
<path class="st2" d="M40,47.5c-1.4,0-2.5-1.1-2.5-2.5s1.1-2.5,2.5-2.5c1.4,0,2.5,1.1,2.5,2.5S41.4,47.5,40,47.5z M40,43.5
	c-0.8,0-1.5,0.7-1.5,1.5s0.7,1.5,1.5,1.5s1.5-0.7,1.5-1.5S40.8,43.5,40,43.5z"/>
<path class="st2" d="M46,47.5c-1.4,0-2.5-1.1-2.5-2.5s1.1-2.5,2.5-2.5s2.5,1.1,2.5,2.5S47.4,47.5,46,47.5z M46,43.5
	c-0.8,0-1.5,0.7-1.5,1.5s0.7,1.5,1.5,1.5s1.5-0.7,1.5-1.5S46.8,43.5,46,43.5z"/>
<path class="st2" d="M52,47.5c-1.4,0-2.5-1.1-2.5-2.5s1.1-2.5,2.5-2.5s2.5,1.1,2.5,2.5S53.4,47.5,52,47.5z M52,43.5
	c-0.8,0-1.5,0.7-1.5,1.5s0.7,1.5,1.5,1.5s1.5-0.7,1.5-1.5S52.8,43.5,52,43.5z"/>
<path class="st2" d="M58,47.5c-1.4,0-2.5-1.1-2.5-2.5s1.1-2.5,2.5-2.5s2.5,1.1,2.5,2.5S59.4,47.5,58,47.5z M58,43.5
	c-0.8,0-1.5,0.7-1.5,1.5s0.7,1.5,1.5,1.5s1.5-0.7,1.5-1.5S58.8,43.5,58,43.5z"/>
<path class="st2" d="M28,41.5c-1.4,0-2.5-1.1-2.5-2.5s1.1-2.5,2.5-2.5s2.5,1.1,2.5,2.5S29.4,41.5,28,41.5z M28,37.5
	c-0.8,0-1.5,0.7-1.5,1.5s0.7,1.5,1.5,1.5s1.5-0.7,1.5-1.5S28.8,37.5,28,37.5z"/>
<path class="st2" d="M34,41.5c-1.4,0-2.5-1.1-2.5-2.5s1.1-2.5,2.5-2.5s2.5,1.1,2.5,2.5S35.4,41.5,34,41.5z M34,37.5
	c-0.8,0-1.5,0.7-1.5,1.5s0.7,1.5,1.5,1.5s1.5-0.7,1.5-1.5S34.8,37.5,34,37.5z"/>
<path class="st2" d="M40,41.5c-1.4,0-2.5-1.1-2.5-2.5s1.1-2.5,2.5-2.5c1.4,0,2.5,1.1,2.5,2.5S41.4,41.5,40,41.5z M40,37.5
	c-0.8,0-1.5,0.7-1.5,1.5s0.7,1.5,1.5,1.5s1.5-0.7,1.5-1.5S40.8,37.5,40,37.5z"/>
<path class="st2" d="M46,41.5c-1.4,0-2.5-1.1-2.5-2.5s1.1-2.5,2.5-2.5s2.5,1.1,2.5,2.5S47.4,41.5,46,41.5z M46,37.5
	c-0.8,0-1.5,0.7-1.5,1.5s0.7,1.5,1.5,1.5s1.5-0.7,1.5-1.5S46.8,37.5,46,37.5z"/>
<path class="st2" d="M52,41.5c-1.4,0-2.5-1.1-2.5-2.5s1.1-2.5,2.5-2.5s2.5,1.1,2.5,2.5S53.4,41.5,52,41.5z M52,37.5
	c-0.8,0-1.5,0.7-1.5,1.5s0.7,1.5,1.5,1.5s1.5-0.7,1.5-1.5S52.8,37.5,52,37.5z"/>
<path class="st2" d="M58,41.5c-1.4,0-2.5-1.1-2.5-2.5s1.1-2.5,2.5-2.5s2.5,1.1,2.5,2.5S59.4,41.5,58,41.5z M58,37.5
	c-0.8,0-1.5,0.7-1.5,1.5s0.7,1.5,1.5,1.5s1.5-0.7,1.5-1.5S58.8,37.5,58,37.5z"/>
<path class="st2" d="M28,35.5c-1.4,0-2.5-1.1-2.5-2.5s1.1-2.5,2.5-2.5s2.5,1.1,2.5,2.5S29.4,35.5,28,35.5z M28,31.5
	c-0.8,0-1.5,0.7-1.5,1.5s0.7,1.5,1.5,1.5s1.5-0.7,1.5-1.5S28.8,31.5,28,31.5z"/>
<path class="st2" d="M34,35.5c-1.4,0-2.5-1.1-2.5-2.5s1.1-2.5,2.5-2.5s2.5,1.1,2.5,2.5S35.4,35.5,34,35.5z M34,31.5
	c-0.8,0-1.5,0.7-1.5,1.5s0.7,1.5,1.5,1.5s1.5-0.7,1.5-1.5S34.8,31.5,34,31.5z"/>
<path class="st2" d="M40,35.5c-1.4,0-2.5-1.1-2.5-2.5s1.1-2.5,2.5-2.5c1.4,0,2.5,1.1,2.5,2.5S41.4,35.5,40,35.5z M40,31.5
	c-0.8,0-1.5,0.7-1.5,1.5s0.7,1.5,1.5,1.5s1.5-0.7,1.5-1.5S40.8,31.5,40,31.5z"/>
<path class="st2" d="M46,35.5c-1.4,0-2.5-1.1-2.5-2.5s1.1-2.5,2.5-2.5s2.5,1.1,2.5,2.5S47.4,35.5,46,35.5z M46,31.5
	c-0.8,0-1.5,0.7-1.5,1.5s0.7,1.5,1.5,1.5s1.5-0.7,1.5-1.5S46.8,31.5,46,31.5z"/>
<path class="st2" d="M52,35.5c-1.4,0-2.5-1.1-2.5-2.5s1.1-2.5,2.5-2.5s2.5,1.1,2.5,2.5S53.4,35.5,52,35.5z M52,31.5
	c-0.8,0-1.5,0.7-1.5,1.5s0.7,1.5,1.5,1.5s1.5-0.7,1.5-1.5S52.8,31.5,52,31.5z"/>
<path class="st2" d="M58,35.5c-1.4,0-2.5-1.1-2.5-2.5s1.1-2.5,2.5-2.5s2.5,1.1,2.5,2.5S59.4,35.5,58,35.5z M58,31.5
	c-0.8,0-1.5,0.7-1.5,1.5s0.7,1.5,1.5,1.5s1.5-0.7,1.5-1.5S58.8,31.5,58,31.5z"/>
<path class="st2" d="M28,29.5c-1.4,0-2.5-1.1-2.5-2.5s1.1-2.5,2.5-2.5s2.5,1.1,2.5,2.5S29.4,29.5,28,29.5z M28,25.5
	c-0.8,0-1.5,0.7-1.5,1.5s0.7,1.5,1.5,1.5s1.5-0.7,1.5-1.5S28.8,25.5,28,25.5z"/>
<path class="st2" d="M34,29.5c-1.4,0-2.5-1.1-2.5-2.5s1.1-2.5,2.5-2.5s2.5,1.1,2.5,2.5S35.4,29.5,34,29.5z M34,25.5
	c-0.8,0-1.5,0.7-1.5,1.5s0.7,1.5,1.5,1.5s1.5-0.7,1.5-1.5S34.8,25.5,34,25.5z"/>
<path class="st2" d="M40,29.5c-1.4,0-2.5-1.1-2.5-2.5s1.1-2.5,2.5-2.5c1.4,0,2.5,1.1,2.5,2.5S41.4,29.5,40,29.5z M40,25.5
	c-0.8,0-1.5,0.7-1.5,1.5s0.7,1.5,1.5,1.5s1.5-0.7,1.5-1.5S40.8,25.5,40,25.5z"/>
<path class="st2" d="M46,29.5c-1.4,0-2.5-1.1-2.5-2.5s1.1-2.5,2.5-2.5s2.5,1.1,2.5,2.5S47.4,29.5,46,29.5z M46,25.5
	c-0.8,0-1.5,0.7-1.5,1.5s0.7,1.5,1.5,1.5s1.5-0.7,1.5-1.5S46.8,25.5,46,25.5z"/>
<path class="st2" d="M52,29.5c-1.4,0-2.5-1.1-2.5-2.5s1.1-2.5,2.5-2.5s2.5,1.1,2.5,2.5S53.4,29.5,52,29.5z M52,25.5
	c-0.8,0-1.5,0.7-1.5,1.5s0.7,1.5,1.5,1.5s1.5-0.7,1.5-1.5S52.8,25.5,52,25.5z"/>
<path class="st2" d="M58,29.5c-1.4,0-2.5-1.1-2.5-2.5s1.1-2.5,2.5-2.5s2.5,1.1,2.5,2.5S59.4,29.5,58,29.5z M58,25.5
	c-0.8,0-1.5,0.7-1.5,1.5s0.7,1.5,1.5,1.5s1.5-0.7,1.5-1.5S58.8,25.5,58,25.5z"/>
</svg>
