<?xml version="1.0" encoding="utf-8"?>
<!-- Generator: Adobe Illustrator 26.2.1, SVG Export Plug-In . SVG Version: 6.00 Build 0)  -->
<svg version="1.1" id="Слой_1" xmlns="http://www.w3.org/2000/svg" xmlns:xlink="http://www.w3.org/1999/xlink" x="0px" y="0px"
	 viewBox="0 0 80 80" style="enable-background:new 0 0 80 80;" xml:space="preserve">
<style type="text/css">
	.st0{fill:url(#SVGID_1_);}
	.st1{fill:#FFFFFF;}
</style>
<radialGradient id="SVGID_1_" cx="2077.6689" cy="-880.5056" r="76.13" gradientTransform="matrix(0.72 0 0 -0.72 -1456.79 -596.68)" gradientUnits="userSpaceOnUse">
	<stop  offset="0" style="stop-color:#3A6880"/>
	<stop  offset="0.26" style="stop-color:#39657C"/>
	<stop  offset="0.51" style="stop-color:#355D70"/>
	<stop  offset="0.77" style="stop-color:#2E4F5C"/>
	<stop  offset="1" style="stop-color:#263D43"/>
</radialGradient>
<path class="st0" d="M4,0.5h72c1.9,0,3.5,1.6,3.5,3.5v72c0,1.9-1.6,3.5-3.5,3.5H4c-1.9,0-3.5-1.6-3.5-3.5V4C0.5,2.1,2.1,0.5,4,0.5z"
	/>
<path class="st1" d="M76,1c1.7,0,3,1.3,3,3v72c0,1.7-1.3,3-3,3H4c-1.7,0-3-1.3-3-3V4c0-1.7,1.3-3,3-3H76 M76,0H4C1.8,0,0,1.8,0,4v72
	c0,2.2,1.8,4,4,4h72c2.2,0,4-1.8,4-4V4C80,1.8,78.2,0,76,0z"/>
<path class="st1" d="M40,65.5c-14.1,0-25.5-11.4-25.5-25.5S25.9,14.5,40,14.5S65.5,25.9,65.5,40S54.1,65.5,40,65.5z M40,15.5
	c-13.5,0-24.5,11-24.5,24.5c0,13.5,11,24.5,24.5,24.5c13.5,0,24.5-11,24.5-24.5C64.5,26.5,53.5,15.5,40,15.5z"/>
<path class="st1" d="M40,63c-12.7,0-23-10.3-23-23c0-12.7,10.3-23,23-23c12.7,0,23,10.3,23,23C63,52.7,52.7,63,40,63z M40,18
	c-12.1,0-22,9.9-22,22s9.9,22,22,22s22-9.9,22-22S52.1,18,40,18z"/>
</svg>
