<svg width="81" height="81" viewBox="0 0 81 81" fill="none" xmlns="http://www.w3.org/2000/svg">
<path d="M3.5443 0.0835284L76.4557 0.00383478C77.3924 0.0133371 78.2882 0.389154 78.9514 1.05085C79.6145 1.71254 79.9923 2.60753 80.0038 3.54426L80.0835 76.4556C80.074 77.3924 79.6982 78.2882 79.0365 78.9513C78.3748 79.6145 77.4798 79.9922 76.5431 80.0038L3.63174 80.0835C2.69499 80.074 1.79918 79.6982 1.13603 79.0365C0.472892 78.3748 0.0951176 77.4798 0.0835676 76.5431L0.00387399 3.6317C0.0133763 2.69495 0.389194 1.79914 1.05089 1.13599C1.71258 0.472853 2.60757 0.0950784 3.5443 0.0835284Z" fill="url(#paint0_radial_597_16188)"/>
<path fill-rule="evenodd" clip-rule="evenodd" d="M50.2998 15.5C50.2998 14.1193 49.1805 13 47.7998 13H32.1998C30.8191 13 29.6998 14.1193 29.6998 15.5V26.6H50.2998V15.5ZM47.7998 14C48.6282 14 49.2998 14.6716 49.2998 15.5V25.6H30.6998V15.5C30.6998 14.6716 31.3714 14 32.1998 14H47.7998Z" fill="#282828"/>
<path fill-rule="evenodd" clip-rule="evenodd" d="M31.6616 39.5998L32.5002 26.0688L33.4983 26.1307L32.6015 40.5998L30.5969 40.5998L29.7002 26.1307L30.6983 26.0688L31.5369 39.5998L31.6616 39.5998Z" fill="#282828"/>
<path fill-rule="evenodd" clip-rule="evenodd" d="M37.2622 39.5998L38.1008 26.0688L39.0989 26.1307L38.2021 40.5998L36.1975 40.5998L35.3008 26.1307L36.2989 26.0688L37.1375 39.5998L37.2622 39.5998Z" fill="#282828"/>
<path fill-rule="evenodd" clip-rule="evenodd" d="M42.8628 39.5998L43.7014 26.0688L44.6995 26.1307L43.8027 40.5998L41.7981 40.5998L40.9014 26.1307L41.8995 26.0688L42.7381 39.5998L42.8628 39.5998Z" fill="#282828"/>
<path fill-rule="evenodd" clip-rule="evenodd" d="M48.4604 39.5998L49.299 26.0688L50.2971 26.1307L49.4003 40.5998L47.3958 40.5998L46.499 26.1307L47.4971 26.0688L48.3357 39.5998L48.4604 39.5998Z" fill="#282828"/>
<path fill-rule="evenodd" clip-rule="evenodd" d="M63 45.5996H17V63.5996H63V45.5996ZM16 44.5996V64.5996H64V44.5996H16Z" fill="#282828"/>
<path fill-rule="evenodd" clip-rule="evenodd" d="M67 64.5996H13V66.5996H67V64.5996ZM12 63.5996V67.5996H68V63.5996H12Z" fill="#282828"/>
<defs>
<radialGradient id="paint0_radial_597_16188" cx="0" cy="0" r="1" gradientUnits="userSpaceOnUse" gradientTransform="translate(40.0437 40.0437) rotate(89.9374) scale(62.8571)">
<stop stop-color="#DBEFF4"/>
<stop offset="1" stop-color="#9FBCCB"/>
</radialGradient>
</defs>
</svg>
