<svg width="81" height="81" viewBox="0 0 81 81" fill="none" xmlns="http://www.w3.org/2000/svg">
<path d="M3.5443 0.0835284L76.4557 0.00383478C77.3924 0.0133371 78.2882 0.389154 78.9514 1.05085C79.6145 1.71254 79.9923 2.60753 80.0038 3.54426L80.0835 76.4556C80.074 77.3924 79.6982 78.2882 79.0365 78.9513C78.3748 79.6145 77.4798 79.9922 76.5431 80.0038L3.63174 80.0835C2.69499 80.074 1.79918 79.6982 1.13603 79.0365C0.472892 78.3748 0.0951176 77.4798 0.0835676 76.5431L0.00387399 3.6317C0.0133763 2.69495 0.389194 1.79914 1.05089 1.13599C1.71258 0.472853 2.60757 0.0950784 3.5443 0.0835284Z" fill="url(#paint0_radial_597_16200)"/>
<path fill-rule="evenodd" clip-rule="evenodd" d="M27.5 65.6997V68.4997H25.5V65.6997H27.5Z" fill="#282828"/>
<path fill-rule="evenodd" clip-rule="evenodd" d="M30 23.8994H23V44.3994C23 45.2278 23.6716 45.8994 24.5 45.8994H28.5C29.3284 45.8994 30 45.2278 30 44.3994V23.8994ZM29 24.8994V44.3994C29 44.6755 28.7761 44.8994 28.5 44.8994H24.5C24.2239 44.8994 24 44.6755 24 44.3994V24.8994H29Z" fill="#282828"/>
<path fill-rule="evenodd" clip-rule="evenodd" d="M31 20.3994H22.5C21.1193 20.3994 20 21.5187 20 22.8994V24.8994H31V20.3994ZM30 21.3994V23.8994H21V22.8994C21 22.071 21.6716 21.3994 22.5 21.3994H30Z" fill="#282828"/>
<path fill-rule="evenodd" clip-rule="evenodd" d="M28 14.8003H25V21.4003H28V14.8003ZM27 15.8003V20.4003H26V15.8003H27Z" fill="#282828"/>
<path fill-rule="evenodd" clip-rule="evenodd" d="M28 48.3999H25V66.1999H28V48.3999ZM27 49.3999V65.1999H26V49.3999H27Z" fill="#282828"/>
<path fill-rule="evenodd" clip-rule="evenodd" d="M29 12H24V15.8H29V12ZM28 13V14.8H25V13H28Z" fill="#282828"/>
<path fill-rule="evenodd" clip-rule="evenodd" d="M29.1631 44.8994H23.8374L25.1231 49.3994H27.8774L29.1631 44.8994ZM27.8374 45.8994L27.1231 48.3994H25.8774L25.1631 45.8994H27.8374Z" fill="#282828"/>
<path fill-rule="evenodd" clip-rule="evenodd" d="M31.6391 19.4158C32.025 18.8756 32.513 18.6001 33 18.6001V17.6001C32.1063 17.6001 31.3443 18.1081 30.8254 18.8346C30.3058 19.5621 30 20.5414 30 21.6001H31C31 20.7258 31.2539 19.9551 31.6391 19.4158Z" fill="#282828"/>
<path fill-rule="evenodd" clip-rule="evenodd" d="M53.2002 14.2402H49.4002V19.7202H53.2002V14.2402ZM52.2002 15.2402V18.7202H50.4002V15.2402H52.2002Z" fill="#282828"/>
<path fill-rule="evenodd" clip-rule="evenodd" d="M53.2002 38.6001H49.4002V42.4001H53.2002V38.6001ZM52.2002 39.6001V41.4001H50.4002V39.6001H52.2002Z" fill="#282828"/>
<path fill-rule="evenodd" clip-rule="evenodd" d="M61.5996 43.8999C61.5996 42.5192 60.4803 41.3999 59.0996 41.3999H43.4996C42.1189 41.3999 40.9996 42.5192 40.9996 43.8999V54.9999H61.5996V43.8999ZM59.0996 42.3999C59.928 42.3999 60.5996 43.0715 60.5996 43.8999V53.9999H41.9996V43.8999C41.9996 43.0715 42.6712 42.3999 43.4996 42.3999H59.0996Z" fill="#282828"/>
<path fill-rule="evenodd" clip-rule="evenodd" d="M54.5996 12H47.9996V15.24H54.5996V12ZM53.5996 13V14.24H48.9996V13H53.5996Z" fill="#282828"/>
<path fill-rule="evenodd" clip-rule="evenodd" d="M56 19.78C56 18.6081 57.2333 17.48 59 17.48V16.48C56.9007 16.48 55 17.8591 55 19.78H56Z" fill="#282828"/>
<path fill-rule="evenodd" clip-rule="evenodd" d="M56 21.8003H46.04V38.1003C46.04 38.9287 46.7116 39.6003 47.54 39.6003H54.5C55.3284 39.6003 56 38.9287 56 38.1003V21.8003ZM55 22.8003V38.1003C55 38.3764 54.7761 38.6003 54.5 38.6003H47.54C47.2639 38.6003 47.04 38.3764 47.04 38.1003V22.8003H55Z" fill="#282828"/>
<path fill-rule="evenodd" clip-rule="evenodd" d="M56 18.7202H46.3C44.9193 18.7202 43.8 19.8395 43.8 21.2202V22.5202H56V18.7202ZM55 19.7202V21.5202H44.8V21.2202C44.8 20.3918 45.4716 19.7202 46.3 19.7202H55Z" fill="#282828"/>
<path fill-rule="evenodd" clip-rule="evenodd" d="M49.3994 39.1003V18.8003H50.3994V39.1003H49.3994Z" fill="#282828"/>
<path fill-rule="evenodd" clip-rule="evenodd" d="M42.9624 68.0002L43.801 54.4692L44.7991 54.5311L43.9023 69.0002L41.8977 69.0002L41.001 54.5311L41.9991 54.4692L42.8377 68.0002L42.9624 68.0002Z" fill="#282828"/>
<path fill-rule="evenodd" clip-rule="evenodd" d="M48.562 68.0002L49.4006 54.4692L50.3987 54.5311L49.5019 69.0002L47.4973 69.0002L46.6006 54.5311L47.5987 54.4692L48.4373 68.0002L48.562 68.0002Z" fill="#282828"/>
<path fill-rule="evenodd" clip-rule="evenodd" d="M54.1626 68.0002L55.0012 54.4692L55.9993 54.5311L55.1025 69.0002L53.0979 69.0002L52.2012 54.5311L53.1993 54.4692L54.0379 68.0002L54.1626 68.0002Z" fill="#282828"/>
<path fill-rule="evenodd" clip-rule="evenodd" d="M59.7612 68.0002L60.5998 54.4692L61.5979 54.5311L60.7011 69.0002L58.6966 69.0002L57.7998 54.5311L58.7979 54.4692L59.6365 68.0002L59.7612 68.0002Z" fill="#282828"/>
<defs>
<radialGradient id="paint0_radial_597_16200" cx="0" cy="0" r="1" gradientUnits="userSpaceOnUse" gradientTransform="translate(40.0437 40.0437) rotate(89.9374) scale(62.8571)">
<stop stop-color="#DBEFF4"/>
<stop offset="1" stop-color="#9FBCCB"/>
</radialGradient>
</defs>
</svg>
