<svg width="81" height="98" viewBox="0 0 81 98" fill="none" xmlns="http://www.w3.org/2000/svg">
<path d="M3.5443 17.0835L76.4557 17.0038C77.3924 17.0133 78.2882 17.3892 78.9514 18.0508C79.6145 18.7125 79.9923 19.6075 80.0038 20.5443L80.0835 93.4556C80.074 94.3924 79.6982 95.2882 79.0365 95.9513C78.3748 96.6145 77.4798 96.9922 76.5431 97.0038L3.63174 97.0835C2.69499 97.074 1.79918 96.6982 1.13603 96.0365C0.472892 95.3748 0.0951176 94.4798 0.0835676 93.5431L0.00387399 20.6317C0.0133763 19.695 0.389194 18.7991 1.05089 18.136C1.71258 17.4729 2.60757 17.0951 3.5443 17.0835Z" fill="url(#paint0_radial_597_16321)"/>
<path fill-rule="evenodd" clip-rule="evenodd" d="M44.5 4.19258C44.5 3.02067 45.7333 1.89258 47.5 1.89258V0.892578C45.4007 0.892578 43.5 2.27169 43.5 4.19258H44.5Z" fill="#F3F5F5"/>
<path fill-rule="evenodd" clip-rule="evenodd" d="M50.2998 31.9126C50.2998 30.5319 49.1805 29.4126 47.7998 29.4126H32.1998C30.8191 29.4126 29.6998 30.5319 29.6998 31.9126V43.0126H50.2998V31.9126ZM47.7998 30.4126C48.6282 30.4126 49.2998 31.0842 49.2998 31.9126V42.0126H30.6998V31.9126C30.6998 31.0842 31.3714 30.4126 32.1998 30.4126H47.7998Z" fill="#F3F5F5"/>
<path fill-rule="evenodd" clip-rule="evenodd" d="M31.6616 56.0124L32.5002 42.4814L33.4983 42.5433L32.6015 57.0124L30.5969 57.0124L29.7002 42.5433L30.6983 42.4814L31.5369 56.0124L31.6616 56.0124Z" fill="#F3F5F5"/>
<path fill-rule="evenodd" clip-rule="evenodd" d="M37.2622 56.0124L38.1008 42.4814L39.0989 42.5433L38.2021 57.0124L36.1975 57.0124L35.3008 42.5433L36.2989 42.4814L37.1375 56.0124L37.2622 56.0124Z" fill="#F3F5F5"/>
<path fill-rule="evenodd" clip-rule="evenodd" d="M42.8628 56.0124L43.7014 42.4814L44.6995 42.5433L43.8027 57.0124L41.7981 57.0124L40.9014 42.5433L41.8995 42.4814L42.7381 56.0124L42.8628 56.0124Z" fill="#F3F5F5"/>
<path fill-rule="evenodd" clip-rule="evenodd" d="M48.4604 56.0124L49.299 42.4814L50.2971 42.5433L49.4003 57.0124L47.3958 57.0124L46.499 42.5433L47.4971 42.4814L48.3357 56.0124L48.4604 56.0124Z" fill="#F3F5F5"/>
<path fill-rule="evenodd" clip-rule="evenodd" d="M63 62.0127H17V80.0127H63V62.0127ZM16 61.0127V81.0127H64V61.0127H16Z" fill="#F3F5F5"/>
<path fill-rule="evenodd" clip-rule="evenodd" d="M67 81.0127H13V83.0127H67V81.0127ZM12 80.0127V84.0127H68V80.0127H12Z" fill="#F3F5F5"/>
<defs>
<radialGradient id="paint0_radial_597_16321" cx="0" cy="0" r="1" gradientUnits="userSpaceOnUse" gradientTransform="translate(40.0437 57.0437) rotate(89.9374) scale(40)">
<stop stop-color="#396780"/>
<stop offset="1" stop-color="#2D4A54"/>
</radialGradient>
</defs>
</svg>
