<svg width="80" height="105" viewBox="0 0 80 105" fill="none" xmlns="http://www.w3.org/2000/svg">
<path d="M3.5443 0H76.4557C77.3924 0.0105262 78.2878 0.387322 78.9503 1.04974C79.6127 1.71216 79.9895 2.60756 80 3.5443V76.4557C79.9895 77.3924 79.6127 78.2878 78.9503 78.9503C78.2878 79.6127 77.3924 79.9895 76.4557 80H3.5443C2.60756 79.9895 1.71216 79.6127 1.04974 78.9503C0.387322 78.2878 0.0105262 77.3924 0 76.4557V3.5443C0.0105262 2.60756 0.387322 1.71216 1.04974 1.04974C1.71216 0.387322 2.60756 0.0105262 3.5443 0Z" fill="url(#paint0_radial_403_1504)"/>
<path fill-rule="evenodd" clip-rule="evenodd" d="M15.5 14H24.5V21H15.5V14ZM16.5 15V20H23.5V15H16.5Z" fill="#282828"/>
<path fill-rule="evenodd" clip-rule="evenodd" d="M17.5 20.5V14.5H18.5V20.5H17.5Z" fill="#282828"/>
<path fill-rule="evenodd" clip-rule="evenodd" d="M21.5 20.5V14.5H22.5V20.5H21.5Z" fill="#282828"/>
<path fill-rule="evenodd" clip-rule="evenodd" d="M28.5 14H37.5V21H28.5V14ZM29.5 15V20H36.5V15H29.5Z" fill="#282828"/>
<path fill-rule="evenodd" clip-rule="evenodd" d="M30.5 20.5V14.5H31.5V20.5H30.5Z" fill="#282828"/>
<path fill-rule="evenodd" clip-rule="evenodd" d="M34.5 20.5V14.5H35.5V20.5H34.5Z" fill="#282828"/>
<path fill-rule="evenodd" clip-rule="evenodd" d="M41.5 14H50.5V21H41.5V14ZM42.5 15V20H49.5V15H42.5Z" fill="#282828"/>
<path fill-rule="evenodd" clip-rule="evenodd" d="M43.5 20.5V14.5H44.5V20.5H43.5Z" fill="#282828"/>
<path fill-rule="evenodd" clip-rule="evenodd" d="M47.5 20.5V14.5H48.5V20.5H47.5Z" fill="#282828"/>
<path fill-rule="evenodd" clip-rule="evenodd" d="M54.5 14H63.5V21H54.5V14ZM55.5 15V20H62.5V15H55.5Z" fill="#282828"/>
<path fill-rule="evenodd" clip-rule="evenodd" d="M56.5 20.5V14.5H57.5V20.5H56.5Z" fill="#282828"/>
<path fill-rule="evenodd" clip-rule="evenodd" d="M60.5 20.5V14.5H61.5V20.5H60.5Z" fill="#282828"/>
<path fill-rule="evenodd" clip-rule="evenodd" d="M12 20H67V29H12V20ZM13 21V28H66V21H13Z" fill="#282828"/>
<path fill-rule="evenodd" clip-rule="evenodd" d="M16.3921 28H23.4461L21.3935 67H18.4447L16.3921 28ZM17.4461 29L19.3935 66H20.4447L22.3921 29H17.4461Z" fill="#282828"/>
<path fill-rule="evenodd" clip-rule="evenodd" d="M29.446 28H36.5001L34.4474 67H31.4987L29.446 28ZM30.5001 29L32.4474 66H33.4987L35.446 29H30.5001Z" fill="#282828"/>
<path fill-rule="evenodd" clip-rule="evenodd" d="M42.5 28H49.554L47.5014 67H44.5526L42.5 28ZM43.554 29L45.5014 66H46.5526L48.5 29H43.554Z" fill="#282828"/>
<path fill-rule="evenodd" clip-rule="evenodd" d="M55.5542 28H62.6082L60.5556 67H57.6068L55.5542 28ZM56.6082 29L58.5556 66H59.6068L61.5542 29H56.6082Z" fill="#282828"/>
<path d="M11.7158 98.4512C11.7158 98.2754 11.6885 98.1191 11.6338 97.9824C11.583 97.8457 11.4912 97.7207 11.3584 97.6074C11.2256 97.4941 11.0381 97.3848 10.7959 97.2793C10.5576 97.1699 10.2529 97.0586 9.88184 96.9453C9.47559 96.8203 9.10059 96.6816 8.75684 96.5293C8.41699 96.373 8.12012 96.1934 7.86621 95.9902C7.6123 95.7832 7.41504 95.5469 7.27441 95.2812C7.13379 95.0117 7.06348 94.7012 7.06348 94.3496C7.06348 94.002 7.13574 93.6855 7.28027 93.4004C7.42871 93.1152 7.6377 92.8691 7.90723 92.6621C8.18066 92.4512 8.50293 92.2891 8.87402 92.1758C9.24512 92.0586 9.65527 92 10.1045 92C10.7373 92 11.2822 92.1172 11.7393 92.3516C12.2002 92.5859 12.5537 92.9004 12.7998 93.2949C13.0498 93.6895 13.1748 94.125 13.1748 94.6016H11.7158C11.7158 94.3203 11.6553 94.0723 11.5342 93.8574C11.417 93.6387 11.2373 93.4668 10.9951 93.3418C10.7568 93.2168 10.4541 93.1543 10.0869 93.1543C9.73926 93.1543 9.4502 93.207 9.21973 93.3125C8.98926 93.418 8.81738 93.5605 8.7041 93.7402C8.59082 93.9199 8.53418 94.123 8.53418 94.3496C8.53418 94.5098 8.57129 94.6562 8.64551 94.7891C8.71973 94.918 8.83301 95.0391 8.98535 95.1523C9.1377 95.2617 9.3291 95.3652 9.55957 95.4629C9.79004 95.5605 10.0615 95.6543 10.374 95.7441C10.8467 95.8848 11.2588 96.041 11.6104 96.2129C11.9619 96.3809 12.2549 96.5723 12.4893 96.7871C12.7236 97.002 12.8994 97.2461 13.0166 97.5195C13.1338 97.7891 13.1924 98.0957 13.1924 98.4395C13.1924 98.7988 13.1201 99.123 12.9756 99.4121C12.8311 99.6973 12.624 99.9414 12.3545 100.145C12.0889 100.344 11.7686 100.498 11.3936 100.607C11.0225 100.713 10.6084 100.766 10.1514 100.766C9.74121 100.766 9.33691 100.711 8.93848 100.602C8.54395 100.492 8.18457 100.326 7.86035 100.104C7.53613 99.877 7.27832 99.5957 7.08691 99.2598C6.89551 98.9199 6.7998 98.5234 6.7998 98.0703H8.27051C8.27051 98.3477 8.31738 98.584 8.41113 98.7793C8.50879 98.9746 8.64355 99.1348 8.81543 99.2598C8.9873 99.3809 9.18652 99.4707 9.41309 99.5293C9.64355 99.5879 9.88965 99.6172 10.1514 99.6172C10.4951 99.6172 10.7822 99.5684 11.0127 99.4707C11.2471 99.373 11.4229 99.2363 11.54 99.0605C11.6572 98.8848 11.7158 98.6816 11.7158 98.4512Z" fill="#282828"/>
<path d="M18.0029 92.1172V100.648H16.5439V92.1172H18.0029ZM20.6807 92.1172V93.2891H13.8896V92.1172H20.6807Z" fill="#282828"/>
<path d="M27.3896 99.4824V100.648H22.8604V99.4824H27.3896ZM23.2764 92.1172V100.648H21.8057V92.1172H23.2764ZM26.7979 95.6797V96.8281H22.8604V95.6797H26.7979ZM27.3604 92.1172V93.2891H22.8604V92.1172H27.3604Z" fill="#282828"/>
<path d="M28.5908 92.1172H31.6084C32.2568 92.1172 32.8096 92.2148 33.2666 92.4102C33.7236 92.6055 34.0732 92.8945 34.3154 93.2773C34.5615 93.6562 34.6846 94.125 34.6846 94.6836C34.6846 95.1094 34.6064 95.4844 34.4502 95.8086C34.2939 96.1328 34.0732 96.4062 33.7881 96.6289C33.5029 96.8477 33.1631 97.0176 32.7686 97.1387L32.3232 97.3555H29.6104L29.5986 96.1895H31.6318C31.9834 96.1895 32.2764 96.127 32.5107 96.002C32.7451 95.877 32.9209 95.707 33.0381 95.4922C33.1592 95.2734 33.2197 95.0273 33.2197 94.7539C33.2197 94.457 33.1611 94.1992 33.0439 93.9805C32.9307 93.7578 32.7549 93.5879 32.5166 93.4707C32.2783 93.3496 31.9756 93.2891 31.6084 93.2891H30.0615V100.648H28.5908V92.1172ZM33.46 100.648L31.4561 96.8164L32.9971 96.8105L35.0303 100.572V100.648H33.46Z" fill="#282828"/>
<path d="M37.7197 92.1172V100.648H36.249V92.1172H37.7197Z" fill="#282828"/>
<path d="M44.8916 99.4824V100.648H40.6084V99.4824H44.8916ZM41.0186 92.1172V100.648H39.5479V92.1172H41.0186Z" fill="#282828"/>
<path d="M51.6123 99.4824V100.648H47.083V99.4824H51.6123ZM47.499 92.1172V100.648H46.0283V92.1172H47.499ZM51.0205 95.6797V96.8281H47.083V95.6797H51.0205ZM51.583 92.1172V93.2891H47.083V92.1172H51.583Z" fill="#282828"/>
<path d="M1.7998 92C1.7998 89.2386 4.03838 87 6.7998 87H55.6123V89H6.7998C5.14295 89 3.7998 90.3431 3.7998 92H1.7998ZM55.6123 105.766H6.7998C4.03838 105.766 1.7998 103.527 1.7998 100.766H3.7998C3.7998 102.422 5.14295 103.766 6.7998 103.766H55.6123V105.766ZM6.7998 105.766C4.03838 105.766 1.7998 103.527 1.7998 100.766V92C1.7998 89.2386 4.03838 87 6.7998 87V89C5.14295 89 3.7998 90.3431 3.7998 92V100.766C3.7998 102.422 5.14295 103.766 6.7998 103.766V105.766ZM55.6123 88V104.766V88Z" fill="#B2B6BC" mask="url(#path-19-inside-1_403_1504)"/>
<path d="M65.1963 99.4824V100.648H60.667V99.4824H65.1963ZM61.083 92.1172V100.648H59.6123V92.1172H61.083ZM64.6045 95.6797V96.8281H60.667V95.6797H64.6045ZM65.167 92.1172V93.2891H60.667V92.1172H65.167Z" fill="#282828"/>
<path d="M73.2002 96.1484V96.6172C73.2002 97.2617 73.1162 97.8398 72.9482 98.3516C72.7803 98.8633 72.54 99.2988 72.2275 99.6582C71.9189 100.018 71.5479 100.293 71.1143 100.484C70.6807 100.672 70.2002 100.766 69.6729 100.766C69.1494 100.766 68.6709 100.672 68.2373 100.484C67.8076 100.293 67.4346 100.018 67.1182 99.6582C66.8018 99.2988 66.5557 98.8633 66.3799 98.3516C66.208 97.8398 66.1221 97.2617 66.1221 96.6172V96.1484C66.1221 95.5039 66.208 94.9277 66.3799 94.4199C66.5518 93.9082 66.7939 93.4727 67.1064 93.1133C67.4229 92.75 67.7959 92.4746 68.2256 92.2871C68.6592 92.0957 69.1377 92 69.6611 92C70.1885 92 70.6689 92.0957 71.1025 92.2871C71.5361 92.4746 71.9092 92.75 72.2217 93.1133C72.5342 93.4727 72.7744 93.9082 72.9424 94.4199C73.1143 94.9277 73.2002 95.5039 73.2002 96.1484ZM71.7295 96.6172V96.1367C71.7295 95.6602 71.6826 95.2402 71.5889 94.877C71.499 94.5098 71.3643 94.2031 71.1846 93.957C71.0088 93.707 70.792 93.5195 70.5342 93.3945C70.2764 93.2656 69.9854 93.2012 69.6611 93.2012C69.3369 93.2012 69.0479 93.2656 68.7939 93.3945C68.54 93.5195 68.3232 93.707 68.1436 93.957C67.9678 94.2031 67.833 94.5098 67.7393 94.877C67.6455 95.2402 67.5986 95.6602 67.5986 96.1367V96.6172C67.5986 97.0938 67.6455 97.5156 67.7393 97.8828C67.833 98.25 67.9697 98.5605 68.1494 98.8145C68.333 99.0645 68.5518 99.2539 68.8057 99.3828C69.0596 99.5078 69.3486 99.5703 69.6729 99.5703C70.001 99.5703 70.292 99.5078 70.5459 99.3828C70.7998 99.2539 71.0146 99.0645 71.1904 98.8145C71.3662 98.5605 71.499 98.25 71.5889 97.8828C71.6826 97.5156 71.7295 97.0938 71.7295 96.6172Z" fill="#282828"/>
<path d="M54.6123 87H73.2002C75.9616 87 78.2002 89.2386 78.2002 92H76.2002C76.2002 90.3431 74.857 89 73.2002 89H56.6123L54.6123 87ZM78.2002 100.766C78.2002 103.527 75.9616 105.766 73.2002 105.766H54.6123L56.6123 103.766H73.2002C74.857 103.766 76.2002 102.422 76.2002 100.766H78.2002ZM54.6123 105.766V87L56.6123 89V103.766L54.6123 105.766ZM73.2002 87C75.9616 87 78.2002 89.2386 78.2002 92V100.766C78.2002 103.527 75.9616 105.766 73.2002 105.766V103.766C74.857 103.766 76.2002 102.422 76.2002 100.766V92C76.2002 90.3431 74.857 89 73.2002 89V87Z" fill="#B2B6BC" mask="url(#path-22-inside-2_403_1504)"/>
<defs>
<radialGradient id="paint0_radial_403_1504" cx="0" cy="0" r="1" gradientUnits="userSpaceOnUse" gradientTransform="translate(40 40) rotate(90) scale(62.8571)">
<stop stop-color="#DBEFF4"/>
<stop offset="1" stop-color="#9FBCCB"/>
</radialGradient>
</defs>
</svg>
