<svg width="80" height="105" viewBox="0 0 80 105" fill="none" xmlns="http://www.w3.org/2000/svg">
<path d="M3.5443 0H76.4557C77.3924 0.0105262 78.2878 0.387322 78.9503 1.04974C79.6127 1.71216 79.9895 2.60756 80 3.5443V76.4557C79.9895 77.3924 79.6127 78.2878 78.9503 78.9503C78.2878 79.6127 77.3924 79.9895 76.4557 80H3.5443C2.60756 79.9895 1.71216 79.6127 1.04974 78.9503C0.387322 78.2878 0.0105262 77.3924 0 76.4557V3.5443C0.0105262 2.60756 0.387322 1.71216 1.04974 1.04974C1.71216 0.387322 2.60756 0.0105262 3.5443 0Z" fill="url(#paint0_radial_403_1403)"/>
<path fill-rule="evenodd" clip-rule="evenodd" d="M15.5 14H24.5V21H15.5V14ZM16.5 15V20H23.5V15H16.5Z" fill="#282828"/>
<path fill-rule="evenodd" clip-rule="evenodd" d="M17.5 20.5V14.5H18.5V20.5H17.5Z" fill="#282828"/>
<path fill-rule="evenodd" clip-rule="evenodd" d="M21.5 20.5V14.5H22.5V20.5H21.5Z" fill="#282828"/>
<path fill-rule="evenodd" clip-rule="evenodd" d="M28.5 14H37.5V21H28.5V14ZM29.5 15V20H36.5V15H29.5Z" fill="#282828"/>
<path fill-rule="evenodd" clip-rule="evenodd" d="M30.5 20.5V14.5H31.5V20.5H30.5Z" fill="#282828"/>
<path fill-rule="evenodd" clip-rule="evenodd" d="M34.5 20.5V14.5H35.5V20.5H34.5Z" fill="#282828"/>
<path fill-rule="evenodd" clip-rule="evenodd" d="M41.5 14H50.5V21H41.5V14ZM42.5 15V20H49.5V15H42.5Z" fill="#282828"/>
<path fill-rule="evenodd" clip-rule="evenodd" d="M43.5 20.5V14.5H44.5V20.5H43.5Z" fill="#282828"/>
<path fill-rule="evenodd" clip-rule="evenodd" d="M47.5 20.5V14.5H48.5V20.5H47.5Z" fill="#282828"/>
<path fill-rule="evenodd" clip-rule="evenodd" d="M54.5 14H63.5V21H54.5V14ZM55.5 15V20H62.5V15H55.5Z" fill="#282828"/>
<path fill-rule="evenodd" clip-rule="evenodd" d="M56.5 20.5V14.5H57.5V20.5H56.5Z" fill="#282828"/>
<path fill-rule="evenodd" clip-rule="evenodd" d="M60.5 20.5V14.5H61.5V20.5H60.5Z" fill="#282828"/>
<path fill-rule="evenodd" clip-rule="evenodd" d="M12 20H67V29H12V20ZM13 21V28H66V21H13Z" fill="#282828"/>
<path fill-rule="evenodd" clip-rule="evenodd" d="M16.3921 28H23.4461L21.3935 67H18.4447L16.3921 28ZM17.4461 29L19.3935 66H20.4447L22.3921 29H17.4461Z" fill="#282828"/>
<path fill-rule="evenodd" clip-rule="evenodd" d="M29.446 28H36.5001L34.4474 67H31.4987L29.446 28ZM30.5001 29L32.4474 66H33.4987L35.446 29H30.5001Z" fill="#282828"/>
<path fill-rule="evenodd" clip-rule="evenodd" d="M42.5 28H49.554L47.5014 67H44.5526L42.5 28ZM43.554 29L45.5014 66H46.5526L48.5 29H43.554Z" fill="#282828"/>
<path fill-rule="evenodd" clip-rule="evenodd" d="M55.5542 28H62.6082L60.5556 67H57.6068L55.5542 28ZM56.6082 29L58.5556 66H59.6068L61.5542 29H56.6082Z" fill="#282828"/>
<path d="M15.29 98.4512C15.29 98.2754 15.2627 98.1191 15.208 97.9824C15.1572 97.8457 15.0654 97.7207 14.9326 97.6074C14.7998 97.4941 14.6123 97.3848 14.3701 97.2793C14.1318 97.1699 13.8271 97.0586 13.4561 96.9453C13.0498 96.8203 12.6748 96.6816 12.3311 96.5293C11.9912 96.373 11.6943 96.1934 11.4404 95.9902C11.1865 95.7832 10.9893 95.5469 10.8486 95.2812C10.708 95.0117 10.6377 94.7012 10.6377 94.3496C10.6377 94.002 10.71 93.6855 10.8545 93.4004C11.0029 93.1152 11.2119 92.8691 11.4814 92.6621C11.7549 92.4512 12.0771 92.2891 12.4482 92.1758C12.8193 92.0586 13.2295 92 13.6787 92C14.3115 92 14.8564 92.1172 15.3135 92.3516C15.7744 92.5859 16.1279 92.9004 16.374 93.2949C16.624 93.6895 16.749 94.125 16.749 94.6016H15.29C15.29 94.3203 15.2295 94.0723 15.1084 93.8574C14.9912 93.6387 14.8115 93.4668 14.5693 93.3418C14.3311 93.2168 14.0283 93.1543 13.6611 93.1543C13.3135 93.1543 13.0244 93.207 12.7939 93.3125C12.5635 93.418 12.3916 93.5605 12.2783 93.7402C12.165 93.9199 12.1084 94.123 12.1084 94.3496C12.1084 94.5098 12.1455 94.6562 12.2197 94.7891C12.2939 94.918 12.4072 95.0391 12.5596 95.1523C12.7119 95.2617 12.9033 95.3652 13.1338 95.4629C13.3643 95.5605 13.6357 95.6543 13.9482 95.7441C14.4209 95.8848 14.833 96.041 15.1846 96.2129C15.5361 96.3809 15.8291 96.5723 16.0635 96.7871C16.2979 97.002 16.4736 97.2461 16.5908 97.5195C16.708 97.7891 16.7666 98.0957 16.7666 98.4395C16.7666 98.7988 16.6943 99.123 16.5498 99.4121C16.4053 99.6973 16.1982 99.9414 15.9287 100.145C15.6631 100.344 15.3428 100.498 14.9678 100.607C14.5967 100.713 14.1826 100.766 13.7256 100.766C13.3154 100.766 12.9111 100.711 12.5127 100.602C12.1182 100.492 11.7588 100.326 11.4346 100.104C11.1104 99.877 10.8525 99.5957 10.6611 99.2598C10.4697 98.9199 10.374 98.5234 10.374 98.0703H11.8447C11.8447 98.3477 11.8916 98.584 11.9854 98.7793C12.083 98.9746 12.2178 99.1348 12.3896 99.2598C12.5615 99.3809 12.7607 99.4707 12.9873 99.5293C13.2178 99.5879 13.4639 99.6172 13.7256 99.6172C14.0693 99.6172 14.3564 99.5684 14.5869 99.4707C14.8213 99.373 14.9971 99.2363 15.1143 99.0605C15.2314 98.8848 15.29 98.6816 15.29 98.4512Z" fill="#282828"/>
<path d="M21.5771 92.1172V100.648H20.1182V92.1172H21.5771ZM24.2549 92.1172V93.2891H17.4639V92.1172H24.2549Z" fill="#282828"/>
<path d="M30.9639 99.4824V100.648H26.4346V99.4824H30.9639ZM26.8506 92.1172V100.648H25.3799V92.1172H26.8506ZM30.3721 95.6797V96.8281H26.4346V95.6797H30.3721ZM30.9346 92.1172V93.2891H26.4346V92.1172H30.9346Z" fill="#282828"/>
<path d="M32.165 92.1172H35.1826C35.8311 92.1172 36.3838 92.2148 36.8408 92.4102C37.2979 92.6055 37.6475 92.8945 37.8896 93.2773C38.1357 93.6562 38.2588 94.125 38.2588 94.6836C38.2588 95.1094 38.1807 95.4844 38.0244 95.8086C37.8682 96.1328 37.6475 96.4062 37.3623 96.6289C37.0771 96.8477 36.7373 97.0176 36.3428 97.1387L35.8975 97.3555H33.1846L33.1729 96.1895H35.2061C35.5576 96.1895 35.8506 96.127 36.085 96.002C36.3193 95.877 36.4951 95.707 36.6123 95.4922C36.7334 95.2734 36.7939 95.0273 36.7939 94.7539C36.7939 94.457 36.7354 94.1992 36.6182 93.9805C36.5049 93.7578 36.3291 93.5879 36.0908 93.4707C35.8525 93.3496 35.5498 93.2891 35.1826 93.2891H33.6357V100.648H32.165V92.1172ZM37.0342 100.648L35.0303 96.8164L36.5713 96.8105L38.6045 100.572V100.648H37.0342Z" fill="#282828"/>
<path d="M41.2939 92.1172V100.648H39.8232V92.1172H41.2939Z" fill="#282828"/>
<path d="M48.4658 99.4824V100.648H44.1826V99.4824H48.4658ZM44.5928 92.1172V100.648H43.1221V92.1172H44.5928Z" fill="#282828"/>
<path d="M55.1865 99.4824V100.648H50.6572V99.4824H55.1865ZM51.0732 92.1172V100.648H49.6025V92.1172H51.0732ZM54.5947 95.6797V96.8281H50.6572V95.6797H54.5947ZM55.1572 92.1172V93.2891H50.6572V92.1172H55.1572Z" fill="#282828"/>
<path d="M5.37402 92C5.37402 89.2386 7.6126 87 10.374 87H59.1865V89H10.374C8.71717 89 7.37402 90.3431 7.37402 92H5.37402ZM59.1865 105.766H10.374C7.6126 105.766 5.37402 103.527 5.37402 100.766H7.37402C7.37402 102.422 8.71717 103.766 10.374 103.766H59.1865V105.766ZM10.374 105.766C7.6126 105.766 5.37402 103.527 5.37402 100.766V92C5.37402 89.2386 7.6126 87 10.374 87V89C8.71717 89 7.37402 90.3431 7.37402 92V100.766C7.37402 102.422 8.71717 103.766 10.374 103.766V105.766ZM59.1865 88V104.766V88Z" fill="#B2B6BC" mask="url(#path-19-inside-1_403_1403)"/>
<path d="M63.1865 92H66.2041C66.8525 92 67.4053 92.0977 67.8623 92.293C68.3193 92.4883 68.6689 92.7773 68.9111 93.1602C69.1572 93.5391 69.2803 94.0078 69.2803 94.5664C69.2803 94.9922 69.2021 95.3672 69.0459 95.6914C68.8896 96.0156 68.6689 96.2891 68.3838 96.5117C68.0986 96.7305 67.7588 96.9004 67.3643 97.0215L66.9189 97.2383H64.2061L64.1943 96.0723H66.2275C66.5791 96.0723 66.8721 96.0098 67.1064 95.8848C67.3408 95.7598 67.5166 95.5898 67.6338 95.375C67.7549 95.1562 67.8154 94.9102 67.8154 94.6367C67.8154 94.3398 67.7568 94.082 67.6396 93.8633C67.5264 93.6406 67.3506 93.4707 67.1123 93.3535C66.874 93.2324 66.5713 93.1719 66.2041 93.1719H64.6572V100.531H63.1865V92ZM68.0557 100.531L66.0518 96.6992L67.5928 96.6934L69.626 100.455V100.531H68.0557Z" fill="#282828"/>
<path d="M58.1865 87H69.626C72.3874 87 74.626 89.2386 74.626 92H72.626C72.626 90.3431 71.2828 89 69.626 89H60.1865L58.1865 87ZM74.626 100.766C74.626 103.527 72.3874 105.766 69.626 105.766H58.1865L60.1865 103.766H69.626C71.2828 103.766 72.626 102.422 72.626 100.766H74.626ZM58.1865 105.766V87L60.1865 89V103.766L58.1865 105.766ZM69.626 87C72.3874 87 74.626 89.2386 74.626 92V100.766C74.626 103.527 72.3874 105.766 69.626 105.766V103.766C71.2828 103.766 72.626 102.422 72.626 100.766V92C72.626 90.3431 71.2828 89 69.626 89V87Z" fill="#B2B6BC" mask="url(#path-22-inside-2_403_1403)"/>
<defs>
<radialGradient id="paint0_radial_403_1403" cx="0" cy="0" r="1" gradientUnits="userSpaceOnUse" gradientTransform="translate(40 40) rotate(90) scale(62.8571)">
<stop stop-color="#DBEFF4"/>
<stop offset="1" stop-color="#9FBCCB"/>
</radialGradient>
</defs>
</svg>
