<svg width="95" height="38" viewBox="0 0 95 38" fill="none" xmlns="http://www.w3.org/2000/svg">
<path fill-rule="evenodd" clip-rule="evenodd" d="M15.0305 30.2663C12.797 30.2663 10.6137 29.6055 8.75661 28.3675C6.89954 27.1296 5.45213 25.37 4.59741 23.3114C3.7427 21.2528 3.51906 18.9875 3.95479 16.8021C4.39052 14.6166 5.46605 12.6092 7.04536 11.0336C8.62466 9.45794 10.6368 8.38493 12.8274 7.95022C15.018 7.51551 17.2885 7.73862 19.352 8.59133C21.4155 9.44405 23.1791 10.8881 24.42 12.7408C25.6609 14.5935 26.3232 16.7717 26.3232 19C26.3232 21.988 25.1334 24.8536 23.0156 26.9664C20.8978 29.0793 18.0255 30.2663 15.0305 30.2663ZM2 18.9939C1.99879 21.5653 2.76198 24.0793 4.19305 26.218C5.62413 28.3566 7.65878 30.0238 10.0397 31.0087C12.4206 31.9935 15.0408 32.2519 17.5688 31.7509C20.0969 31.25 22.4193 30.0124 24.2423 28.1945C26.0652 26.3767 27.3069 24.0603 27.8101 21.5384C28.3134 19.0165 28.0557 16.4023 27.0697 14.0265C26.0836 11.6507 24.4135 9.62005 22.2705 8.19132C20.1275 6.76259 17.6079 6 15.0305 6C13.3189 5.99973 11.624 6.33594 10.0427 6.98941C8.46136 7.64288 7.0246 8.60081 5.8145 9.80845C4.6044 11.0161 3.64468 12.4498 2.99017 14.0276C2.33566 15.6054 1.9992 17.2965 2 19.0041V18.9939Z" fill="#179D4D"/>
<path fill-rule="evenodd" clip-rule="evenodd" d="M11.9412 18.564H18.5535C18.8502 18.5634 19.1438 18.5032 19.4168 18.387C19.6897 18.2708 19.9364 18.101 20.1422 17.8876L25.9029 11.8898L24.6491 10.6858L18.8884 16.6877C18.8447 16.7323 18.7927 16.7679 18.7352 16.7924C18.6777 16.8168 18.616 16.8297 18.5535 16.8303H11.9412C11.8787 16.8297 11.817 16.8168 11.7595 16.7924C11.702 16.7679 11.65 16.7323 11.6063 16.6877L5.84563 10.6858L4.5918 11.8858L10.3525 17.8876C10.5583 18.101 10.805 18.2708 11.0779 18.387C11.3509 18.5032 11.6445 18.5634 11.9412 18.564Z" fill="#179D4D"/>
<path fill-rule="evenodd" clip-rule="evenodd" d="M13.5723 9.96455V14.3386C13.5723 14.4696 13.6243 14.5952 13.7169 14.688C13.8095 14.7808 13.9352 14.8332 14.0664 14.8337H16.4557V14.1003H14.577V12.3319H16.4557V11.6005H14.577V10.2029H16.4557V9.46338H14.0664C13.9352 9.46392 13.8095 9.51631 13.7169 9.6091C13.6243 9.70188 13.5723 9.8275 13.5723 9.95844V9.96455Z" fill="#179D4D"/>
<path fill-rule="evenodd" clip-rule="evenodd" d="M16.9048 9.46948V10.2029H18.1035V14.8337H19.1082V10.2029H20.3069V9.46948H16.9048Z" fill="#179D4D"/>
<path fill-rule="evenodd" clip-rule="evenodd" d="M11.5038 12.7006C11.5038 13.0938 11.5038 13.4789 11.2996 13.7376C11.2319 13.823 11.1451 13.8914 11.0462 13.9374C10.9473 13.9834 10.839 14.0057 10.7299 14.0025C10.5437 13.9945 10.3596 13.9609 10.1826 13.9026V14.7787C10.376 14.814 10.5721 14.8325 10.7687 14.8337C11.3813 14.8337 11.7897 14.6707 12.0756 14.3814C12.5045 13.923 12.5045 13.265 12.5045 12.5988V9.46338H11.5038V12.7006Z" fill="#179D4D"/>
<path fill-rule="evenodd" clip-rule="evenodd" d="M26.2451 14.3529L20.6825 20.1327C20.5244 20.2978 20.3342 20.4291 20.1235 20.5184C19.9129 20.6077 19.6862 20.6532 19.4573 20.6523H11.0296C10.8007 20.6532 10.5741 20.6077 10.3634 20.5184C10.1527 20.4291 9.96253 20.2978 9.80439 20.1327L3.9518 14.0331C3.68393 14.6254 3.46537 15.2386 3.29834 15.8666L9.33471 22.1415V29.704C9.8936 29.9968 10.4746 30.2454 11.0725 30.4476V22.384H19.4205V30.2968C20.0215 30.0649 20.6026 29.7849 21.1583 29.4595V22.1415L26.8496 16.2171C26.6977 15.5765 26.4928 14.9495 26.237 14.3428L26.2451 14.3529Z" fill="#179D4D"/>
<path fill-rule="evenodd" clip-rule="evenodd" d="M74.209 14.8439H68.7771V18.0669H73.7925V20.4628H68.7771V25.5621H65.4976V12.4379H74.209V14.8439Z" fill="#179D4D"/>
<path fill-rule="evenodd" clip-rule="evenodd" d="M36.3922 19.9229V23.3863H38.9755C41.4627 23.3863 41.571 19.9229 38.9939 19.9229H36.3922ZM36.3922 14.6157V17.7267H38.6732C40.8256 17.7267 41.0666 14.6157 38.469 14.6157H36.3922ZM33.4292 25.5581V12.4379H39.196C44.4033 12.4379 43.9173 17.7247 41.2034 18.4785V18.5151C44.8587 18.9674 44.6912 25.5581 39.4615 25.5581H33.4292Z" fill="#179D4D"/>
<path fill-rule="evenodd" clip-rule="evenodd" d="M48.9985 25.5621H45.7148V12.4379H48.9985V25.5621Z" fill="#179D4D"/>
<path fill-rule="evenodd" clip-rule="evenodd" d="M57.1586 23.2213C55.4432 23.2213 54.3181 21.1209 54.3712 18.8371C54.4242 16.5532 55.5576 14.7767 57.2117 14.7767C58.8658 14.7767 59.9746 16.6673 59.9746 19.0021C59.9746 21.3368 58.8637 23.2213 57.1586 23.2213ZM61.6144 14.0698C60.5171 12.8474 59.0802 12.2362 57.3036 12.2362C55.4235 12.2362 53.913 12.8746 52.7722 14.1513C51.6314 15.428 51.0616 17.0992 51.063 19.1651C51.063 21.1222 51.6246 22.7106 52.7477 23.9303C53.8708 25.15 55.3234 25.7611 57.1055 25.7639C58.9325 25.7639 60.415 25.1343 61.5531 23.8753C62.6912 22.6162 63.261 20.9592 63.2623 18.9043C63.2623 16.9037 62.7137 15.2922 61.6164 14.0698H61.6144Z" fill="#179D4D"/>
<path fill-rule="evenodd" clip-rule="evenodd" d="M79.9462 25.5621H76.6646V12.4379H79.9462V25.5621Z" fill="#179D4D"/>
<path fill-rule="evenodd" clip-rule="evenodd" d="M91.355 25.5621H82.6782V12.4379H85.9598V23.1642H91.355V25.5621Z" fill="#179D4D"/>
<path fill-rule="evenodd" clip-rule="evenodd" d="M90.9715 11.9571H90.6427V11.3235H90.947C91.0612 11.3171 91.1757 11.3294 91.2859 11.3601C91.3443 11.3813 91.3949 11.4196 91.4309 11.4701C91.4654 11.5189 91.4833 11.5775 91.482 11.6372C91.4836 11.6815 91.4748 11.7255 91.4564 11.7658C91.438 11.8062 91.4104 11.8416 91.3758 11.8695C91.2527 11.9418 91.1094 11.9725 90.9674 11.9571H90.9715ZM91.5044 12.281C91.452 12.2333 91.3911 12.196 91.3247 12.171C91.4894 12.1644 91.6455 12.096 91.7617 11.9795C91.8155 11.9263 91.8579 11.8627 91.8864 11.7927C91.9148 11.7226 91.9287 11.6476 91.9272 11.572C91.9266 11.4616 91.8917 11.3541 91.8271 11.2644C91.7641 11.1694 91.6716 11.0978 91.5637 11.0606C91.3887 11.0136 91.2076 10.9937 91.0266 11.0016H90.3037V13.1H90.6427V12.2178H90.8469C90.9434 12.2117 91.0393 12.2367 91.1205 12.2891C91.266 12.4303 91.3856 12.5958 91.4738 12.7781L91.6617 13.1081H92.0701L91.8128 12.7007C91.7244 12.5509 91.6203 12.4109 91.5024 12.283L91.5044 12.281Z" fill="#179D4D"/>
<path fill-rule="evenodd" clip-rule="evenodd" d="M92.5198 12.884C92.378 13.1418 92.1655 13.3538 91.9071 13.4952C91.6558 13.6393 91.371 13.7151 91.0811 13.7151C90.7913 13.7151 90.5065 13.6393 90.2551 13.4952C89.997 13.3535 89.7845 13.1416 89.6425 12.884C89.5002 12.6357 89.4242 12.3551 89.4219 12.0691C89.4235 11.7773 89.5009 11.4909 89.6466 11.2379C89.7884 10.9802 90.0009 10.7682 90.2592 10.6267C90.5085 10.4864 90.7898 10.4126 91.076 10.4126C91.3622 10.4126 91.6436 10.4864 91.8929 10.6267C92.1516 10.7676 92.3642 10.9798 92.5055 11.2379C92.6505 11.4911 92.7272 11.7775 92.7281 12.0691C92.7266 12.3549 92.6513 12.6356 92.5096 12.884H92.5198ZM92.7362 11.0932C92.5722 10.7931 92.3238 10.5473 92.0215 10.3863C91.7338 10.2248 91.4092 10.1399 91.0791 10.1399C90.7489 10.1399 90.4244 10.2248 90.1367 10.3863C89.8342 10.5478 89.5852 10.7933 89.4199 11.0932C89.2514 11.3832 89.1626 11.7125 89.1626 12.0477C89.1626 12.3829 89.2514 12.7122 89.4199 13.0022C89.5838 13.3008 89.8296 13.5468 90.1285 13.7112C90.4189 13.8768 90.7476 13.9639 91.0822 13.9639C91.4167 13.9639 91.7454 13.8768 92.0358 13.7112C92.3351 13.5473 92.581 13.3012 92.7444 13.0022C92.9099 12.713 92.9971 12.3858 92.9976 12.0528C92.9952 11.7158 92.9051 11.3851 92.7362 11.0932Z" fill="#179D4D"/>
</svg>
