<svg width="146" height="29" viewBox="0 0 146 29" fill="none" xmlns="http://www.w3.org/2000/svg">
<path d="M142.52 6.2145V5.31343H142.869C143.245 5.31343 143.4 5.49365 143.4 5.75743C143.4 6.02121 143.217 6.2145 142.855 6.2145H142.52ZM141.673 7.78919H142.52V6.79366H143.022L143.524 7.78919H144.402L143.735 6.56039C143.903 6.48497 144.045 6.36216 144.144 6.20717C144.243 6.05219 144.294 5.87182 144.291 5.68839C144.291 4.98425 143.735 4.68123 143.038 4.68123H141.675L141.673 7.78919ZM142.924 8.69026C141.588 8.69026 140.627 7.72161 140.627 6.25519C140.627 4.78878 141.588 3.82013 142.924 3.82013C144.247 3.82013 145.209 4.7895 145.209 6.25519C145.209 7.72088 144.247 8.69026 142.924 8.69026ZM142.924 9.39368C144.623 9.39368 146.001 8.09512 146.001 6.25519C146.001 4.41527 144.623 3.10291 142.924 3.10291C141.224 3.10291 139.835 4.416 139.835 6.25519C139.835 8.09439 141.225 9.39368 142.924 9.39368ZM137.55 11.767C137.838 11.9915 138.056 12.3483 138.203 12.8381C138.35 13.3279 138.422 14.2289 138.422 15.5406C138.422 17.769 138.345 19.2507 138.19 19.9856C138.088 20.4565 137.886 20.823 137.583 21.085C137.337 21.2834 137.026 21.3866 136.709 21.3757C136.352 21.3757 136.034 21.233 135.754 20.9477C135.474 20.6624 135.291 20.2457 135.206 19.6978C135.094 18.931 135.039 18.1569 135.043 17.3819C135.043 15.8235 135.088 14.6063 135.176 13.7304C135.265 12.8546 135.452 12.2681 135.737 11.9712C135.865 11.8294 136.022 11.7164 136.198 11.6396C136.374 11.5628 136.564 11.524 136.756 11.5257C137.082 11.5257 137.346 11.6066 137.548 11.7684M132.986 12.4341C132.081 13.588 131.629 14.9403 131.628 16.491C131.628 17.9967 132.071 19.3205 132.957 20.4623C133.842 21.6041 135.105 22.1751 136.744 22.1751C138.414 22.1751 139.724 21.5501 140.672 20.3002C141.457 19.2655 141.85 17.9802 141.849 16.4445C141.859 15.4301 141.643 14.426 141.214 13.5052C140.821 12.6427 140.172 11.9198 139.355 11.4327C138.557 10.9526 137.642 10.7011 136.709 10.706C135.132 10.706 133.891 11.2828 132.986 12.4362M124.624 11.0301V11.4574C125.136 11.4894 125.482 11.6107 125.661 11.8207C125.841 12.0308 125.929 12.5213 125.929 13.285V19.607C125.929 20.3715 125.851 20.8423 125.696 21.0196C125.463 21.2822 125.105 21.421 124.624 21.436V21.8531H130.51V21.436C129.989 21.4055 129.639 21.2844 129.46 21.0727C129.282 20.861 129.193 20.3727 129.193 19.6077V11.033L124.624 11.0301ZM126.29 6.31187C126.121 6.47716 125.987 6.67482 125.897 6.89289C125.807 7.11096 125.762 7.34492 125.766 7.58064C125.775 8.04879 125.969 8.49458 126.306 8.82232C126.643 9.15007 127.095 9.33364 127.567 9.33364C128.038 9.33364 128.491 9.15007 128.827 8.82232C129.164 8.49458 129.358 8.04879 129.368 7.58064C129.368 7.34466 129.322 7.11083 129.232 6.89263C129.141 6.67444 129.008 6.47619 128.84 6.30933C128.672 6.14247 128.473 6.0103 128.253 5.92043C128.033 5.83057 127.798 5.78481 127.56 5.78577C127.324 5.78212 127.089 5.82695 126.87 5.91747C126.652 6.00799 126.454 6.14225 126.29 6.31187ZM117.804 12.0257C118.316 12.0257 118.724 12.2492 119.027 12.6964C119.447 13.3136 119.656 14.452 119.656 16.1117C119.656 17.8412 119.561 19.0375 119.371 19.7007C119.181 20.364 118.946 20.8062 118.666 21.0276C118.375 21.2539 118.015 21.3726 117.646 21.3634C117.187 21.3634 116.811 21.2224 116.516 20.9404C116.214 20.6435 116.018 20.2566 115.959 19.8388C115.91 19.5685 115.886 18.9433 115.886 17.9633V13.144C116.5 12.396 117.141 12.022 117.809 12.022M111.364 6.15201V6.58074C111.759 6.59673 112.042 6.65341 112.209 6.76096C112.383 6.87416 112.512 7.04359 112.575 7.24056C112.628 7.38589 112.656 7.77321 112.656 8.39887V22.1642H113.051L114.859 20.9957C115.249 21.3776 115.707 21.6839 116.211 21.8989C116.712 22.0916 117.246 22.1858 117.783 22.1765C118.801 22.1765 119.706 21.9236 120.5 21.4179C121.293 20.9121 121.927 20.1772 122.402 19.2132C122.876 18.2486 123.113 17.1758 123.113 15.9947C123.113 14.9454 122.927 14.0194 122.553 13.2167C122.18 12.414 121.663 11.7948 121.002 11.3593C120.382 10.9354 119.647 10.7074 118.893 10.7053C117.806 10.7053 116.804 11.1757 115.887 12.1165V6.15782L111.364 6.15201ZM104.267 15.2746V14.8699C104.267 13.6738 104.497 12.732 104.956 12.0446C105.212 11.6512 105.542 11.4543 105.946 11.4538C106.182 11.4424 106.414 11.5165 106.599 11.6623C106.886 11.9046 107.097 12.2558 107.234 12.716C107.37 13.1762 107.438 14.0291 107.438 15.2746H104.267ZM108.993 12.0504C108.182 11.1512 107.225 10.7019 106.121 10.7024C104.799 10.7024 103.647 11.2367 102.665 12.3054C101.683 13.3741 101.192 14.8112 101.192 16.6168C101.192 18.0909 101.525 19.3263 102.193 20.3228C103.022 21.5576 104.246 22.1751 105.864 22.1751C106.804 22.1751 107.632 21.926 108.347 21.428C109.062 20.93 109.714 20.0822 110.305 18.8847L109.908 18.6296C109.473 19.3011 109.066 19.7661 108.685 20.0248C108.311 20.2813 107.868 20.4169 107.414 20.4129C106.661 20.4129 106.016 20.0924 105.479 19.4515C104.781 18.6183 104.396 17.4839 104.326 16.0485H110.305C110.242 14.2812 109.805 12.949 108.993 12.0518M98.1599 20.0663C97.826 20.2422 97.4536 20.3338 97.0757 20.3329C96.5281 20.3446 95.9931 20.1689 95.5605 19.8352C94.9938 19.3803 94.547 18.6875 94.2202 17.7569C93.8928 16.817 93.7275 15.8289 93.7315 14.8342C93.7315 13.6071 93.9335 12.6966 94.3373 12.1027C94.6007 11.7088 94.9192 11.5119 95.2928 11.5119C95.4125 11.5125 95.5308 11.5387 95.6394 11.5889C95.748 11.6391 95.8443 11.712 95.9219 11.8026C96.1004 11.9964 96.2131 12.3355 96.2599 12.8199C96.3302 13.5921 96.5145 14.1284 96.813 14.4288C96.9609 14.5779 97.1383 14.695 97.3339 14.7728C97.5296 14.8506 97.7393 14.8873 97.9499 14.8808C98.3845 14.8808 98.7359 14.7497 99.0042 14.4876C99.2726 14.2246 99.4065 13.8743 99.4065 13.4332C99.4065 12.7395 99.0744 12.1097 98.4101 11.5439C97.7458 10.9781 96.8501 10.6966 95.7229 10.6995C94.0456 10.6995 92.7288 11.3748 91.7723 12.7255C90.9798 13.8431 90.5837 15.1392 90.5842 16.6139C90.5842 18.1418 91.019 19.4498 91.8887 20.5379C92.7583 21.6259 93.9198 22.17 95.3732 22.17C96.2374 22.1696 97.084 21.9268 97.8153 21.4695C98.5796 21.0025 99.2185 20.2906 99.7321 19.3338L99.3707 19.0562C98.9049 19.5503 98.5011 19.8858 98.1592 20.0626M83.5331 11.0229V11.4501C84.0452 11.4821 84.391 11.6032 84.5705 11.8135C84.75 12.0237 84.839 12.5118 84.8375 13.2777V19.5997C84.8375 20.3642 84.76 20.8351 84.6049 21.0124C84.3713 21.275 84.014 21.4137 83.5331 21.4288V21.8459H89.4188V21.4288C88.8972 21.3982 88.5482 21.2769 88.369 21.0654C88.1897 20.854 88.1005 20.3649 88.1005 19.6005V11.0258L83.5331 11.0229ZM85.199 6.30461C85.0297 6.4699 84.896 6.66755 84.8058 6.88562C84.7157 7.10369 84.671 7.33765 84.6744 7.57337C84.6839 8.04152 84.8778 8.48731 85.2145 8.81506C85.5512 9.1428 86.0038 9.32638 86.4752 9.32638C86.9466 9.32638 87.3993 9.1428 87.736 8.81506C88.0726 8.48731 88.2665 8.04152 88.276 7.57337C88.2795 7.33765 88.2348 7.10369 88.1446 6.88562C88.0545 6.66755 87.9207 6.4699 87.7515 6.30461C87.584 6.13787 87.3851 6.00557 87.1661 5.91531C86.9471 5.82505 86.7123 5.77859 86.4752 5.77859C86.2381 5.77859 86.0033 5.82505 85.7843 5.91531C85.5653 6.00557 85.3664 6.13787 85.199 6.30461ZM77.3797 22.1736L81.0157 13.6767C81.4512 12.6593 81.7778 12.0458 81.9953 11.836C82.2257 11.6214 82.5203 11.4872 82.8344 11.4538V11.0265H79.2686V11.4538C79.7115 11.4698 80.02 11.5529 80.1941 11.703C80.2788 11.7743 80.3464 11.8635 80.3918 11.9641C80.4373 12.0647 80.4595 12.1741 80.4568 12.2844C80.4568 12.7015 80.2509 13.4114 79.8393 14.4142L78.4054 17.9219L76.6108 13.8591C76.2694 13.0718 76.0986 12.5355 76.0986 12.2502C76.0988 12.1358 76.1239 12.0229 76.1721 11.919C76.2204 11.8152 76.2906 11.7229 76.3781 11.6485C76.5103 11.5168 76.759 11.4509 77.1243 11.4509V11.0236H71.3316V11.4509C71.6813 11.5235 71.9447 11.6565 72.1239 11.8571C72.3726 12.1264 72.7184 12.7669 73.1613 13.7784L76.8317 22.1707L77.3797 22.1736ZM61.3907 11.0265V11.4538C61.763 11.493 62.0242 11.5628 62.1713 11.6623C62.3321 11.7808 62.4506 11.9474 62.5093 12.1376C62.5707 12.3076 62.6029 12.7007 62.6029 13.3177V19.3025C62.6029 20.2443 62.5193 20.8256 62.352 21.0465C62.1847 21.2674 61.8642 21.3968 61.3907 21.4346V21.8517H67.2756V21.4346C66.8406 21.4123 66.5316 21.3525 66.3487 21.2551C66.1628 21.154 66.017 20.993 65.9353 20.7987C65.8812 20.6752 65.8534 20.3925 65.8534 19.9529L65.8424 19.3047V16.8137C65.8325 15.9734 65.9584 15.137 66.2155 14.3365C66.3784 13.852 66.6191 13.4778 66.9376 13.2138C67.1133 13.0545 67.3414 12.9641 67.5792 12.9594C67.6732 12.9576 67.7658 12.9815 67.847 13.0285C68.0331 13.1659 68.2119 13.3128 68.3825 13.4688C68.6783 13.7279 69.0607 13.8681 69.455 13.862C69.63 13.8627 69.8029 13.8246 69.9611 13.7504C70.1194 13.6762 70.2589 13.5678 70.3695 13.4332C70.6207 13.1498 70.7463 12.7489 70.7463 12.2306C70.7463 11.743 70.6161 11.368 70.3564 11.1013C70.0966 10.8347 69.7477 10.7024 69.3131 10.7024C68.8083 10.7024 68.284 10.8853 67.7402 11.251C67.1964 11.6168 66.5623 12.3597 65.838 13.4797V11.0265H61.3907ZM53.9196 15.2746V14.8699C53.9196 13.6738 54.1491 12.732 54.608 12.0446C54.8646 11.6512 55.1948 11.4543 55.5986 11.4538C55.8344 11.4424 56.0663 11.5165 56.2512 11.6623C56.538 11.9046 56.7497 12.2558 56.8862 12.716C57.0228 13.1762 57.0908 14.0291 57.0904 15.2746H53.9196ZM58.6457 12.0504C57.8361 11.1512 56.8787 10.7019 55.7735 10.7024C54.4512 10.7024 53.2992 11.2367 52.3174 12.3054C51.3356 13.3741 50.8455 14.8112 50.8469 16.6168C50.8469 18.0909 51.1808 19.3263 51.8485 20.3228C52.6776 21.5576 53.9013 22.1751 55.5196 22.1751C56.4595 22.1751 57.2869 21.926 58.0019 21.428C58.7169 20.93 59.3698 20.0822 59.9604 18.8847L59.5631 18.6296C59.1286 19.3011 58.7208 19.7661 58.3399 20.0248C57.9659 20.2825 57.5206 20.4186 57.0655 20.4143C56.3129 20.4143 55.6681 20.0939 55.1311 19.453C54.4322 18.6197 54.0476 17.4854 53.9774 16.05H59.9567C59.8938 14.2827 59.4566 12.9505 58.645 12.0533M47.5101 5.79376C47.4092 6.26464 47.3004 6.56161 47.1838 6.68466C47.122 6.74753 47.0475 6.79662 46.9651 6.8287C46.8827 6.86077 46.7944 6.87508 46.7061 6.87068C46.4964 6.87068 46.1306 6.74521 45.6087 6.49427C45.1812 6.28048 44.7341 6.10772 44.2735 5.97833C43.7861 5.85493 43.2849 5.79292 42.7818 5.79376C41.3757 5.79376 40.2105 6.23364 39.2863 7.11339C38.362 7.99314 37.8987 9.05892 37.8962 10.3107C37.8886 11.0142 38.0632 11.7079 38.4032 12.3251C38.7698 12.9684 39.2635 13.5314 39.8547 13.9804C40.4839 14.4745 41.5171 15.0728 42.9545 15.7753C43.9787 16.2762 44.6932 16.6831 45.098 16.9961C45.4617 17.2639 45.7687 17.6002 46.0016 17.9858C46.1944 18.3125 46.2969 18.684 46.2986 19.0627C46.2986 19.6886 46.0403 20.2365 45.5238 20.7065C45.0073 21.1764 44.3138 21.4118 43.4432 21.4128C42.3165 21.4128 41.2657 20.9748 40.2907 20.099C39.3158 19.2231 38.6573 17.9514 38.3154 16.2839H37.8838V22.2078H38.3154C38.4281 21.9261 38.6179 21.6814 38.8634 21.5014C39.0491 21.3607 39.2738 21.28 39.5072 21.2703C39.7476 21.2703 40.0547 21.3474 40.4283 21.5014C40.9669 21.7365 41.5244 21.9266 42.0948 22.0697C42.5579 22.1718 43.031 22.2222 43.5054 22.2201C45.0895 22.2201 46.3966 21.7473 47.4267 20.8016C48.4568 19.856 48.9716 18.7275 48.9711 17.4161C48.9823 16.4157 48.6445 15.4423 48.0149 14.6613C47.3667 13.8586 46.1184 13.0057 44.2699 12.1027C42.9481 11.454 42.1053 11.0028 41.7415 10.7489C41.244 10.3928 40.8826 10.0339 40.6573 9.67199C40.4915 9.39137 40.407 9.07077 40.4129 8.74549C40.4129 8.19831 40.6441 7.71289 41.1065 7.29215C41.5688 6.87141 42.1958 6.66068 42.9881 6.66068C44.0124 6.66068 44.9661 7.0601 45.8494 7.85895C46.7327 8.6578 47.2862 9.71317 47.5101 11.025H47.9878L47.8605 5.79303L47.5101 5.79376Z" fill="#231916"/>
<path d="M1.41052 0.000726669C1.59555 0.000726669 1.77878 0.0369275 1.94974 0.107262C2.12069 0.177597 2.27602 0.280688 2.40687 0.410649C2.53771 0.540611 2.6415 0.694898 2.71231 0.864701C2.78312 1.0345 2.81957 1.2165 2.81957 1.40029C2.81957 1.02891 2.9681 0.672741 3.23248 0.410136C3.49687 0.14753 3.85545 2.95069e-08 4.22935 2.95069e-08C4.60325 2.95069e-08 4.96183 0.14753 5.22622 0.410136C5.4906 0.672741 5.63913 1.02891 5.63913 1.40029C5.64752 1.03453 5.7997 0.686555 6.0631 0.430819C6.32651 0.175083 6.68021 0.0318969 7.04855 0.0318969C7.41689 0.0318969 7.7706 0.175083 8.034 0.430819C8.2974 0.686555 8.44958 1.03453 8.45797 1.40029C8.46636 1.03453 8.61853 0.686555 8.88194 0.430819C9.14534 0.175083 9.49905 0.0318969 9.86739 0.0318969C10.2357 0.0318969 10.5894 0.175083 10.8528 0.430819C11.1162 0.686555 11.2684 1.03453 11.2768 1.40029C11.2852 1.03453 11.4374 0.686555 11.7008 0.430819C11.9642 0.175083 12.3179 0.0318969 12.6862 0.0318969C13.0546 0.0318969 13.4083 0.175083 13.6717 0.430819C13.9351 0.686555 14.0872 1.03453 14.0956 1.40029C14.0956 1.02891 14.2442 0.672741 14.5086 0.410136C14.7729 0.14753 15.1315 5.90137e-08 15.5054 5.90137e-08C15.8793 5.90137e-08 16.2379 0.14753 16.5023 0.410136C16.7667 0.672741 16.9152 1.02891 16.9152 1.40029C16.9236 1.03453 17.0758 0.686555 17.3392 0.430819C17.6026 0.175083 17.9563 0.0318969 18.3246 0.0318969C18.693 0.0318969 19.0467 0.175083 19.3101 0.430819C19.5735 0.686555 19.7256 1.03453 19.734 1.40029C19.7424 1.03453 19.8946 0.686555 20.158 0.430819C20.4214 0.175083 20.7751 0.0318969 21.1435 0.0318969C21.5118 0.0318969 21.8655 0.175083 22.1289 0.430819C22.3923 0.686555 22.5445 1.03453 22.5529 1.40029C22.5613 1.03453 22.7134 0.686555 22.9768 0.430819C23.2402 0.175083 23.594 0.0318969 23.9623 0.0318969C24.3306 0.0318969 24.6843 0.175083 24.9477 0.430819C25.2111 0.686555 25.3633 1.03453 25.3717 1.40029C25.3717 1.02891 25.5202 0.672741 25.7846 0.410136C26.049 0.14753 26.4076 0 26.7815 0C27.1554 0 27.514 0.14753 27.7784 0.410136C28.0427 0.672741 28.1913 1.02891 28.1913 1.40029C28.1914 1.12334 28.2742 0.85265 28.4293 0.622453C28.5843 0.392257 28.8046 0.212892 29.0622 0.10704C29.3199 0.00118782 29.6034 -0.0263965 29.8768 0.027775C30.1503 0.0819465 30.4014 0.215441 30.5984 0.411376C30.7955 0.607312 30.9296 0.856889 30.9839 1.12855C31.0381 1.4002 31.0101 1.68174 30.9032 1.93756C30.7964 2.19337 30.6156 2.41197 30.3837 2.56572C30.1518 2.71947 29.8792 2.80145 29.6003 2.80131C29.4152 2.80121 29.2319 2.7649 29.0609 2.69444C28.8899 2.62398 28.7345 2.52075 28.6037 2.39066C28.4728 2.26056 28.3691 2.10614 28.2983 1.93621C28.2275 1.76629 28.1912 1.58418 28.1913 1.40029C28.1913 1.77167 28.0427 2.12784 27.7784 2.39045C27.514 2.65305 27.1554 2.80058 26.7815 2.80058C26.4076 2.80058 26.049 2.65305 25.7846 2.39045C25.5202 2.12784 25.3717 1.77167 25.3717 1.40029C25.376 1.58682 25.3427 1.77231 25.2738 1.94587C25.2049 2.11944 25.1017 2.27758 24.9704 2.411C24.8391 2.54442 24.6823 2.65044 24.5092 2.72281C24.3361 2.79519 24.1501 2.83248 23.9623 2.83248C23.7745 2.83248 23.5885 2.79519 23.4154 2.72281C23.2423 2.65044 23.0854 2.54442 22.9541 2.411C22.8228 2.27758 22.7197 2.11944 22.6508 1.94587C22.5819 1.77231 22.5486 1.58682 22.5529 1.40029C22.5572 1.58682 22.5239 1.77231 22.455 1.94587C22.386 2.11944 22.2829 2.27758 22.1516 2.411C22.0203 2.54442 21.8635 2.65044 21.6904 2.72281C21.5172 2.79519 21.3313 2.83248 21.1435 2.83248C20.9556 2.83248 20.7697 2.79519 20.5965 2.72281C20.4234 2.65044 20.2666 2.54442 20.1353 2.411C20.004 2.27758 19.9009 2.11944 19.832 1.94587C19.7631 1.77231 19.7298 1.58682 19.734 1.40029C19.7383 1.58682 19.705 1.77231 19.6361 1.94587C19.5672 2.11944 19.4641 2.27758 19.3328 2.411C19.2015 2.54442 19.0447 2.65044 18.8715 2.72281C18.6984 2.79519 18.5125 2.83248 18.3246 2.83248C18.1368 2.83248 17.9508 2.79519 17.7777 2.72281C17.6046 2.65044 17.4478 2.54442 17.3165 2.411C17.1852 2.27758 17.082 2.11944 17.0131 1.94587C16.9442 1.77231 16.9109 1.58682 16.9152 1.40029C16.9152 1.77167 16.7667 2.12784 16.5023 2.39045C16.2379 2.65305 15.8793 2.80058 15.5054 2.80058C15.1315 2.80058 14.7729 2.65305 14.5086 2.39045C14.2442 2.12784 14.0956 1.77167 14.0956 1.40029C14.0999 1.58682 14.0666 1.77231 13.9977 1.94587C13.9288 2.11944 13.8257 2.27758 13.6944 2.411C13.5631 2.54442 13.4063 2.65044 13.2331 2.72281C13.06 2.79519 12.8741 2.83248 12.6862 2.83248C12.4984 2.83248 12.3124 2.79519 12.1393 2.72281C11.9662 2.65044 11.8094 2.54442 11.6781 2.411C11.5468 2.27758 11.4436 2.11944 11.3747 1.94587C11.3058 1.77231 11.2725 1.58682 11.2768 1.40029C11.2811 1.58682 11.2478 1.77231 11.1789 1.94587C11.11 2.11944 11.0068 2.27758 10.8755 2.411C10.7442 2.54442 10.5874 2.65044 10.4143 2.72281C10.2412 2.79519 10.0552 2.83248 9.86739 2.83248C9.67955 2.83248 9.4936 2.79519 9.32048 2.72281C9.14735 2.65044 8.99053 2.54442 8.85923 2.411C8.72793 2.27758 8.6248 2.11944 8.55589 1.94587C8.48698 1.77231 8.45369 1.58682 8.45797 1.40029C8.46225 1.58682 8.42896 1.77231 8.36005 1.94587C8.29114 2.11944 8.18801 2.27758 8.05671 2.411C7.92541 2.54442 7.76859 2.65044 7.59546 2.72281C7.42233 2.79519 7.23639 2.83248 7.04855 2.83248C6.86071 2.83248 6.67477 2.79519 6.50164 2.72281C6.32851 2.65044 6.17169 2.54442 6.04039 2.411C5.90909 2.27758 5.80596 2.11944 5.73705 1.94587C5.66815 1.77231 5.63485 1.58682 5.63913 1.40029C5.63913 1.58418 5.60267 1.76627 5.53182 1.93616C5.46097 2.10605 5.35713 2.26042 5.22622 2.39045C5.09531 2.52047 4.93989 2.62362 4.76885 2.69399C4.59781 2.76436 4.41448 2.80058 4.22935 2.80058C4.04421 2.80058 3.86089 2.76436 3.68985 2.69399C3.51881 2.62362 3.36339 2.52047 3.23248 2.39045C3.10157 2.26042 2.99773 2.10605 2.92688 1.93616C2.85603 1.76627 2.81957 1.58418 2.81957 1.40029C2.81971 1.6773 2.73713 1.94814 2.58228 2.17852C2.42743 2.40891 2.20726 2.5885 1.94962 2.69458C1.69199 2.80065 1.40847 2.82844 1.13493 2.77444C0.861389 2.72043 0.610122 2.58705 0.412917 2.39117C0.215711 2.19529 0.081427 1.94572 0.0270536 1.67402C-0.0273199 1.40232 0.000660158 1.12071 0.107454 0.864813C0.214248 0.608914 0.395057 0.390226 0.627006 0.236415C0.858956 0.0826047 1.13162 0.000582952 1.41052 0.000726669Z" fill="#E60013"/>
<path d="M1.41149 5.63253C1.59653 5.63253 1.77976 5.59633 1.95071 5.526C2.12167 5.45566 2.277 5.35257 2.40784 5.22261C2.53868 5.09265 2.64247 4.93836 2.71329 4.76856C2.7841 4.59876 2.82054 4.41676 2.82054 4.23297C2.82054 4.60435 2.96907 4.96052 3.23346 5.22312C3.49784 5.48573 3.85643 5.63326 4.23033 5.63326C4.60422 5.63326 4.96281 5.48573 5.22719 5.22312C5.49158 4.96052 5.64011 4.60435 5.64011 4.23297C5.6485 4.59873 5.80068 4.9467 6.06408 5.20244C6.32748 5.45818 6.68119 5.60136 7.04953 5.60136C7.41786 5.60136 7.77157 5.45818 8.03498 5.20244C8.29838 4.9467 8.45055 4.59873 8.45894 4.23297C8.46733 4.59873 8.61951 4.9467 8.88291 5.20244C9.14632 5.45818 9.50003 5.60136 9.86836 5.60136C10.2367 5.60136 10.5904 5.45818 10.8538 5.20244C11.1172 4.9467 11.2694 4.59873 11.2778 4.23297C11.2862 4.59873 11.4383 4.9467 11.7017 5.20244C11.9652 5.45818 12.3189 5.60136 12.6872 5.60136C13.0555 5.60136 13.4092 5.45818 13.6726 5.20244C13.936 4.9467 14.0882 4.59873 14.0966 4.23297C14.0966 4.60435 14.2451 4.96052 14.5095 5.22312C14.7739 5.48573 15.1325 5.63326 15.5064 5.63326C15.8803 5.63326 16.2389 5.48573 16.5033 5.22312C16.7677 4.96052 16.9162 4.60435 16.9162 4.23297C16.9246 4.59873 17.0767 4.9467 17.3401 5.20244C17.6036 5.45818 17.9573 5.60136 18.3256 5.60136C18.6939 5.60136 19.0476 5.45818 19.311 5.20244C19.5744 4.9467 19.7266 4.59873 19.735 4.23297C19.7434 4.59873 19.8956 4.9467 20.159 5.20244C20.4224 5.45818 20.7761 5.60136 21.1444 5.60136C21.5128 5.60136 21.8665 5.45818 22.1299 5.20244C22.3933 4.9467 22.5455 4.59873 22.5539 4.23297C22.5622 4.59873 22.7144 4.9467 22.9778 5.20244C23.2412 5.45818 23.5949 5.60136 23.9633 5.60136C24.3316 5.60136 24.6853 5.45818 24.9487 5.20244C25.2121 4.9467 25.3643 4.59873 25.3727 4.23297C25.3727 4.60435 25.5212 4.96052 25.7856 5.22312C26.05 5.48573 26.4086 5.63326 26.7825 5.63326C27.1564 5.63326 27.5149 5.48573 27.7793 5.22312C28.0437 4.96052 28.1922 4.60435 28.1922 4.23297C28.1922 4.50995 28.275 4.78071 28.4299 5.011C28.5848 5.2413 28.8051 5.42077 29.0627 5.52674C29.3203 5.6327 29.6038 5.66039 29.8773 5.6063C30.1508 5.55221 30.402 5.41877 30.5992 5.22287C30.7963 5.02696 30.9305 4.77738 30.9848 4.50571C31.0391 4.23403 31.0111 3.95245 30.9043 3.6966C30.7975 3.44074 30.6167 3.22209 30.3847 3.06832C30.1528 2.91454 29.8802 2.83253 29.6013 2.83268C29.2275 2.83287 28.8691 2.98049 28.6049 3.24307C28.3407 3.50566 28.1922 3.86171 28.1922 4.23297C28.1922 3.86159 28.0437 3.50542 27.7793 3.24281C27.5149 2.98021 27.1564 2.83268 26.7825 2.83268C26.4086 2.83268 26.05 2.98021 25.7856 3.24281C25.5212 3.50542 25.3727 3.86159 25.3727 4.23297C25.377 4.04644 25.3437 3.86095 25.2748 3.68738C25.2059 3.51382 25.1027 3.35568 24.9714 3.22226C24.8401 3.08884 24.6833 2.98282 24.5102 2.91044C24.337 2.83807 24.1511 2.80078 23.9633 2.80078C23.7754 2.80078 23.5895 2.83807 23.4164 2.91044C23.2432 2.98282 23.0864 3.08884 22.9551 3.22226C22.8238 3.35568 22.7207 3.51382 22.6518 3.68738C22.5829 3.86095 22.5496 4.04644 22.5539 4.23297C22.5581 4.04644 22.5248 3.86095 22.4559 3.68738C22.387 3.51382 22.2839 3.35568 22.1526 3.22226C22.0213 3.08884 21.8645 2.98282 21.6913 2.91044C21.5182 2.83807 21.3323 2.80078 21.1444 2.80078C20.9566 2.80078 20.7706 2.83807 20.5975 2.91044C20.4244 2.98282 20.2676 3.08884 20.1363 3.22226C20.005 3.35568 19.9018 3.51382 19.8329 3.68738C19.764 3.86095 19.7307 4.04644 19.735 4.23297C19.7393 4.04644 19.706 3.86095 19.6371 3.68738C19.5682 3.51382 19.4651 3.35568 19.3338 3.22226C19.2025 3.08884 19.0456 2.98282 18.8725 2.91044C18.6994 2.83807 18.5134 2.80078 18.3256 2.80078C18.1378 2.80078 17.9518 2.83807 17.7787 2.91044C17.6056 2.98282 17.4487 3.08884 17.3174 3.22226C17.1861 3.35568 17.083 3.51382 17.0141 3.68738C16.9452 3.86095 16.9119 4.04644 16.9162 4.23297C16.9162 3.86159 16.7677 3.50542 16.5033 3.24281C16.2389 2.98021 15.8803 2.83268 15.5064 2.83268C15.1325 2.83268 14.7739 2.98021 14.5095 3.24281C14.2451 3.50542 14.0966 3.86159 14.0966 4.23297C14.1009 4.04644 14.0676 3.86095 13.9987 3.68738C13.9298 3.51382 13.8267 3.35568 13.6954 3.22226C13.5641 3.08884 13.4072 2.98282 13.2341 2.91044C13.061 2.83807 12.875 2.80078 12.6872 2.80078C12.4994 2.80078 12.3134 2.83807 12.1403 2.91044C11.9672 2.98282 11.8103 3.08884 11.679 3.22226C11.5477 3.35568 11.4446 3.51382 11.3757 3.68738C11.3068 3.86095 11.2735 4.04644 11.2778 4.23297C11.2821 4.04644 11.2488 3.86095 11.1799 3.68738C11.111 3.51382 11.0078 3.35568 10.8765 3.22226C10.7452 3.08884 10.5884 2.98282 10.4153 2.91044C10.2421 2.83807 10.0562 2.80078 9.86836 2.80078C9.68052 2.80078 9.49458 2.83807 9.32145 2.91044C9.14832 2.98282 8.9915 3.08884 8.8602 3.22226C8.7289 3.35568 8.62577 3.51382 8.55686 3.68738C8.48796 3.86095 8.45467 4.04644 8.45894 4.23297C8.46322 4.04644 8.42993 3.86095 8.36102 3.68738C8.29212 3.51382 8.18898 3.35568 8.05768 3.22226C7.92638 3.08884 7.76956 2.98282 7.59644 2.91044C7.42331 2.83807 7.23737 2.80078 7.04953 2.80078C6.86169 2.80078 6.67575 2.83807 6.50262 2.91044C6.32949 2.98282 6.17267 3.08884 6.04137 3.22226C5.91007 3.35568 5.80694 3.51382 5.73803 3.68738C5.66912 3.86095 5.63583 4.04644 5.64011 4.23297C5.64011 3.86159 5.49158 3.50542 5.22719 3.24281C4.96281 2.98021 4.60422 2.83268 4.23033 2.83268C3.85643 2.83268 3.49784 2.98021 3.23346 3.24281C2.96907 3.50542 2.82054 3.86159 2.82054 4.23297C2.82069 3.95596 2.73811 3.68512 2.58326 3.45474C2.4284 3.22435 2.20823 3.04476 1.9506 2.93868C1.69296 2.83261 1.40944 2.80482 1.1359 2.85882C0.862365 2.91283 0.611099 3.04621 0.413893 3.24209C0.216687 3.43797 0.0824036 3.68754 0.0280301 3.95924C-0.0263433 4.23093 0.00163672 4.51255 0.108431 4.76845C0.215224 5.02435 0.396033 5.24303 0.627983 5.39684C0.859933 5.55065 1.1326 5.63268 1.41149 5.63253Z" fill="#E60013"/>
<path d="M1.41052 5.6005C1.78429 5.60069 2.14268 5.74831 2.40691 6.01089C2.67114 6.27348 2.81957 6.62954 2.81957 7.00079C2.81957 6.62941 2.9681 6.27324 3.23248 6.01064C3.49687 5.74803 3.85545 5.6005 4.22935 5.6005C4.60325 5.6005 4.96183 5.74803 5.22622 6.01064C5.4906 6.27324 5.63913 6.62941 5.63913 7.00079C5.63485 6.81427 5.66815 6.62877 5.73705 6.45521C5.80596 6.28164 5.90909 6.1235 6.04039 5.99008C6.17169 5.85666 6.32851 5.75065 6.50164 5.67827C6.67477 5.60589 6.86071 5.5686 7.04855 5.5686C7.23639 5.5686 7.42233 5.60589 7.59546 5.67827C7.76859 5.75065 7.92541 5.85666 8.05671 5.99008C8.18801 6.1235 8.29114 6.28164 8.36005 6.45521C8.42896 6.62877 8.46225 6.81427 8.45797 7.00079C8.45369 6.81427 8.48698 6.62877 8.55589 6.45521C8.6248 6.28164 8.72793 6.1235 8.85923 5.99008C8.99053 5.85666 9.14735 5.75065 9.32048 5.67827C9.4936 5.60589 9.67955 5.5686 9.86739 5.5686C10.0552 5.5686 10.2412 5.60589 10.4143 5.67827C10.5874 5.75065 10.7442 5.85666 10.8755 5.99008C11.0068 6.1235 11.11 6.28164 11.1789 6.45521C11.2478 6.62877 11.2811 6.81427 11.2768 7.00079C11.2725 6.81427 11.3058 6.62877 11.3747 6.45521C11.4436 6.28164 11.5468 6.1235 11.6781 5.99008C11.8094 5.85666 11.9662 5.75065 12.1393 5.67827C12.3124 5.60589 12.4984 5.5686 12.6862 5.5686C12.8741 5.5686 13.06 5.60589 13.2331 5.67827C13.4063 5.75065 13.5631 5.85666 13.6944 5.99008C13.8257 6.1235 13.9288 6.28164 13.9977 6.45521C14.0666 6.62877 14.0999 6.81427 14.0956 7.00079C14.0956 6.8169 14.1321 6.63481 14.203 6.46492C14.2738 6.29503 14.3776 6.14066 14.5086 6.01064C14.6395 5.88061 14.7949 5.77746 14.9659 5.70709C15.137 5.63672 15.3203 5.6005 15.5054 5.6005C15.6906 5.6005 15.8739 5.63672 16.0449 5.70709C16.216 5.77746 16.3714 5.88061 16.5023 6.01064C16.6332 6.14066 16.737 6.29503 16.8079 6.46492C16.8787 6.63481 16.9152 6.8169 16.9152 7.00079C16.9109 6.81427 16.9442 6.62877 17.0131 6.45521C17.082 6.28164 17.1852 6.1235 17.3165 5.99008C17.4478 5.85666 17.6046 5.75065 17.7777 5.67827C17.9508 5.60589 18.1368 5.5686 18.3246 5.5686C18.5125 5.5686 18.6984 5.60589 18.8715 5.67827C19.0447 5.75065 19.2015 5.85666 19.3328 5.99008C19.4641 6.1235 19.5672 6.28164 19.6361 6.45521C19.705 6.62877 19.7383 6.81427 19.734 7.00079C19.7298 6.81427 19.7631 6.62877 19.832 6.45521C19.9009 6.28164 20.004 6.1235 20.1353 5.99008C20.2666 5.85666 20.4234 5.75065 20.5965 5.67827C20.7697 5.60589 20.9556 5.5686 21.1435 5.5686C21.3313 5.5686 21.5172 5.60589 21.6904 5.67827C21.8635 5.75065 22.0203 5.85666 22.1516 5.99008C22.2829 6.1235 22.386 6.28164 22.455 6.45521C22.5239 6.62877 22.5572 6.81427 22.5529 7.00079C22.5486 6.81427 22.5819 6.62877 22.6508 6.45521C22.7197 6.28164 22.8228 6.1235 22.9541 5.99008C23.0854 5.85666 23.2423 5.75065 23.4154 5.67827C23.5885 5.60589 23.7745 5.5686 23.9623 5.5686C24.1501 5.5686 24.3361 5.60589 24.5092 5.67827C24.6823 5.75065 24.8391 5.85666 24.9704 5.99008C25.1017 6.1235 25.2049 6.28164 25.2738 6.45521C25.3427 6.62877 25.376 6.81427 25.3717 7.00079C25.3717 6.62941 25.5202 6.27324 25.7846 6.01064C26.049 5.74803 26.4076 5.6005 26.7815 5.6005C27.1554 5.6005 27.514 5.74803 27.7784 6.01064C28.0427 6.27324 28.1913 6.62941 28.1913 7.00079C28.1913 6.72381 28.274 6.45305 28.4289 6.22276C28.5839 5.99246 28.8041 5.81298 29.0617 5.70702C29.3194 5.60106 29.6029 5.57337 29.8764 5.62746C30.1499 5.68155 30.4011 5.81499 30.5982 6.01089C30.7953 6.2068 30.9295 6.45638 30.9838 6.72805C31.0382 6.99973 31.0101 7.28131 30.9033 7.53716C30.7965 7.79302 30.6157 8.01166 30.3838 8.16544C30.1518 8.31922 29.8792 8.40123 29.6003 8.40108C29.2266 8.4007 28.8683 8.25302 28.6041 7.99048C28.34 7.72793 28.1915 7.37199 28.1913 7.00079C28.1913 7.37217 28.0427 7.72834 27.7784 7.99095C27.514 8.25355 27.1554 8.40108 26.7815 8.40108C26.4076 8.40108 26.049 8.25355 25.7846 7.99095C25.5202 7.72834 25.3717 7.37217 25.3717 7.00079C25.376 7.18732 25.3427 7.37281 25.2738 7.54638C25.2049 7.71994 25.1017 7.87808 24.9704 8.0115C24.8391 8.14492 24.6823 8.25094 24.5092 8.32331C24.3361 8.39569 24.1501 8.43298 23.9623 8.43298C23.7745 8.43298 23.5885 8.39569 23.4154 8.32331C23.2423 8.25094 23.0854 8.14492 22.9541 8.0115C22.8228 7.87808 22.7197 7.71994 22.6508 7.54638C22.5819 7.37281 22.5486 7.18732 22.5529 7.00079C22.5572 7.18732 22.5239 7.37281 22.455 7.54638C22.386 7.71994 22.2829 7.87808 22.1516 8.0115C22.0203 8.14492 21.8635 8.25094 21.6904 8.32331C21.5172 8.39569 21.3313 8.43298 21.1435 8.43298C20.9556 8.43298 20.7697 8.39569 20.5965 8.32331C20.4234 8.25094 20.2666 8.14492 20.1353 8.0115C20.004 7.87808 19.9009 7.71994 19.832 7.54638C19.7631 7.37281 19.7298 7.18732 19.734 7.00079C19.7383 7.18732 19.705 7.37281 19.6361 7.54638C19.5672 7.71994 19.4641 7.87808 19.3328 8.0115C19.2015 8.14492 19.0447 8.25094 18.8715 8.32331C18.6984 8.39569 18.5125 8.43298 18.3246 8.43298C18.1368 8.43298 17.9508 8.39569 17.7777 8.32331C17.6046 8.25094 17.4478 8.14492 17.3165 8.0115C17.1852 7.87808 17.082 7.71994 17.0131 7.54638C16.9442 7.37281 16.9109 7.18732 16.9152 7.00079C16.9152 7.37217 16.7667 7.72834 16.5023 7.99095C16.2379 8.25355 15.8793 8.40108 15.5054 8.40108C15.1315 8.40108 14.7729 8.25355 14.5086 7.99095C14.2442 7.72834 14.0956 7.37217 14.0956 7.00079C14.0999 7.18732 14.0666 7.37281 13.9977 7.54638C13.9288 7.71994 13.8257 7.87808 13.6944 8.0115C13.5631 8.14492 13.4063 8.25094 13.2331 8.32331C13.06 8.39569 12.8741 8.43298 12.6862 8.43298C12.4984 8.43298 12.3124 8.39569 12.1393 8.32331C11.9662 8.25094 11.8094 8.14492 11.6781 8.0115C11.5468 7.87808 11.4436 7.71994 11.3747 7.54638C11.3058 7.37281 11.2725 7.18732 11.2768 7.00079C11.2811 7.18732 11.2478 7.37281 11.1789 7.54638C11.11 7.71994 11.0068 7.87808 10.8755 8.0115C10.7442 8.14492 10.5874 8.25094 10.4143 8.32331C10.2412 8.39569 10.0552 8.43298 9.86739 8.43298C9.67955 8.43298 9.4936 8.39569 9.32048 8.32331C9.14735 8.25094 8.99053 8.14492 8.85923 8.0115C8.72793 7.87808 8.6248 7.71994 8.55589 7.54638C8.48698 7.37281 8.45369 7.18732 8.45797 7.00079C8.46225 7.18732 8.42896 7.37281 8.36005 7.54638C8.29114 7.71994 8.18801 7.87808 8.05671 8.0115C7.92541 8.14492 7.76859 8.25094 7.59546 8.32331C7.42233 8.39569 7.23639 8.43298 7.04855 8.43298C6.86071 8.43298 6.67477 8.39569 6.50164 8.32331C6.32851 8.25094 6.17169 8.14492 6.04039 8.0115C5.90909 7.87808 5.80596 7.71994 5.73705 7.54638C5.66815 7.37281 5.63485 7.18732 5.63913 7.00079C5.63913 7.37217 5.4906 7.72834 5.22622 7.99095C4.96183 8.25355 4.60325 8.40108 4.22935 8.40108C3.85545 8.40108 3.49687 8.25355 3.23248 7.99095C2.9681 7.72834 2.81957 7.37217 2.81957 7.00079C2.81957 7.27777 2.73687 7.54853 2.58192 7.77883C2.42698 8.00912 2.20676 8.1886 1.94912 8.29456C1.69147 8.40052 1.40797 8.42821 1.13448 8.37412C0.860988 8.32003 0.60979 8.1866 0.412658 7.99069C0.215525 7.79478 0.0813142 7.54521 0.0270001 7.27353C-0.0273141 7.00185 0.000708736 6.72028 0.107524 6.46442C0.214339 6.20856 0.395149 5.98992 0.627083 5.83614C0.859016 5.68236 1.13166 5.60036 1.41052 5.6005Z" fill="#E60013"/>
<path d="M1.41052 11.2009C1.78422 11.2009 2.14262 11.0534 2.40687 10.791C2.67111 10.5285 2.81957 10.1725 2.81957 9.80133C2.81957 10.1727 2.9681 10.5289 3.23248 10.7915C3.49687 11.0541 3.85545 11.2016 4.22935 11.2016C4.60325 11.2016 4.96183 11.0541 5.22622 10.7915C5.4906 10.5289 5.63913 10.1727 5.63913 9.80133C5.64752 10.1671 5.7997 10.5151 6.0631 10.7708C6.32651 11.0265 6.68021 11.1697 7.04855 11.1697C7.41689 11.1697 7.7706 11.0265 8.034 10.7708C8.2974 10.5151 8.44958 10.1671 8.45797 9.80133C8.46636 10.1671 8.61853 10.5151 8.88194 10.7708C9.14534 11.0265 9.49905 11.1697 9.86739 11.1697C10.2357 11.1697 10.5894 11.0265 10.8528 10.7708C11.1162 10.5151 11.2684 10.1671 11.2768 9.80133C11.2852 10.1671 11.4374 10.5151 11.7008 10.7708C11.9642 11.0265 12.3179 11.1697 12.6862 11.1697C13.0546 11.1697 13.4083 11.0265 13.6717 10.7708C13.9351 10.5151 14.0872 10.1671 14.0956 9.80133C14.0956 10.1727 14.2442 10.5289 14.5086 10.7915C14.7729 11.0541 15.1315 11.2016 15.5054 11.2016C15.8793 11.2016 16.2379 11.0541 16.5023 10.7915C16.7667 10.5289 16.9152 10.1727 16.9152 9.80133C16.9236 10.1671 17.0758 10.5151 17.3392 10.7708C17.6026 11.0265 17.9563 11.1697 18.3246 11.1697C18.693 11.1697 19.0467 11.0265 19.3101 10.7708C19.5735 10.5151 19.7256 10.1671 19.734 9.80133C19.7424 10.1671 19.8946 10.5151 20.158 10.7708C20.4214 11.0265 20.7751 11.1697 21.1435 11.1697C21.5118 11.1697 21.8655 11.0265 22.1289 10.7708C22.3923 10.5151 22.5445 10.1671 22.5529 9.80133C22.5613 10.1671 22.7134 10.5151 22.9768 10.7708C23.2402 11.0265 23.594 11.1697 23.9623 11.1697C24.3306 11.1697 24.6843 11.0265 24.9477 10.7708C25.2111 10.5151 25.3633 10.1671 25.3717 9.80133C25.3717 10.1727 25.5202 10.5289 25.7846 10.7915C26.049 11.0541 26.4076 11.2016 26.7815 11.2016C27.1554 11.2016 27.514 11.0541 27.7784 10.7915C28.0427 10.5289 28.1913 10.1727 28.1913 9.80133C28.1914 10.0783 28.2742 10.349 28.4293 10.5792C28.5843 10.8094 28.8046 10.9887 29.0622 11.0946C29.3199 11.2004 29.6034 11.228 29.8768 11.1738C30.1503 11.1197 30.4014 10.9862 30.5984 10.7902C30.7955 10.5943 30.9296 10.3447 30.9839 10.0731C31.0381 9.80141 31.0101 9.51988 30.9032 9.26406C30.7964 9.00825 30.6156 8.78965 30.3837 8.6359C30.1518 8.48215 29.8792 8.40017 29.6003 8.40031C29.4152 8.40041 29.2319 8.43672 29.0609 8.50718C28.8899 8.57764 28.7345 8.68086 28.6037 8.81096C28.4728 8.94106 28.3691 9.09548 28.2983 9.2654C28.2275 9.43533 28.1912 9.61744 28.1913 9.80133C28.1913 9.42995 28.0427 9.07378 27.7784 8.81117C27.514 8.54857 27.1554 8.40104 26.7815 8.40104C26.4076 8.40104 26.049 8.54857 25.7846 8.81117C25.5202 9.07378 25.3717 9.42995 25.3717 9.80133C25.376 9.6148 25.3427 9.42931 25.2738 9.25574C25.2049 9.08218 25.1017 8.92404 24.9704 8.79062C24.8391 8.6572 24.6823 8.55118 24.5092 8.4788C24.3361 8.40643 24.1501 8.36914 23.9623 8.36914C23.7745 8.36914 23.5885 8.40643 23.4154 8.4788C23.2423 8.55118 23.0854 8.6572 22.9541 8.79062C22.8228 8.92404 22.7197 9.08218 22.6508 9.25574C22.5819 9.42931 22.5486 9.6148 22.5529 9.80133C22.5572 9.6148 22.5239 9.42931 22.455 9.25574C22.386 9.08218 22.2829 8.92404 22.1516 8.79062C22.0203 8.6572 21.8635 8.55118 21.6904 8.4788C21.5172 8.40643 21.3313 8.36914 21.1435 8.36914C20.9556 8.36914 20.7697 8.40643 20.5965 8.4788C20.4234 8.55118 20.2666 8.6572 20.1353 8.79062C20.004 8.92404 19.9009 9.08218 19.832 9.25574C19.7631 9.42931 19.7298 9.6148 19.734 9.80133C19.7383 9.6148 19.705 9.42931 19.6361 9.25574C19.5672 9.08218 19.4641 8.92404 19.3328 8.79062C19.2015 8.6572 19.0447 8.55118 18.8715 8.4788C18.6984 8.40643 18.5125 8.36914 18.3246 8.36914C18.1368 8.36914 17.9508 8.40643 17.7777 8.4788C17.6046 8.55118 17.4478 8.6572 17.3165 8.79062C17.1852 8.92404 17.082 9.08218 17.0131 9.25574C16.9442 9.42931 16.9109 9.6148 16.9152 9.80133C16.9152 9.42995 16.7667 9.07378 16.5023 8.81117C16.2379 8.54857 15.8793 8.40104 15.5054 8.40104C15.1315 8.40104 14.7729 8.54857 14.5086 8.81117C14.2442 9.07378 14.0956 9.42995 14.0956 9.80133C14.0999 9.6148 14.0666 9.42931 13.9977 9.25574C13.9288 9.08218 13.8257 8.92404 13.6944 8.79062C13.5631 8.6572 13.4063 8.55118 13.2331 8.4788C13.06 8.40643 12.8741 8.36914 12.6862 8.36914C12.4984 8.36914 12.3124 8.40643 12.1393 8.4788C11.9662 8.55118 11.8094 8.6572 11.6781 8.79062C11.5468 8.92404 11.4436 9.08218 11.3747 9.25574C11.3058 9.42931 11.2725 9.6148 11.2768 9.80133C11.2811 9.6148 11.2478 9.42931 11.1789 9.25574C11.11 9.08218 11.0068 8.92404 10.8755 8.79062C10.7442 8.6572 10.5874 8.55118 10.4143 8.4788C10.2412 8.40643 10.0552 8.36914 9.86739 8.36914C9.67955 8.36914 9.4936 8.40643 9.32048 8.4788C9.14735 8.55118 8.99053 8.6572 8.85923 8.79062C8.72793 8.92404 8.6248 9.08218 8.55589 9.25574C8.48698 9.42931 8.45369 9.6148 8.45797 9.80133C8.46225 9.6148 8.42896 9.42931 8.36005 9.25574C8.29114 9.08218 8.18801 8.92404 8.05671 8.79062C7.92541 8.6572 7.76859 8.55118 7.59546 8.4788C7.42233 8.40643 7.23639 8.36914 7.04855 8.36914C6.86071 8.36914 6.67477 8.40643 6.50164 8.4788C6.32851 8.55118 6.17169 8.6572 6.04039 8.79062C5.90909 8.92404 5.80596 9.08218 5.73705 9.25574C5.66815 9.42931 5.63485 9.6148 5.63913 9.80133C5.63913 9.61744 5.60267 9.43535 5.53182 9.26546C5.46097 9.09557 5.35713 8.9412 5.22622 8.81117C5.09531 8.68114 4.93989 8.578 4.76885 8.50763C4.59781 8.43726 4.41448 8.40104 4.22935 8.40104C4.04421 8.40104 3.86089 8.43726 3.68985 8.50763C3.51881 8.578 3.36339 8.68114 3.23248 8.81117C3.10157 8.9412 2.99773 9.09557 2.92688 9.26546C2.85603 9.43535 2.81957 9.61744 2.81957 9.80133C2.81971 9.52431 2.73713 9.25348 2.58228 9.0231C2.42743 8.79271 2.20726 8.61312 1.94962 8.50704C1.69199 8.40097 1.40847 8.37317 1.13493 8.42718C0.861389 8.48119 0.610122 8.61457 0.412917 8.81045C0.215711 9.00632 0.081427 9.2559 0.0270536 9.5276C-0.0273199 9.79929 0.000660158 10.0809 0.107454 10.3368C0.214248 10.5927 0.395057 10.8114 0.627006 10.9652C0.858956 11.119 1.13162 11.201 1.41052 11.2009Z" fill="#E60013"/>
<path d="M1.41052 11.2009C1.59555 11.2009 1.77878 11.2371 1.94974 11.3075C2.12069 11.3778 2.27602 11.4809 2.40687 11.6108C2.53771 11.7408 2.6415 11.8951 2.71231 12.0649C2.78312 12.2347 2.81957 12.4167 2.81957 12.6005C2.81957 12.2291 2.9681 11.8729 3.23248 11.6103C3.49687 11.3477 3.85545 11.2002 4.22935 11.2002C4.60325 11.2002 4.96183 11.3477 5.22622 11.6103C5.4906 11.8729 5.63913 12.2291 5.63913 12.6005C5.64752 12.2347 5.7997 11.8868 6.0631 11.631C6.32651 11.3753 6.68021 11.2321 7.04855 11.2321C7.41689 11.2321 7.7706 11.3753 8.034 11.631C8.2974 11.8868 8.44958 12.2347 8.45797 12.6005C8.46636 12.2347 8.61853 11.8868 8.88194 11.631C9.14534 11.3753 9.49905 11.2321 9.86739 11.2321C10.2357 11.2321 10.5894 11.3753 10.8528 11.631C11.1162 11.8868 11.2684 12.2347 11.2768 12.6005C11.2852 12.2347 11.4374 11.8868 11.7008 11.631C11.9642 11.3753 12.3179 11.2321 12.6862 11.2321C13.0546 11.2321 13.4083 11.3753 13.6717 11.631C13.9351 11.8868 14.0872 12.2347 14.0956 12.6005C14.0956 12.2291 14.2442 11.8729 14.5086 11.6103C14.7729 11.3477 15.1315 11.2002 15.5054 11.2002C15.8793 11.2002 16.2379 11.3477 16.5023 11.6103C16.7667 11.8729 16.9152 12.2291 16.9152 12.6005C16.9236 12.2347 17.0758 11.8868 17.3392 11.631C17.6026 11.3753 17.9563 11.2321 18.3246 11.2321C18.693 11.2321 19.0467 11.3753 19.3101 11.631C19.5735 11.8868 19.7256 12.2347 19.734 12.6005C19.7424 12.2347 19.8946 11.8868 20.158 11.631C20.4214 11.3753 20.7751 11.2321 21.1435 11.2321C21.5118 11.2321 21.8655 11.3753 22.1289 11.631C22.3923 11.8868 22.5445 12.2347 22.5529 12.6005C22.5613 12.2347 22.7134 11.8868 22.9768 11.631C23.2402 11.3753 23.594 11.2321 23.9623 11.2321C24.3306 11.2321 24.6843 11.3753 24.9477 11.631C25.2111 11.8868 25.3633 12.2347 25.3717 12.6005C25.3717 12.2291 25.5202 11.8729 25.7846 11.6103C26.049 11.3477 26.4076 11.2002 26.7815 11.2002C27.1554 11.2002 27.514 11.3477 27.7784 11.6103C28.0427 11.8729 28.1913 12.2291 28.1913 12.6005C28.1914 12.3235 28.2742 12.0528 28.4293 11.8226C28.5843 11.5925 28.8046 11.4131 29.0622 11.3072C29.3199 11.2014 29.6034 11.1738 29.8768 11.228C30.1503 11.2821 30.4014 11.4156 30.5984 11.6116C30.7955 11.8075 30.9296 12.0571 30.9839 12.3287C31.0381 12.6004 31.0101 12.8819 30.9032 13.1378C30.7964 13.3936 30.6156 13.6122 30.3837 13.7659C30.1518 13.9197 29.8792 14.0016 29.6003 14.0015C29.4152 14.0014 29.2319 13.9651 29.0609 13.8946C28.8899 13.8242 28.7345 13.721 28.6037 13.5909C28.4728 13.4608 28.3691 13.3063 28.2983 13.1364C28.2275 12.9665 28.1912 12.7844 28.1913 12.6005C28.1913 12.9719 28.0427 13.328 27.7784 13.5906C27.514 13.8532 27.1554 14.0008 26.7815 14.0008C26.4076 14.0008 26.049 13.8532 25.7846 13.5906C25.5202 13.328 25.3717 12.9719 25.3717 12.6005C25.376 12.787 25.3427 12.9725 25.2738 13.1461C25.2049 13.3196 25.1017 13.4778 24.9704 13.6112C24.8391 13.7446 24.6823 13.8506 24.5092 13.923C24.3361 13.9954 24.1501 14.0327 23.9623 14.0327C23.7745 14.0327 23.5885 13.9954 23.4154 13.923C23.2423 13.8506 23.0854 13.7446 22.9541 13.6112C22.8228 13.4778 22.7197 13.3196 22.6508 13.1461C22.5819 12.9725 22.5486 12.787 22.5529 12.6005C22.5572 12.787 22.5239 12.9725 22.455 13.1461C22.386 13.3196 22.2829 13.4778 22.1516 13.6112C22.0203 13.7446 21.8635 13.8506 21.6904 13.923C21.5172 13.9954 21.3313 14.0327 21.1435 14.0327C20.9556 14.0327 20.7697 13.9954 20.5965 13.923C20.4234 13.8506 20.2666 13.7446 20.1353 13.6112C20.004 13.4778 19.9009 13.3196 19.832 13.1461C19.7631 12.9725 19.7298 12.787 19.734 12.6005C19.7383 12.787 19.705 12.9725 19.6361 13.1461C19.5672 13.3196 19.4641 13.4778 19.3328 13.6112C19.2015 13.7446 19.0447 13.8506 18.8715 13.923C18.6984 13.9954 18.5125 14.0327 18.3246 14.0327C18.1368 14.0327 17.9508 13.9954 17.7777 13.923C17.6046 13.8506 17.4478 13.7446 17.3165 13.6112C17.1852 13.4778 17.082 13.3196 17.0131 13.1461C16.9442 12.9725 16.9109 12.787 16.9152 12.6005C16.9152 12.9719 16.7667 13.328 16.5023 13.5906C16.2379 13.8532 15.8793 14.0008 15.5054 14.0008C15.1315 14.0008 14.7729 13.8532 14.5086 13.5906C14.2442 13.328 14.0956 12.9719 14.0956 12.6005C14.0999 12.787 14.0666 12.9725 13.9977 13.1461C13.9288 13.3196 13.8257 13.4778 13.6944 13.6112C13.5631 13.7446 13.4063 13.8506 13.2331 13.923C13.06 13.9954 12.8741 14.0327 12.6862 14.0327C12.4984 14.0327 12.3124 13.9954 12.1393 13.923C11.9662 13.8506 11.8094 13.7446 11.6781 13.6112C11.5468 13.4778 11.4436 13.3196 11.3747 13.1461C11.3058 12.9725 11.2725 12.787 11.2768 12.6005C11.2811 12.787 11.2478 12.9725 11.1789 13.1461C11.11 13.3196 11.0068 13.4778 10.8755 13.6112C10.7442 13.7446 10.5874 13.8506 10.4143 13.923C10.2412 13.9954 10.0552 14.0327 9.86739 14.0327C9.67955 14.0327 9.4936 13.9954 9.32048 13.923C9.14735 13.8506 8.99053 13.7446 8.85923 13.6112C8.72793 13.4778 8.6248 13.3196 8.55589 13.1461C8.48698 12.9725 8.45369 12.787 8.45797 12.6005C8.46225 12.787 8.42896 12.9725 8.36005 13.1461C8.29114 13.3196 8.18801 13.4778 8.05671 13.6112C7.92541 13.7446 7.76859 13.8506 7.59546 13.923C7.42233 13.9954 7.23639 14.0327 7.04855 14.0327C6.86071 14.0327 6.67477 13.9954 6.50164 13.923C6.32851 13.8506 6.17169 13.7446 6.04039 13.6112C5.90909 13.4778 5.80596 13.3196 5.73705 13.1461C5.66815 12.9725 5.63485 12.787 5.63913 12.6005C5.63913 12.7844 5.60267 12.9665 5.53182 13.1364C5.46097 13.3062 5.35713 13.4606 5.22622 13.5906C5.09531 13.7207 4.93989 13.8238 4.76885 13.8942C4.59781 13.9646 4.41448 14.0008 4.22935 14.0008C4.04421 14.0008 3.86089 13.9646 3.68985 13.8942C3.51881 13.8238 3.36339 13.7207 3.23248 13.5906C3.10157 13.4606 2.99773 13.3062 2.92688 13.1364C2.85603 12.9665 2.81957 12.7844 2.81957 12.6005C2.81971 12.8775 2.73713 13.1483 2.58228 13.3787C2.42743 13.6091 2.20726 13.7887 1.94962 13.8948C1.69199 14.0008 1.40847 14.0286 1.13493 13.9746C0.861389 13.9206 0.610122 13.7872 0.412917 13.5914C0.215711 13.3955 0.081427 13.1459 0.0270536 12.8742C-0.0273199 12.6025 0.000660158 12.3209 0.107454 12.065C0.214248 11.8091 0.395057 11.5904 0.627006 11.4366C0.858956 11.2828 1.13162 11.2008 1.41052 11.2009Z" fill="#E60013"/>
<path d="M1.41052 16.8006C1.59555 16.8006 1.77878 16.7644 1.94974 16.6941C2.12069 16.6238 2.27602 16.5207 2.40687 16.3907C2.53771 16.2607 2.6415 16.1065 2.71231 15.9366C2.78312 15.7668 2.81957 15.5849 2.81957 15.4011C2.81957 15.7724 2.9681 16.1286 3.23248 16.3912C3.49687 16.6538 3.85545 16.8013 4.22935 16.8013C4.60325 16.8013 4.96183 16.6538 5.22622 16.3912C5.4906 16.1286 5.63913 15.7724 5.63913 15.4011C5.64752 15.7668 5.7997 16.1148 6.0631 16.3705C6.32651 16.6263 6.68021 16.7695 7.04855 16.7695C7.41689 16.7695 7.7706 16.6263 8.034 16.3705C8.2974 16.1148 8.44958 15.7668 8.45797 15.4011C8.46636 15.7668 8.61853 16.1148 8.88194 16.3705C9.14534 16.6263 9.49905 16.7695 9.86739 16.7695C10.2357 16.7695 10.5894 16.6263 10.8528 16.3705C11.1162 16.1148 11.2684 15.7668 11.2768 15.4011C11.2852 15.7668 11.4374 16.1148 11.7008 16.3705C11.9642 16.6263 12.3179 16.7695 12.6862 16.7695C13.0546 16.7695 13.4083 16.6263 13.6717 16.3705C13.9351 16.1148 14.0872 15.7668 14.0956 15.4011C14.0956 15.7724 14.2442 16.1286 14.5086 16.3912C14.7729 16.6538 15.1315 16.8013 15.5054 16.8013C15.8793 16.8013 16.2379 16.6538 16.5023 16.3912C16.7667 16.1286 16.9152 15.7724 16.9152 15.4011C16.9236 15.7668 17.0758 16.1148 17.3392 16.3705C17.6026 16.6263 17.9563 16.7695 18.3246 16.7695C18.693 16.7695 19.0467 16.6263 19.3101 16.3705C19.5735 16.1148 19.7256 15.7668 19.734 15.4011C19.7424 15.7668 19.8946 16.1148 20.158 16.3705C20.4214 16.6263 20.7751 16.7695 21.1435 16.7695C21.5118 16.7695 21.8655 16.6263 22.1289 16.3705C22.3923 16.1148 22.5445 15.7668 22.5529 15.4011C22.5613 15.7668 22.7134 16.1148 22.9768 16.3705C23.2402 16.6263 23.594 16.7695 23.9623 16.7695C24.3306 16.7695 24.6843 16.6263 24.9477 16.3705C25.2111 16.1148 25.3633 15.7668 25.3717 15.4011C25.3717 15.7724 25.5202 16.1286 25.7846 16.3912C26.049 16.6538 26.4076 16.8013 26.7815 16.8013C27.1554 16.8013 27.514 16.6538 27.7784 16.3912C28.0427 16.1286 28.1913 15.7724 28.1913 15.4011C28.1913 15.678 28.274 15.9488 28.4289 16.1791C28.5839 16.4094 28.8041 16.5889 29.0617 16.6948C29.3194 16.8008 29.6029 16.8285 29.8764 16.7744C30.1499 16.7203 30.4011 16.5869 30.5982 16.391C30.7953 16.1951 30.9295 15.9455 30.9838 15.6738C31.0382 15.4021 31.0101 15.1205 30.9033 14.8647C30.7965 14.6088 30.6157 14.3902 30.3838 14.2364C30.1518 14.0826 29.8792 14.0006 29.6003 14.0008C29.2266 14.001 28.8682 14.1486 28.6039 14.4112C28.3397 14.6737 28.1913 15.0298 28.1913 15.4011C28.1913 15.0297 28.0427 14.6735 27.7784 14.4109C27.514 14.1483 27.1554 14.0008 26.7815 14.0008C26.4076 14.0008 26.049 14.1483 25.7846 14.4109C25.5202 14.6735 25.3717 15.0297 25.3717 15.4011C25.376 15.2145 25.3427 15.029 25.2738 14.8555C25.2049 14.6819 25.1017 14.5238 24.9704 14.3904C24.8391 14.2569 24.6823 14.1509 24.5092 14.0785C24.3361 14.0062 24.1501 13.9689 23.9623 13.9689C23.7745 13.9689 23.5885 14.0062 23.4154 14.0785C23.2423 14.1509 23.0854 14.2569 22.9541 14.3904C22.8228 14.5238 22.7197 14.6819 22.6508 14.8555C22.5819 15.029 22.5486 15.2145 22.5529 15.4011C22.5572 15.2145 22.5239 15.029 22.455 14.8555C22.386 14.6819 22.2829 14.5238 22.1516 14.3904C22.0203 14.2569 21.8635 14.1509 21.6904 14.0785C21.5172 14.0062 21.3313 13.9689 21.1435 13.9689C20.9556 13.9689 20.7697 14.0062 20.5965 14.0785C20.4234 14.1509 20.2666 14.2569 20.1353 14.3904C20.004 14.5238 19.9009 14.6819 19.832 14.8555C19.7631 15.029 19.7298 15.2145 19.734 15.4011C19.7383 15.2145 19.705 15.029 19.6361 14.8555C19.5672 14.6819 19.4641 14.5238 19.3328 14.3904C19.2015 14.2569 19.0447 14.1509 18.8715 14.0785C18.6984 14.0062 18.5125 13.9689 18.3246 13.9689C18.1368 13.9689 17.9508 14.0062 17.7777 14.0785C17.6046 14.1509 17.4478 14.2569 17.3165 14.3904C17.1852 14.5238 17.082 14.6819 17.0131 14.8555C16.9442 15.029 16.9109 15.2145 16.9152 15.4011C16.9152 15.0297 16.7667 14.6735 16.5023 14.4109C16.2379 14.1483 15.8793 14.0008 15.5054 14.0008C15.1315 14.0008 14.7729 14.1483 14.5086 14.4109C14.2442 14.6735 14.0956 15.0297 14.0956 15.4011C14.0999 15.2145 14.0666 15.029 13.9977 14.8555C13.9288 14.6819 13.8257 14.5238 13.6944 14.3904C13.5631 14.2569 13.4063 14.1509 13.2331 14.0785C13.06 14.0062 12.8741 13.9689 12.6862 13.9689C12.4984 13.9689 12.3124 14.0062 12.1393 14.0785C11.9662 14.1509 11.8094 14.2569 11.6781 14.3904C11.5468 14.5238 11.4436 14.6819 11.3747 14.8555C11.3058 15.029 11.2725 15.2145 11.2768 15.4011C11.2811 15.2145 11.2478 15.029 11.1789 14.8555C11.11 14.6819 11.0068 14.5238 10.8755 14.3904C10.7442 14.2569 10.5874 14.1509 10.4143 14.0785C10.2412 14.0062 10.0552 13.9689 9.86739 13.9689C9.67955 13.9689 9.4936 14.0062 9.32048 14.0785C9.14735 14.1509 8.99053 14.2569 8.85923 14.3904C8.72793 14.5238 8.6248 14.6819 8.55589 14.8555C8.48698 15.029 8.45369 15.2145 8.45797 15.4011C8.46225 15.2145 8.42896 15.029 8.36005 14.8555C8.29114 14.6819 8.18801 14.5238 8.05671 14.3904C7.92541 14.2569 7.76859 14.1509 7.59546 14.0785C7.42233 14.0062 7.23639 13.9689 7.04855 13.9689C6.86071 13.9689 6.67477 14.0062 6.50164 14.0785C6.32851 14.1509 6.17169 14.2569 6.04039 14.3904C5.90909 14.5238 5.80596 14.6819 5.73705 14.8555C5.66815 15.029 5.63485 15.2145 5.63913 15.4011C5.63913 15.0297 5.4906 14.6735 5.22622 14.4109C4.96183 14.1483 4.60325 14.0008 4.22935 14.0008C3.85545 14.0008 3.49687 14.1483 3.23248 14.4109C2.9681 14.6735 2.81957 15.0297 2.81957 15.4011C2.81971 15.124 2.73713 14.8532 2.58228 14.6228C2.42743 14.3924 2.20726 14.2128 1.94962 14.1068C1.69199 14.0007 1.40847 13.9729 1.13493 14.0269C0.861389 14.0809 0.610122 14.2143 0.412917 14.4102C0.215711 14.6061 0.081427 14.8556 0.0270536 15.1273C-0.0273199 15.399 0.000660158 15.6806 0.107454 15.9365C0.214248 16.1924 0.395057 16.4111 0.627006 16.5649C0.858956 16.7187 1.13162 16.8008 1.41052 16.8006Z" fill="#E60013"/>
<path d="M1.41052 16.8007C1.59555 16.8007 1.77878 16.8369 1.94974 16.9072C2.12069 16.9775 2.27602 17.0806 2.40687 17.2106C2.53771 17.3405 2.6415 17.4948 2.71231 17.6646C2.78312 17.8344 2.81957 18.0164 2.81957 18.2002C2.81957 17.8288 2.9681 17.4727 3.23248 17.2101C3.49687 16.9475 3.85545 16.7999 4.22935 16.7999C4.60325 16.7999 4.96183 16.9475 5.22622 17.2101C5.4906 17.4727 5.63913 17.8288 5.63913 18.2002C5.64752 17.8345 5.7997 17.4865 6.0631 17.2307C6.32651 16.975 6.68021 16.8318 7.04855 16.8318C7.41689 16.8318 7.7706 16.975 8.034 17.2307C8.2974 17.4865 8.44958 17.8345 8.45797 18.2002C8.46636 17.8345 8.61853 17.4865 8.88194 17.2307C9.14534 16.975 9.49905 16.8318 9.86739 16.8318C10.2357 16.8318 10.5894 16.975 10.8528 17.2307C11.1162 17.4865 11.2684 17.8345 11.2768 18.2002C11.2852 17.8345 11.4374 17.4865 11.7008 17.2307C11.9642 16.975 12.3179 16.8318 12.6862 16.8318C13.0546 16.8318 13.4083 16.975 13.6717 17.2307C13.9351 17.4865 14.0872 17.8345 14.0956 18.2002C14.0956 17.8288 14.2442 17.4727 14.5086 17.2101C14.7729 16.9475 15.1315 16.7999 15.5054 16.7999C15.8793 16.7999 16.2379 16.9475 16.5023 17.2101C16.7667 17.4727 16.9152 17.8288 16.9152 18.2002C16.9236 17.8345 17.0758 17.4865 17.3392 17.2307C17.6026 16.975 17.9563 16.8318 18.3246 16.8318C18.693 16.8318 19.0467 16.975 19.3101 17.2307C19.5735 17.4865 19.7256 17.8345 19.734 18.2002C19.7424 17.8345 19.8946 17.4865 20.158 17.2307C20.4214 16.975 20.7751 16.8318 21.1435 16.8318C21.5118 16.8318 21.8655 16.975 22.1289 17.2307C22.3923 17.4865 22.5445 17.8345 22.5529 18.2002C22.5613 17.8345 22.7134 17.4865 22.9768 17.2307C23.2402 16.975 23.594 16.8318 23.9623 16.8318C24.3306 16.8318 24.6843 16.975 24.9477 17.2307C25.2111 17.4865 25.3633 17.8345 25.3717 18.2002C25.3717 17.8288 25.5202 17.4727 25.7846 17.2101C26.049 16.9475 26.4076 16.7999 26.7815 16.7999C27.1554 16.7999 27.514 16.9475 27.7784 17.2101C28.0427 17.4727 28.1913 17.8288 28.1913 18.2002C28.1914 17.9233 28.2742 17.6526 28.4293 17.4224C28.5843 17.1922 28.8046 17.0128 29.0622 16.907C29.3199 16.8011 29.6034 16.7735 29.8768 16.8277C30.1503 16.8819 30.4014 17.0154 30.5984 17.2113C30.7955 17.4072 30.9296 17.6568 30.9839 17.9285C31.0381 18.2001 31.0101 18.4817 30.9032 18.7375C30.7964 18.9933 30.6156 19.2119 30.3837 19.3656C30.1518 19.5194 29.8792 19.6014 29.6003 19.6012C29.4152 19.6011 29.2319 19.5648 29.0609 19.4944C28.8899 19.4239 28.7345 19.3207 28.6037 19.1906C28.4728 19.0605 28.3691 18.9061 28.2983 18.7361C28.2275 18.5662 28.1912 18.3841 28.1913 18.2002C28.1913 18.5716 28.0427 18.9278 27.7784 19.1904C27.514 19.453 27.1554 19.6005 26.7815 19.6005C26.4076 19.6005 26.049 19.453 25.7846 19.1904C25.5202 18.9278 25.3717 18.5716 25.3717 18.2002C25.376 18.3867 25.3427 18.5722 25.2738 18.7458C25.2049 18.9194 25.1017 19.0775 24.9704 19.2109C24.8391 19.3443 24.6823 19.4504 24.5092 19.5227C24.3361 19.5951 24.1501 19.6324 23.9623 19.6324C23.7745 19.6324 23.5885 19.5951 23.4154 19.5227C23.2423 19.4504 23.0854 19.3443 22.9541 19.2109C22.8228 19.0775 22.7197 18.9194 22.6508 18.7458C22.5819 18.5722 22.5486 18.3867 22.5529 18.2002C22.5572 18.3867 22.5239 18.5722 22.455 18.7458C22.386 18.9194 22.2829 19.0775 22.1516 19.2109C22.0203 19.3443 21.8635 19.4504 21.6904 19.5227C21.5172 19.5951 21.3313 19.6324 21.1435 19.6324C20.9556 19.6324 20.7697 19.5951 20.5965 19.5227C20.4234 19.4504 20.2666 19.3443 20.1353 19.2109C20.004 19.0775 19.9009 18.9194 19.832 18.7458C19.7631 18.5722 19.7298 18.3867 19.734 18.2002C19.7383 18.3867 19.705 18.5722 19.6361 18.7458C19.5672 18.9194 19.4641 19.0775 19.3328 19.2109C19.2015 19.3443 19.0447 19.4504 18.8715 19.5227C18.6984 19.5951 18.5125 19.6324 18.3246 19.6324C18.1368 19.6324 17.9508 19.5951 17.7777 19.5227C17.6046 19.4504 17.4478 19.3443 17.3165 19.2109C17.1852 19.0775 17.082 18.9194 17.0131 18.7458C16.9442 18.5722 16.9109 18.3867 16.9152 18.2002C16.9152 18.5716 16.7667 18.9278 16.5023 19.1904C16.2379 19.453 15.8793 19.6005 15.5054 19.6005C15.1315 19.6005 14.7729 19.453 14.5086 19.1904C14.2442 18.9278 14.0956 18.5716 14.0956 18.2002C14.0999 18.3867 14.0666 18.5722 13.9977 18.7458C13.9288 18.9194 13.8257 19.0775 13.6944 19.2109C13.5631 19.3443 13.4063 19.4504 13.2331 19.5227C13.06 19.5951 12.8741 19.6324 12.6862 19.6324C12.4984 19.6324 12.3124 19.5951 12.1393 19.5227C11.9662 19.4504 11.8094 19.3443 11.6781 19.2109C11.5468 19.0775 11.4436 18.9194 11.3747 18.7458C11.3058 18.5722 11.2725 18.3867 11.2768 18.2002C11.2811 18.3867 11.2478 18.5722 11.1789 18.7458C11.11 18.9194 11.0068 19.0775 10.8755 19.2109C10.7442 19.3443 10.5874 19.4504 10.4143 19.5227C10.2412 19.5951 10.0552 19.6324 9.86739 19.6324C9.67955 19.6324 9.4936 19.5951 9.32048 19.5227C9.14735 19.4504 8.99053 19.3443 8.85923 19.2109C8.72793 19.0775 8.6248 18.9194 8.55589 18.7458C8.48698 18.5722 8.45369 18.3867 8.45797 18.2002C8.46225 18.3867 8.42896 18.5722 8.36005 18.7458C8.29114 18.9194 8.18801 19.0775 8.05671 19.2109C7.92541 19.3443 7.76859 19.4504 7.59546 19.5227C7.42233 19.5951 7.23639 19.6324 7.04855 19.6324C6.86071 19.6324 6.67477 19.5951 6.50164 19.5227C6.32851 19.4504 6.17169 19.3443 6.04039 19.2109C5.90909 19.0775 5.80596 18.9194 5.73705 18.7458C5.66815 18.5722 5.63485 18.3867 5.63913 18.2002C5.63913 18.3841 5.60267 18.5662 5.53182 18.7361C5.46097 18.906 5.35713 19.0603 5.22622 19.1904C5.09531 19.3204 4.93989 19.4235 4.76885 19.4939C4.59781 19.5643 4.41448 19.6005 4.22935 19.6005C4.04421 19.6005 3.86089 19.5643 3.68985 19.4939C3.51881 19.4235 3.36339 19.3204 3.23248 19.1904C3.10157 19.0603 2.99773 18.906 2.92688 18.7361C2.85603 18.5662 2.81957 18.3841 2.81957 18.2002C2.81971 18.4772 2.73713 18.7481 2.58228 18.9785C2.42743 19.2088 2.20726 19.3884 1.94962 19.4945C1.69199 19.6006 1.40847 19.6284 1.13493 19.5744C0.861389 19.5204 0.610122 19.387 0.412917 19.1911C0.215711 18.9952 0.081427 18.7456 0.0270536 18.4739C-0.0273199 18.2023 0.000660158 17.9206 0.107454 17.6647C0.214248 17.4088 0.395057 17.1902 0.627006 17.0363C0.858956 16.8825 1.13162 16.8005 1.41052 16.8007Z" fill="#E60013"/>
<path d="M1.41052 22.4011C1.78422 22.4011 2.14262 22.2536 2.40687 21.9912C2.67111 21.7287 2.81957 21.3727 2.81957 21.0015C2.81957 21.3729 2.9681 21.7291 3.23248 21.9917C3.49687 22.2543 3.85545 22.4018 4.22935 22.4018C4.60325 22.4018 4.96183 22.2543 5.22622 21.9917C5.4906 21.7291 5.63913 21.3729 5.63913 21.0015C5.64752 21.3673 5.7997 21.7153 6.0631 21.971C6.32651 22.2267 6.68021 22.3699 7.04855 22.3699C7.41689 22.3699 7.7706 22.2267 8.034 21.971C8.2974 21.7153 8.44958 21.3673 8.45797 21.0015C8.46636 21.3673 8.61853 21.7153 8.88194 21.971C9.14534 22.2267 9.49905 22.3699 9.86739 22.3699C10.2357 22.3699 10.5894 22.2267 10.8528 21.971C11.1162 21.7153 11.2684 21.3673 11.2768 21.0015C11.2852 21.3673 11.4374 21.7153 11.7008 21.971C11.9642 22.2267 12.3179 22.3699 12.6862 22.3699C13.0546 22.3699 13.4083 22.2267 13.6717 21.971C13.9351 21.7153 14.0872 21.3673 14.0956 21.0015C14.0956 21.3729 14.2442 21.7291 14.5086 21.9917C14.7729 22.2543 15.1315 22.4018 15.5054 22.4018C15.8793 22.4018 16.2379 22.2543 16.5023 21.9917C16.7667 21.7291 16.9152 21.3729 16.9152 21.0015C16.9236 21.3673 17.0758 21.7153 17.3392 21.971C17.6026 22.2267 17.9563 22.3699 18.3246 22.3699C18.693 22.3699 19.0467 22.2267 19.3101 21.971C19.5735 21.7153 19.7256 21.3673 19.734 21.0015C19.7424 21.3673 19.8946 21.7153 20.158 21.971C20.4214 22.2267 20.7751 22.3699 21.1435 22.3699C21.5118 22.3699 21.8655 22.2267 22.1289 21.971C22.3923 21.7153 22.5445 21.3673 22.5529 21.0015C22.5613 21.3673 22.7134 21.7153 22.9768 21.971C23.2402 22.2267 23.594 22.3699 23.9623 22.3699C24.3306 22.3699 24.6843 22.2267 24.9477 21.971C25.2111 21.7153 25.3633 21.3673 25.3717 21.0015C25.3717 21.3729 25.5202 21.7291 25.7846 21.9917C26.049 22.2543 26.4076 22.4018 26.7815 22.4018C27.1554 22.4018 27.514 22.2543 27.7784 21.9917C28.0427 21.7291 28.1913 21.3729 28.1913 21.0015C28.1914 21.2785 28.2742 21.5492 28.4293 21.7794C28.5843 22.0096 28.8046 22.1889 29.0622 22.2948C29.3199 22.4006 29.6034 22.4282 29.8768 22.374C30.1503 22.3199 30.4014 22.1864 30.5984 21.9904C30.7955 21.7945 30.9296 21.5449 30.9839 21.2733C31.0381 21.0016 31.0101 20.7201 30.9032 20.4643C30.7964 20.2084 30.6156 19.9898 30.3837 19.8361C30.1518 19.6823 29.8792 19.6004 29.6003 19.6005C29.4152 19.6006 29.2319 19.6369 29.0609 19.7074C28.8899 19.7778 28.7345 19.8811 28.6037 20.0112C28.4728 20.1413 28.3691 20.2957 28.2983 20.4656C28.2275 20.6355 28.1912 20.8176 28.1913 21.0015C28.1913 20.6301 28.0427 20.274 27.7784 20.0114C27.514 19.7488 27.1554 19.6012 26.7815 19.6012C26.4076 19.6012 26.049 19.7488 25.7846 20.0114C25.5202 20.274 25.3717 20.6301 25.3717 21.0015C25.376 20.815 25.3427 20.6295 25.2738 20.4559C25.2049 20.2824 25.1017 20.1242 24.9704 19.9908C24.8391 19.8574 24.6823 19.7514 24.5092 19.679C24.3361 19.6066 24.1501 19.5693 23.9623 19.5693C23.7745 19.5693 23.5885 19.6066 23.4154 19.679C23.2423 19.7514 23.0854 19.8574 22.9541 19.9908C22.8228 20.1242 22.7197 20.2824 22.6508 20.4559C22.5819 20.6295 22.5486 20.815 22.5529 21.0015C22.5572 20.815 22.5239 20.6295 22.455 20.4559C22.386 20.2824 22.2829 20.1242 22.1516 19.9908C22.0203 19.8574 21.8635 19.7514 21.6904 19.679C21.5172 19.6066 21.3313 19.5693 21.1435 19.5693C20.9556 19.5693 20.7697 19.6066 20.5965 19.679C20.4234 19.7514 20.2666 19.8574 20.1353 19.9908C20.004 20.1242 19.9009 20.2824 19.832 20.4559C19.7631 20.6295 19.7298 20.815 19.734 21.0015C19.7383 20.815 19.705 20.6295 19.6361 20.4559C19.5672 20.2824 19.4641 20.1242 19.3328 19.9908C19.2015 19.8574 19.0447 19.7514 18.8715 19.679C18.6984 19.6066 18.5125 19.5693 18.3246 19.5693C18.1368 19.5693 17.9508 19.6066 17.7777 19.679C17.6046 19.7514 17.4478 19.8574 17.3165 19.9908C17.1852 20.1242 17.082 20.2824 17.0131 20.4559C16.9442 20.6295 16.9109 20.815 16.9152 21.0015C16.9152 20.6301 16.7667 20.274 16.5023 20.0114C16.2379 19.7488 15.8793 19.6012 15.5054 19.6012C15.1315 19.6012 14.7729 19.7488 14.5086 20.0114C14.2442 20.274 14.0956 20.6301 14.0956 21.0015C14.0999 20.815 14.0666 20.6295 13.9977 20.4559C13.9288 20.2824 13.8257 20.1242 13.6944 19.9908C13.5631 19.8574 13.4063 19.7514 13.2331 19.679C13.06 19.6066 12.8741 19.5693 12.6862 19.5693C12.4984 19.5693 12.3124 19.6066 12.1393 19.679C11.9662 19.7514 11.8094 19.8574 11.6781 19.9908C11.5468 20.1242 11.4436 20.2824 11.3747 20.4559C11.3058 20.6295 11.2725 20.815 11.2768 21.0015C11.2811 20.815 11.2478 20.6295 11.1789 20.4559C11.11 20.2824 11.0068 20.1242 10.8755 19.9908C10.7442 19.8574 10.5874 19.7514 10.4143 19.679C10.2412 19.6066 10.0552 19.5693 9.86739 19.5693C9.67955 19.5693 9.4936 19.6066 9.32048 19.679C9.14735 19.7514 8.99053 19.8574 8.85923 19.9908C8.72793 20.1242 8.6248 20.2824 8.55589 20.4559C8.48698 20.6295 8.45369 20.815 8.45797 21.0015C8.46225 20.815 8.42896 20.6295 8.36005 20.4559C8.29114 20.2824 8.18801 20.1242 8.05671 19.9908C7.92541 19.8574 7.76859 19.7514 7.59546 19.679C7.42233 19.6066 7.23639 19.5693 7.04855 19.5693C6.86071 19.5693 6.67477 19.6066 6.50164 19.679C6.32851 19.7514 6.17169 19.8574 6.04039 19.9908C5.90909 20.1242 5.80596 20.2824 5.73705 20.4559C5.66815 20.6295 5.63485 20.815 5.63913 21.0015C5.63913 20.8176 5.60267 20.6355 5.53182 20.4657C5.46097 20.2958 5.35713 20.1414 5.22622 20.0114C5.09531 19.8813 4.93989 19.7782 4.76885 19.7078C4.59781 19.6375 4.41448 19.6012 4.22935 19.6012C4.04421 19.6012 3.86089 19.6375 3.68985 19.7078C3.51881 19.7782 3.36339 19.8813 3.23248 20.0114C3.10157 20.1414 2.99773 20.2958 2.92688 20.4657C2.85603 20.6355 2.81957 20.8176 2.81957 21.0015C2.81971 20.7245 2.73713 20.4537 2.58228 20.2233C2.42743 19.9929 2.20726 19.8133 1.94962 19.7072C1.69199 19.6012 1.40847 19.5734 1.13493 19.6274C0.861389 19.6814 0.610122 19.8148 0.412917 20.0106C0.215711 20.2065 0.081427 20.4561 0.0270536 20.7278C-0.0273199 20.9995 0.000660158 21.2811 0.107454 21.537C0.214248 21.7929 0.395057 22.0116 0.627006 22.1654C0.858956 22.3192 1.13162 22.4012 1.41052 22.4011Z" fill="#E60013"/>
<path d="M1.41052 22.4011C1.59555 22.4011 1.77878 22.4373 1.94974 22.5077C2.12069 22.578 2.27602 22.6811 2.40687 22.811C2.53771 22.941 2.6415 23.0953 2.71231 23.2651C2.78312 23.4349 2.81957 23.6169 2.81957 23.8007C2.81957 23.4293 2.9681 23.0731 3.23248 22.8105C3.49687 22.5479 3.85545 22.4004 4.22935 22.4004C4.60325 22.4004 4.96183 22.5479 5.22622 22.8105C5.4906 23.0731 5.63913 23.4293 5.63913 23.8007C5.64752 23.4349 5.7997 23.0869 6.0631 22.8312C6.32651 22.5755 6.68021 22.4323 7.04855 22.4323C7.41689 22.4323 7.7706 22.5755 8.034 22.8312C8.2974 23.0869 8.44958 23.4349 8.45797 23.8007C8.46636 23.4349 8.61853 23.0869 8.88194 22.8312C9.14534 22.5755 9.49905 22.4323 9.86739 22.4323C10.2357 22.4323 10.5894 22.5755 10.8528 22.8312C11.1162 23.0869 11.2684 23.4349 11.2768 23.8007C11.2852 23.4349 11.4374 23.0869 11.7008 22.8312C11.9642 22.5755 12.3179 22.4323 12.6862 22.4323C13.0546 22.4323 13.4083 22.5755 13.6717 22.8312C13.9351 23.0869 14.0872 23.4349 14.0956 23.8007C14.0956 23.4293 14.2442 23.0731 14.5086 22.8105C14.7729 22.5479 15.1315 22.4004 15.5054 22.4004C15.8793 22.4004 16.2379 22.5479 16.5023 22.8105C16.7667 23.0731 16.9152 23.4293 16.9152 23.8007C16.9236 23.4349 17.0758 23.0869 17.3392 22.8312C17.6026 22.5755 17.9563 22.4323 18.3246 22.4323C18.693 22.4323 19.0467 22.5755 19.3101 22.8312C19.5735 23.0869 19.7256 23.4349 19.734 23.8007C19.7424 23.4349 19.8946 23.0869 20.158 22.8312C20.4214 22.5755 20.7751 22.4323 21.1435 22.4323C21.5118 22.4323 21.8655 22.5755 22.1289 22.8312C22.3923 23.0869 22.5445 23.4349 22.5529 23.8007C22.5613 23.4349 22.7134 23.0869 22.9768 22.8312C23.2402 22.5755 23.594 22.4323 23.9623 22.4323C24.3306 22.4323 24.6843 22.5755 24.9477 22.8312C25.2111 23.0869 25.3633 23.4349 25.3717 23.8007C25.3717 23.4293 25.5202 23.0731 25.7846 22.8105C26.049 22.5479 26.4076 22.4004 26.7815 22.4004C27.1554 22.4004 27.514 22.5479 27.7784 22.8105C28.0427 23.0731 28.1913 23.4293 28.1913 23.8007C28.1914 23.5237 28.2742 23.253 28.4293 23.0228C28.5843 22.7926 28.8046 22.6133 29.0622 22.5074C29.3199 22.4016 29.6034 22.374 29.8768 22.4282C30.1503 22.4823 30.4014 22.6158 30.5984 22.8118C30.7955 23.0077 30.9296 23.2573 30.9839 23.5289C31.0381 23.8006 31.0101 24.0821 30.9032 24.3379C30.7964 24.5938 30.6156 24.8124 30.3837 24.9661C30.1518 25.1199 29.8792 25.2018 29.6003 25.2017C29.4152 25.2016 29.2319 25.1653 29.0609 25.0948C28.8899 25.0244 28.7345 24.9211 28.6037 24.791C28.4728 24.661 28.3691 24.5065 28.2983 24.3366C28.2275 24.1667 28.1912 23.9846 28.1913 23.8007C28.1913 24.1721 28.0427 24.5282 27.7784 24.7908C27.514 25.0534 27.1554 25.201 26.7815 25.201C26.4076 25.201 26.049 25.0534 25.7846 24.7908C25.5202 24.5282 25.3717 24.1721 25.3717 23.8007C25.376 23.9872 25.3427 24.1727 25.2738 24.3463C25.2049 24.5198 25.1017 24.678 24.9704 24.8114C24.8391 24.9448 24.6823 25.0508 24.5092 25.1232C24.3361 25.1956 24.1501 25.2329 23.9623 25.2329C23.7745 25.2329 23.5885 25.1956 23.4154 25.1232C23.2423 25.0508 23.0854 24.9448 22.9541 24.8114C22.8228 24.678 22.7197 24.5198 22.6508 24.3463C22.5819 24.1727 22.5486 23.9872 22.5529 23.8007C22.5572 23.9872 22.5239 24.1727 22.455 24.3463C22.386 24.5198 22.2829 24.678 22.1516 24.8114C22.0203 24.9448 21.8635 25.0508 21.6904 25.1232C21.5172 25.1956 21.3313 25.2329 21.1435 25.2329C20.9556 25.2329 20.7697 25.1956 20.5965 25.1232C20.4234 25.0508 20.2666 24.9448 20.1353 24.8114C20.004 24.678 19.9009 24.5198 19.832 24.3463C19.7631 24.1727 19.7298 23.9872 19.734 23.8007C19.7383 23.9872 19.705 24.1727 19.6361 24.3463C19.5672 24.5198 19.4641 24.678 19.3328 24.8114C19.2015 24.9448 19.0447 25.0508 18.8715 25.1232C18.6984 25.1956 18.5125 25.2329 18.3246 25.2329C18.1368 25.2329 17.9508 25.1956 17.7777 25.1232C17.6046 25.0508 17.4478 24.9448 17.3165 24.8114C17.1852 24.678 17.082 24.5198 17.0131 24.3463C16.9442 24.1727 16.9109 23.9872 16.9152 23.8007C16.9152 24.1721 16.7667 24.5282 16.5023 24.7908C16.2379 25.0534 15.8793 25.201 15.5054 25.201C15.1315 25.201 14.7729 25.0534 14.5086 24.7908C14.2442 24.5282 14.0956 24.1721 14.0956 23.8007C14.0999 23.9872 14.0666 24.1727 13.9977 24.3463C13.9288 24.5198 13.8257 24.678 13.6944 24.8114C13.5631 24.9448 13.4063 25.0508 13.2331 25.1232C13.06 25.1956 12.8741 25.2329 12.6862 25.2329C12.4984 25.2329 12.3124 25.1956 12.1393 25.1232C11.9662 25.0508 11.8094 24.9448 11.6781 24.8114C11.5468 24.678 11.4436 24.5198 11.3747 24.3463C11.3058 24.1727 11.2725 23.9872 11.2768 23.8007C11.2811 23.9872 11.2478 24.1727 11.1789 24.3463C11.11 24.5198 11.0068 24.678 10.8755 24.8114C10.7442 24.9448 10.5874 25.0508 10.4143 25.1232C10.2412 25.1956 10.0552 25.2329 9.86739 25.2329C9.67955 25.2329 9.4936 25.1956 9.32048 25.1232C9.14735 25.0508 8.99053 24.9448 8.85923 24.8114C8.72793 24.678 8.6248 24.5198 8.55589 24.3463C8.48698 24.1727 8.45369 23.9872 8.45797 23.8007C8.46225 23.9872 8.42896 24.1727 8.36005 24.3463C8.29114 24.5198 8.18801 24.678 8.05671 24.8114C7.92541 24.9448 7.76859 25.0508 7.59546 25.1232C7.42233 25.1956 7.23639 25.2329 7.04855 25.2329C6.86071 25.2329 6.67477 25.1956 6.50164 25.1232C6.32851 25.0508 6.17169 24.9448 6.04039 24.8114C5.90909 24.678 5.80596 24.5198 5.73705 24.3463C5.66815 24.1727 5.63485 23.9872 5.63913 23.8007C5.63913 23.9846 5.60267 24.1667 5.53182 24.3365C5.46097 24.5064 5.35713 24.6608 5.22622 24.7908C5.09531 24.9209 4.93989 25.024 4.76885 25.0944C4.59781 25.1648 4.41448 25.201 4.22935 25.201C4.04421 25.201 3.86089 25.1648 3.68985 25.0944C3.51881 25.024 3.36339 24.9209 3.23248 24.7908C3.10157 24.6608 2.99773 24.5064 2.92688 24.3365C2.85603 24.1667 2.81957 23.9846 2.81957 23.8007C2.81971 24.0777 2.73713 24.3485 2.58228 24.5789C2.42743 24.8093 2.20726 24.9889 1.94962 25.095C1.69199 25.201 1.40847 25.2288 1.13493 25.1748C0.861389 25.1208 0.610122 24.9874 0.412917 24.7916C0.215711 24.5957 0.081427 24.3461 0.0270536 24.0744C-0.0273199 23.8027 0.000660158 23.5211 0.107454 23.2652C0.214248 23.0093 0.395057 22.7906 0.627006 22.6368C0.858956 22.483 1.13162 22.401 1.41052 22.4011Z" fill="#E60013"/>
<path d="M1.41052 28.0008C1.59555 28.0008 1.77878 27.9646 1.94974 27.8943C2.12069 27.8239 2.27602 27.7209 2.40687 27.5909C2.53771 27.4609 2.6415 27.3066 2.71231 27.1368C2.78312 26.967 2.81957 26.785 2.81957 26.6013C2.81957 26.9726 2.9681 27.3288 3.23248 27.5914C3.49687 27.854 3.85545 28.0015 4.22935 28.0015C4.60325 28.0015 4.96183 27.854 5.22622 27.5914C5.4906 27.3288 5.63913 26.9726 5.63913 26.6013C5.64752 26.967 5.7997 27.315 6.0631 27.5707C6.32651 27.8265 6.68021 27.9696 7.04855 27.9696C7.41689 27.9696 7.7706 27.8265 8.034 27.5707C8.2974 27.315 8.44958 26.967 8.45797 26.6013C8.46636 26.967 8.61853 27.315 8.88194 27.5707C9.14534 27.8265 9.49905 27.9696 9.86739 27.9696C10.2357 27.9696 10.5894 27.8265 10.8528 27.5707C11.1162 27.315 11.2684 26.967 11.2768 26.6013C11.2852 26.967 11.4374 27.315 11.7008 27.5707C11.9642 27.8265 12.3179 27.9696 12.6862 27.9696C13.0546 27.9696 13.4083 27.8265 13.6717 27.5707C13.9351 27.315 14.0872 26.967 14.0956 26.6013C14.0956 26.9726 14.2442 27.3288 14.5086 27.5914C14.7729 27.854 15.1315 28.0015 15.5054 28.0015C15.8793 28.0015 16.2379 27.854 16.5023 27.5914C16.7667 27.3288 16.9152 26.9726 16.9152 26.6013C16.9236 26.967 17.0758 27.315 17.3392 27.5707C17.6026 27.8265 17.9563 27.9696 18.3246 27.9696C18.693 27.9696 19.0467 27.8265 19.3101 27.5707C19.5735 27.315 19.7256 26.967 19.734 26.6013C19.7424 26.967 19.8946 27.315 20.158 27.5707C20.4214 27.8265 20.7751 27.9696 21.1435 27.9696C21.5118 27.9696 21.8655 27.8265 22.1289 27.5707C22.3923 27.315 22.5445 26.967 22.5529 26.6013C22.5613 26.967 22.7134 27.315 22.9768 27.5707C23.2402 27.8265 23.594 27.9696 23.9623 27.9696C24.3306 27.9696 24.6843 27.8265 24.9477 27.5707C25.2111 27.315 25.3633 26.967 25.3717 26.6013C25.3717 26.9726 25.5202 27.3288 25.7846 27.5914C26.049 27.854 26.4076 28.0015 26.7815 28.0015C27.1554 28.0015 27.514 27.854 27.7784 27.5914C28.0427 27.3288 28.1913 26.9726 28.1913 26.6013C28.1914 26.8782 28.2742 27.1489 28.4293 27.3791C28.5843 27.6093 28.8046 27.7887 29.0622 27.8945C29.3199 28.0004 29.6034 28.0279 29.8768 27.9738C30.1503 27.9196 30.4014 27.7861 30.5984 27.5902C30.7955 27.3942 30.9296 27.1447 30.9839 26.873C31.0381 26.6013 31.0101 26.3198 30.9032 26.064C30.7964 25.8082 30.6156 25.5896 30.3837 25.4358C30.1518 25.2821 29.8792 25.2001 29.6003 25.2002C29.4152 25.2003 29.2319 25.2366 29.0609 25.3071C28.8899 25.3776 28.7345 25.4808 28.6037 25.6109C28.4728 25.741 28.3691 25.8954 28.2983 26.0653C28.2275 26.2353 28.1912 26.4174 28.1913 26.6013C28.1913 26.2299 28.0427 25.8737 27.7784 25.6111C27.514 25.3485 27.1554 25.201 26.7815 25.201C26.4076 25.201 26.049 25.3485 25.7846 25.6111C25.5202 25.8737 25.3717 26.2299 25.3717 26.6013C25.376 26.4147 25.3427 26.2292 25.2738 26.0557C25.2049 25.8821 25.1017 25.724 24.9704 25.5905C24.8391 25.4571 24.6823 25.3511 24.5092 25.2787C24.3361 25.2064 24.1501 25.1691 23.9623 25.1691C23.7745 25.1691 23.5885 25.2064 23.4154 25.2787C23.2423 25.3511 23.0854 25.4571 22.9541 25.5905C22.8228 25.724 22.7197 25.8821 22.6508 26.0557C22.5819 26.2292 22.5486 26.4147 22.5529 26.6013C22.5572 26.4147 22.5239 26.2292 22.455 26.0557C22.386 25.8821 22.2829 25.724 22.1516 25.5905C22.0203 25.4571 21.8635 25.3511 21.6904 25.2787C21.5172 25.2064 21.3313 25.1691 21.1435 25.1691C20.9556 25.1691 20.7697 25.2064 20.5965 25.2787C20.4234 25.3511 20.2666 25.4571 20.1353 25.5905C20.004 25.724 19.9009 25.8821 19.832 26.0557C19.7631 26.2292 19.7298 26.4147 19.734 26.6013C19.7383 26.4147 19.705 26.2292 19.6361 26.0557C19.5672 25.8821 19.4641 25.724 19.3328 25.5905C19.2015 25.4571 19.0447 25.3511 18.8715 25.2787C18.6984 25.2064 18.5125 25.1691 18.3246 25.1691C18.1368 25.1691 17.9508 25.2064 17.7777 25.2787C17.6046 25.3511 17.4478 25.4571 17.3165 25.5905C17.1852 25.724 17.082 25.8821 17.0131 26.0557C16.9442 26.2292 16.9109 26.4147 16.9152 26.6013C16.9152 26.2299 16.7667 25.8737 16.5023 25.6111C16.2379 25.3485 15.8793 25.201 15.5054 25.201C15.1315 25.201 14.7729 25.3485 14.5086 25.6111C14.2442 25.8737 14.0956 26.2299 14.0956 26.6013C14.0999 26.4147 14.0666 26.2292 13.9977 26.0557C13.9288 25.8821 13.8257 25.724 13.6944 25.5905C13.5631 25.4571 13.4063 25.3511 13.2331 25.2787C13.06 25.2064 12.8741 25.1691 12.6862 25.1691C12.4984 25.1691 12.3124 25.2064 12.1393 25.2787C11.9662 25.3511 11.8094 25.4571 11.6781 25.5905C11.5468 25.724 11.4436 25.8821 11.3747 26.0557C11.3058 26.2292 11.2725 26.4147 11.2768 26.6013C11.2811 26.4147 11.2478 26.2292 11.1789 26.0557C11.11 25.8821 11.0068 25.724 10.8755 25.5905C10.7442 25.4571 10.5874 25.3511 10.4143 25.2787C10.2412 25.2064 10.0552 25.1691 9.86739 25.1691C9.67955 25.1691 9.4936 25.2064 9.32048 25.2787C9.14735 25.3511 8.99053 25.4571 8.85923 25.5905C8.72793 25.724 8.6248 25.8821 8.55589 26.0557C8.48698 26.2292 8.45369 26.4147 8.45797 26.6013C8.46225 26.4147 8.42896 26.2292 8.36005 26.0557C8.29114 25.8821 8.18801 25.724 8.05671 25.5905C7.92541 25.4571 7.76859 25.3511 7.59546 25.2787C7.42233 25.2064 7.23639 25.1691 7.04855 25.1691C6.86071 25.1691 6.67477 25.2064 6.50164 25.2787C6.32851 25.3511 6.17169 25.4571 6.04039 25.5905C5.90909 25.724 5.80596 25.8821 5.73705 26.0557C5.66815 26.2292 5.63485 26.4147 5.63913 26.6013C5.63913 26.4174 5.60267 26.2353 5.53182 26.0654C5.46097 25.8955 5.35713 25.7411 5.22622 25.6111C5.09531 25.4811 4.93989 25.3779 4.76885 25.3076C4.59781 25.2372 4.41448 25.201 4.22935 25.201C4.04421 25.201 3.86089 25.2372 3.68985 25.3076C3.51881 25.3779 3.36339 25.4811 3.23248 25.6111C3.10157 25.7411 2.99773 25.8955 2.92688 26.0654C2.85603 26.2353 2.81957 26.4174 2.81957 26.6013C2.81971 26.3242 2.73713 26.0534 2.58228 25.823C2.42743 25.5926 2.20726 25.413 1.94962 25.307C1.69199 25.2009 1.40847 25.1731 1.13493 25.2271C0.861389 25.2811 0.610122 25.4145 0.412917 25.6104C0.215711 25.8063 0.081427 26.0558 0.0270536 26.3275C-0.0273199 26.5992 0.000660158 26.8808 0.107454 27.1367C0.214248 27.3926 0.395057 27.6113 0.627006 27.7651C0.858956 27.9189 1.13162 28.001 1.41052 28.0008Z" fill="#E60013"/>
<path d="M7.63224 4.46033H23.3857C25.4532 4.61947 26.1548 6.57929 26.037 9.0972L22.0366 9.88346L22.0564 7.77176H9.06616V19.9115H22.0154V15.6452H15.2708V12.3541H25.9521L25.9726 20.4202C25.8643 22.4323 24.5621 23.2411 22.7536 23.539H8.63379C6.161 23.414 5.09214 22.1075 4.96191 20.5786V7.14537C5.11482 5.6041 5.98615 4.6885 7.63224 4.46033Z" fill="white"/>
</svg>
