<svg width="55" height="38" viewBox="0 0 55 38" fill="none" xmlns="http://www.w3.org/2000/svg">
<path d="M26.5584 31.5167C22.7321 31.563 23.2147 29.1687 23.1436 28.5893H25.5148C25.5395 29.2037 25.4232 30.2744 26.2969 30.2503C27.2823 30.2243 27.1805 28.9526 27.1758 28.2493L27.149 22.6838H29.5336L29.5637 28.6673C29.5733 30.7042 28.1791 31.4957 26.5584 31.5167Z" fill="#009FE3"/>
<path d="M34.3544 31.4084C32.3765 31.4166 30.3905 30.69 30.4889 28.5459H32.8906C32.9619 29.2822 33.4942 29.9453 34.434 29.9453C34.9894 29.9453 35.8245 29.535 35.8516 28.8912C35.8831 28.3208 35.172 28.1282 34.6721 28.0162L32.6976 27.5153C31.2769 27.1675 30.6335 26.3093 30.6497 25.2242C30.675 23.5494 32.2078 22.6591 34.2807 22.6839C37.1358 22.7233 38.0731 24.0264 37.868 25.3096H35.4654C35.5393 24.8023 35.1155 24.009 34.296 24.0321C32.9577 24.0618 32.8393 25.8023 34.0581 26.1321L36.134 26.3911C37.4544 26.7318 38.2101 27.4089 38.1939 28.8004C38.1491 30.5505 36.4624 31.3868 34.3544 31.4084Z" fill="#009FE3"/>
<path fill-rule="evenodd" clip-rule="evenodd" d="M49.7736 6.07979H50.2662C50.503 6.07979 50.6653 6.04392 50.7524 5.97596C50.7941 5.94249 50.8275 5.90005 50.8499 5.8519C50.8723 5.80375 50.8832 5.75117 50.8817 5.69822C50.8834 5.62772 50.8613 5.55866 50.8189 5.50187C50.7781 5.44003 50.7177 5.39325 50.647 5.36888C50.5712 5.34182 50.4364 5.32902 50.2347 5.32902H49.7736V6.07979ZM49.3626 7.48295V4.98542H50.2347C50.5294 4.98542 50.7458 5.00954 50.8796 5.05275C51.0095 5.10562 51.1177 5.18113 51.1961 5.29588C51.272 5.40368 51.3132 5.53155 51.3143 5.66277C51.3143 5.84779 51.2504 6.00197 51.1177 6.14293C50.9846 6.27446 50.8112 6.35061 50.5912 6.36781C50.6721 6.39621 50.7458 6.44159 50.8072 6.5008C50.9081 6.59793 51.034 6.76407 51.1775 6.99062L51.4883 7.48295H50.992L50.7665 7.08879C50.5897 6.78022 50.4483 6.58891 50.338 6.50836C50.2626 6.44864 50.1536 6.41878 50.0111 6.41878H49.7736V7.48295H49.3626ZM50.3946 4.26318C50.0641 4.26318 49.7436 4.35275 49.4311 4.52161C49.1211 4.6826 48.8648 4.92828 48.693 5.22917C48.5185 5.54383 48.4304 5.86247 48.4304 6.20566C48.4306 6.54228 48.5212 6.87287 48.693 7.16389C48.8611 7.46498 49.1128 7.71273 49.4186 7.87816C49.7323 8.04598 50.0526 8.13681 50.3946 8.13681C50.7367 8.13681 51.0574 8.04681 51.3722 7.87816C51.6776 7.71148 51.9296 7.4641 52.0999 7.16389C52.268 6.85657 52.3555 6.53667 52.3555 6.20566C52.3555 5.86247 52.268 5.54299 52.0948 5.22917C51.9235 4.92807 51.6672 4.68231 51.3571 4.52161C51.0451 4.35275 50.7273 4.26318 50.3946 4.26318ZM50.3946 3.88391C50.7903 3.88391 51.1765 3.98334 51.5526 4.17885C51.9232 4.37563 52.228 4.67401 52.43 5.03786C52.6371 5.39329 52.7463 5.79586 52.7467 6.20566C52.7467 6.60296 52.6441 6.98789 52.4351 7.3594C52.2338 7.72001 51.9318 8.01628 51.5649 8.21316C51.2079 8.41309 50.8043 8.51821 50.3936 8.51821C49.9829 8.51821 49.5792 8.41309 49.2222 8.21316C48.8557 8.01468 48.5532 7.71887 48.349 7.3594C48.1421 6.98866 48.039 6.60408 48.0396 6.20566C48.0396 5.79849 48.146 5.4102 48.355 5.03786C48.5586 4.67384 48.8647 4.37553 49.2365 4.17885C49.6105 3.98334 49.9998 3.88391 50.3936 3.88391" fill="#009FE3"/>
<path d="M28.1576 0H13.805L10.8259 3.47297V10.5139H3.17737L0 13.74V28.171H10.4762L10.5299 38H25.8735L28.1576 34.6785L14.0793 34.7708V24.5015L4.46949 24.402L4.56916 11.1961L14.6005 11.2477L14.698 1.16926L28.1576 1.26911V0Z" fill="#009FE3"/>
<path d="M15.7167 12.5682H14.8965V20.7094H15.7167V12.5682Z" fill="#009FE3"/>
<path d="M18.9878 10.5934H18.1235V19.9481H18.9878V10.5934Z" fill="#009FE3"/>
<path d="M36.0337 14.2128C36.1363 14.3199 36.2295 14.4354 36.3122 14.5581H49.2743C51.4326 8.73338 42.8425 8.62304 42.8425 8.62304C23.8551 7.2566 9.63672 19.7281 9.63672 19.7281L10.1666 19.537C15.1383 15.6504 20.7727 13.9151 20.7727 13.9151C32.4421 10.0826 36.0337 14.2128 36.0337 14.2128Z" fill="#009FE3"/>
<path d="M36.6889 16.401H48.4093C48.6223 15.9991 48.7856 15.6745 48.881 15.4822H36.6816C36.7357 15.7811 36.7262 16.0909 36.6889 16.401Z" fill="#009FE3"/>
<path d="M47.4669 18.0017C47.6739 17.674 47.8701 17.3533 48.0404 17.059H36.5515C36.4627 17.3776 36.3347 17.687 36.1895 18.0017H47.4669Z" fill="#009FE3"/>
<path d="M46.4741 19.4398C46.7043 19.1371 46.9213 18.8265 47.1234 18.5265H35.9173C35.7426 18.8403 35.5519 19.1451 35.3457 19.4398H46.4741Z" fill="#009FE3"/>
<path d="M34.9676 19.9633C34.538 20.5334 34.0683 21.0731 33.562 21.5785H44.5639C45.1046 21.0977 45.6047 20.5382 46.0677 19.9633H34.9676Z" fill="#009FE3"/>
<path d="M41.344 22.7123H39.2305V31.4083H41.344V22.7123Z" fill="#009FE3"/>
<path d="M47.055 22.7123H44.9419V31.4083H47.055V22.7123Z" fill="#009FE3"/>
<path d="M44.1479 26.2075H39.7998V28.2912H44.1479V26.2075Z" fill="#009FE3"/>
<path d="M54.9923 27.2492C54.9923 22.5226 51.2359 22.7119 51.2359 22.7119H48.3926V24.7932H51.2359C53.0938 24.7932 52.9441 27.4397 52.9441 27.4397C52.525 30.3018 50.1718 29.4264 50.1718 29.4264V26.528H48.061V31.4083H50.1718C55.4057 31.4083 54.9923 27.2492 54.9923 27.2492Z" fill="#009FE3"/>
</svg>
