<svg width="90" height="16" viewBox="0 0 90 16" fill="none" xmlns="http://www.w3.org/2000/svg">
<path d="M14.1518 9.93975L13.5791 15.3206H0V14.8978H0.507741C0.879528 14.9152 1.24928 14.8336 1.57931 14.6613C1.78798 14.5389 1.94765 14.3476 2.03096 14.1202C2.14514 13.6544 2.18696 13.1738 2.15495 12.6952V2.62242C2.18659 2.12624 2.14481 1.6281 2.03096 1.14417C1.92324 0.923123 1.74727 0.74273 1.52913 0.629734C1.21218 0.473473 0.860521 0.401201 0.507741 0.419823H0V0H8.15337V0.419823H7.48917C7.11745 0.40309 6.74787 0.484664 6.4176 0.656343C6.20623 0.778719 6.04277 0.96954 5.95414 1.19738C5.83997 1.66319 5.79815 2.14385 5.83016 2.62242V12.3789C5.79839 12.8825 5.84419 13.3881 5.96595 13.8778C6.0161 13.9899 6.08896 14.0904 6.17993 14.1729C6.27089 14.2553 6.37796 14.3179 6.49436 14.3568C6.94382 14.4483 7.40312 14.4821 7.86112 14.4573H9.13343C9.83518 14.4822 10.5324 14.3351 11.1644 14.0286C11.7424 13.7074 12.2268 13.2406 12.5695 12.6745C13.0636 11.8171 13.4409 10.8974 13.6913 9.93975H14.1518Z" fill="#2B4C7F"/>
<path d="M15.1578 0H23.0514V0.419823H22.6528C22.2366 0.388673 21.8188 0.452353 21.4307 0.606083C21.2188 0.72125 21.053 0.906069 20.9614 1.12938C20.8669 1.34816 20.8197 1.89216 20.8197 2.76728V10.2561C20.8197 11.6358 20.9181 12.5434 21.1149 12.979C21.3377 13.4413 21.6933 13.8264 22.1362 14.0848C22.6801 14.398 23.3013 14.5507 23.9281 14.5253C24.6718 14.5482 25.4062 14.354 26.0417 13.9665C26.6324 13.6007 27.0978 13.0634 27.376 12.4262C27.6653 11.7698 27.8099 10.6286 27.8099 9.00254V2.75841C27.8418 2.25625 27.7694 1.75292 27.5974 1.28016C27.4869 1.02457 27.2976 0.811139 27.0572 0.671126C26.5992 0.475419 26.1019 0.389373 25.6048 0.419823V0H30.8948V0.419823H30.5789C30.2046 0.405768 29.8337 0.49582 29.5073 0.679995C29.2159 0.858138 28.9964 1.13344 28.8874 1.45755C28.7657 1.87981 28.7158 2.31957 28.7398 2.75841V8.57385C28.7398 10.3753 28.6217 11.6742 28.3856 12.4705C28.1494 13.2668 27.5728 14.001 26.6557 14.6731C25.7367 15.3433 24.4841 15.6783 22.8979 15.6783C21.5754 15.6783 20.553 15.5009 19.8307 15.1461C18.9579 14.7657 18.2282 14.1177 17.7466 13.2954C17.3393 12.5425 17.1356 11.5294 17.1356 10.2561V2.75841C17.1356 1.87146 17.0884 1.32747 16.9909 1.1146C16.8846 0.890557 16.7057 0.709214 16.4832 0.60017C16.0581 0.442731 15.6035 0.381152 15.1519 0.419823L15.1578 0Z" fill="#2B4C7F"/>
<path d="M41.4919 6.33874L45.7073 12.6065C46.407 13.6442 46.9058 14.2769 47.204 14.4987C47.5124 14.7254 47.8768 14.8634 48.2578 14.8978V15.3206H40.7923V14.8978C41.1913 14.9042 41.5858 14.8118 41.9406 14.6288C42.0205 14.5729 42.0858 14.4986 42.131 14.4121C42.1762 14.3257 42.2 14.2296 42.2004 14.1321C42.2027 14.0063 42.1754 13.8817 42.1207 13.7684C41.8867 13.3294 41.6233 12.9066 41.3325 12.503L39.1008 9.19471L36.7776 12.0684C36.078 12.9347 35.7267 13.5201 35.7267 13.8423C35.7346 14.073 35.8321 14.2915 35.9983 14.4514C36.2202 14.6611 36.4981 14.8018 36.7983 14.8564C37.1183 14.9164 37.4442 14.9392 37.7695 14.9244V15.3206H31.895V14.8978C32.4545 14.839 32.9935 14.654 33.4714 14.3568C33.9752 14.0099 34.6787 13.2865 35.582 12.1867L38.6137 8.4822L34.723 2.75841C34.0854 1.81529 33.7193 1.28016 33.6308 1.18851C33.4697 0.975055 33.2693 0.794422 33.0404 0.656343C32.7859 0.532615 32.5125 0.452658 32.2315 0.419823V0H39.8211V0.419823H39.4403C39.121 0.389639 38.8005 0.462131 38.5252 0.626778C38.4437 0.68796 38.3778 0.767469 38.3326 0.858884C38.2875 0.9503 38.2645 1.05106 38.2654 1.15303C38.2616 1.29995 38.2888 1.44602 38.3451 1.58173L39.1244 2.76433L41.0166 5.65578L42.6314 3.67789C43.4579 2.66085 43.8712 1.94932 43.8712 1.54329C43.8711 1.34181 43.8104 1.14502 43.697 0.978601C43.5709 0.798502 43.3971 0.657209 43.1952 0.570604C42.8693 0.456709 42.5244 0.407503 42.1797 0.425736V0H47.8062V0.419823C47.4425 0.414022 47.0803 0.468977 46.7346 0.58243C46.4129 0.717784 46.1187 0.911197 45.8667 1.15303C45.6699 1.33437 45.1779 1.89512 44.3908 2.83528L41.4919 6.33874Z" fill="#2B4C7F"/>
<path d="M57.2552 14.8978V15.3206H49.2583V14.8978H49.766C50.1378 14.9152 50.5076 14.8336 50.8376 14.6613C51.0463 14.5389 51.206 14.3476 51.2893 14.1202C51.4034 13.6544 51.4453 13.1738 51.4132 12.6952V2.62242C51.4449 2.12624 51.4031 1.6281 51.2893 1.14417C51.1815 0.923123 51.0056 0.74273 50.7874 0.629734C50.4713 0.470412 50.1196 0.395078 49.766 0.410953H49.2583V0H57.2552V0.419823H56.7475C56.3758 0.403508 56.0063 0.485058 55.6759 0.656343C55.4653 0.779624 55.3021 0.970147 55.2124 1.19738C55.0983 1.66319 55.0564 2.14385 55.0885 2.62242V12.6952C55.0559 13.1917 55.0997 13.6903 55.2183 14.1735C55.3298 14.3938 55.5073 14.5737 55.7261 14.6879C56.042 14.848 56.3939 14.9234 56.7475 14.9067L57.2552 14.8978Z" fill="#2B4C7F"/>
<path d="M72.758 2.21037e-05V5.32172H72.3181C71.9875 3.94202 71.3705 2.87965 70.4672 2.13462C69.6083 1.41318 68.5211 1.02124 67.4001 1.02888C66.4602 1.02446 65.5421 1.3127 64.7729 1.85375C63.9917 2.38479 63.3839 3.13437 63.0253 4.00904C62.5391 5.21465 62.2973 6.50507 62.3139 7.80518C62.305 9.06647 62.4841 10.322 62.8452 11.5304C63.1094 12.5296 63.6767 13.4221 64.4688 14.0848C65.2977 14.6898 66.3076 14.9943 67.3322 14.9481C68.2565 14.9607 69.1694 14.7433 69.989 14.3154C70.9595 13.7508 71.8181 13.0122 72.5218 12.1365V13.458C71.7672 14.2789 70.8571 14.9413 69.8444 15.4063C68.8136 15.8232 67.7085 16.0244 66.5972 15.9976C65.09 16.0259 63.5983 15.6892 62.2489 15.0161C61.0094 14.3962 59.9834 13.4191 59.3028 12.2104C58.616 11.0141 58.2546 9.6582 58.2549 8.27822C58.2583 6.8205 58.654 5.39065 59.4003 4.13912C60.131 2.85624 61.2003 1.79962 62.491 1.08506C63.7513 0.370603 65.1755 -0.00331204 66.6237 2.21037e-05C67.792 0.0189301 68.9464 0.256582 70.0274 0.700713C70.4473 0.89373 70.8911 1.02994 71.3469 1.10575C71.4637 1.10729 71.5795 1.08472 71.6872 1.03945C71.7949 0.994179 71.8921 0.927178 71.9727 0.842625C72.1755 0.606364 72.2966 0.310824 72.3181 2.21037e-05H72.758Z" fill="#2B4C7F"/>
<path d="M81.7676 0.0163039C84.2039 -0.0743621 86.1828 0.637169 87.704 2.1509C88.4547 2.88952 89.0456 3.77484 89.4402 4.75187C89.8348 5.7289 90.0246 6.77675 89.9977 7.83033C90.0265 9.68404 89.4259 11.4926 88.2944 12.9599C86.7889 14.9171 84.6654 15.8957 81.924 15.8957C79.1826 15.8957 77.0523 14.9624 75.533 13.0959C74.3455 11.607 73.7185 9.74727 73.7618 7.84216C73.7321 6.78628 73.9217 5.73572 74.3185 4.75705C74.7154 3.77838 75.3109 2.89294 76.0673 2.15681C76.8108 1.41449 77.7038 0.83958 78.6868 0.47046C79.6698 0.10134 80.7201 -0.0534914 81.7676 0.0163039ZM81.9034 0.73769C80.5041 0.73769 79.4404 1.45316 78.7123 2.88411C78.1219 4.06671 77.8267 5.75388 77.8267 7.94564C77.8267 10.5552 78.2852 12.4858 79.2023 13.7374C79.5049 14.1629 79.9089 14.5058 80.3775 14.7351C80.8462 14.9643 81.3646 15.0726 81.8857 15.0501C82.5758 15.0744 83.2555 14.8765 83.8251 14.4854C84.4864 14.0045 85.002 13.2338 85.3719 12.1734C85.7793 10.8329 85.9658 9.43491 85.924 8.03433C85.924 6.01011 85.736 4.4954 85.3601 3.49019C84.9843 2.48498 84.5031 1.77444 83.9166 1.35855C83.3282 0.943216 82.6232 0.725809 81.9034 0.73769Z" fill="#2B4C7F"/>
</svg>
