<svg width="28" height="22" viewBox="0 0 28 22" fill="none" xmlns="http://www.w3.org/2000/svg">
<path fill-rule="evenodd" clip-rule="evenodd" d="M0.666504 0.505618C0.666504 0.226373 0.88497 0 1.15446 0H19.0462C19.3157 0 19.5342 0.226373 19.5342 0.505618V16.955C19.5342 17.2343 19.3157 17.4606 19.0462 17.4606H1.15446C0.88497 17.4606 0.666504 17.2343 0.666504 16.955V0.505618ZM1.64242 1.01124V16.4494H18.5583V1.01124H1.64242Z" fill="#F3F5F5"/>
<path fill-rule="evenodd" clip-rule="evenodd" d="M18.5581 6.67401C18.5581 6.39477 18.7766 6.1684 19.0461 6.1684H23.6933C23.8282 6.1684 23.9571 6.2263 24.0494 6.32834L27.5348 10.1837C27.6195 10.2774 27.6666 10.401 27.6666 10.5293V16.9549C27.6666 17.2341 27.4482 17.4605 27.1787 17.4605H19.0461C18.7766 17.4605 18.5581 17.2341 18.5581 16.9549V6.67401ZM19.534 7.17963V16.4493H26.6907V10.7292L23.4818 7.17963H19.534Z" fill="#F3F5F5"/>
<path fill-rule="evenodd" clip-rule="evenodd" d="M4.87241 17.9551C4.06393 17.9551 3.40853 18.6342 3.40853 19.4719C3.40853 20.3097 4.06393 20.9888 4.87241 20.9888C5.68088 20.9888 6.33628 20.3097 6.33628 19.4719C6.33628 18.6342 5.68088 17.9551 4.87241 17.9551ZM2.43262 19.4719C2.43262 18.0757 3.52495 16.9438 4.87241 16.9438C6.21986 16.9438 7.31219 18.0757 7.31219 19.4719C7.31219 20.8682 6.21986 22 4.87241 22C3.52495 22 2.43262 20.8682 2.43262 19.4719Z" fill="#F3F5F5"/>
<path fill-rule="evenodd" clip-rule="evenodd" d="M23.6473 17.9551C22.8388 17.9551 22.1834 18.6342 22.1834 19.4719C22.1834 20.3097 22.8388 20.9888 23.6473 20.9888C24.4558 20.9888 25.1112 20.3097 25.1112 19.4719C25.1112 18.6342 24.4558 17.9551 23.6473 17.9551ZM21.2075 19.4719C21.2075 18.0757 22.2999 16.9438 23.6473 16.9438C24.9948 16.9438 26.0871 18.0757 26.0871 19.4719C26.0871 20.8682 24.9948 22 23.6473 22C22.2999 22 21.2075 20.8682 21.2075 19.4719Z" fill="#F3F5F5"/>
</svg>
