<svg width="18" height="22" viewBox="0 0 18 22" fill="none" xmlns="http://www.w3.org/2000/svg">
<path fill-rule="evenodd" clip-rule="evenodd" d="M1.29453 0.443969C2.0153 0.215763 3.12939 0 4.76471 0C6.43573 0 7.82603 0.440212 9.13623 0.855062L9.16135 0.863017C10.4909 1.28396 11.7405 1.67619 13.2353 1.67619C14.7765 1.67619 15.78 1.47291 16.3828 1.28206C16.6842 1.18662 16.8864 1.094 17.0064 1.03067C17.0664 0.998981 17.1061 0.974506 17.1276 0.960505C17.1381 0.9537 17.1442 0.949351 17.1464 0.947823C17.3047 0.826449 17.519 0.803751 17.6999 0.889794C17.8833 0.977019 18 1.16055 18 1.36191V11.4191C18 11.5782 17.9269 11.7287 17.8013 11.8281L17.4706 11.4191C17.8013 11.8281 17.801 11.8283 17.8007 11.8286L17.8001 11.8291L17.7987 11.8301L17.7958 11.8324L17.7886 11.8379L17.7693 11.8521C17.7542 11.863 17.7346 11.8766 17.7101 11.8925C17.6613 11.9243 17.5935 11.9653 17.5047 12.0122C17.3269 12.106 17.0658 12.2229 16.7055 12.337C15.9847 12.5652 14.8706 12.781 13.2353 12.781C11.5643 12.781 10.174 12.3407 8.86377 11.9259L8.83865 11.9179C7.50915 11.497 6.25947 11.1048 4.76471 11.1048C3.22355 11.1048 2.21999 11.3081 1.61723 11.4989C1.31578 11.5943 1.11362 11.687 0.99362 11.7503C0.933562 11.782 0.893852 11.8065 0.872372 11.8205C0.861945 11.8273 0.855784 11.8316 0.85365 11.8331C0.695333 11.9545 0.481018 11.9772 0.300077 11.8912C0.116654 11.8039 0 11.6204 0 11.4191V1.36191C0 1.20278 0.0731063 1.05228 0.198691 0.952879L0.529412 1.36191C0.198691 0.952879 0.19899 0.952642 0.199294 0.952402L0.199923 0.951907L0.201255 0.950861L0.204224 0.948552L0.211388 0.943082L0.230693 0.92887C0.24581 0.917992 0.265444 0.904391 0.289852 0.888481C0.338684 0.856649 0.406511 0.815648 0.49535 0.768768C0.673146 0.674947 0.934221 0.558048 1.29453 0.443969ZM1.05882 1.66V10.5809C1.13215 10.5544 1.21065 10.5277 1.29453 10.5011C2.0153 10.2729 3.12939 10.0572 4.76471 10.0572C6.43573 10.0572 7.82603 10.4974 9.13623 10.9122L9.16135 10.9202C10.4909 11.3411 11.7405 11.7333 13.2353 11.7333C14.7765 11.7333 15.78 11.5301 16.3828 11.3392C16.6352 11.2593 16.8179 11.1814 16.9412 11.121V2.20004C16.8679 2.22658 16.7894 2.25329 16.7055 2.27984C15.9847 2.50805 14.8706 2.72381 13.2353 2.72381C11.5643 2.72381 10.174 2.2836 8.86377 1.86875L8.83865 1.8608C7.50915 1.43986 6.25947 1.04762 4.76471 1.04762C3.22355 1.04762 2.21999 1.2509 1.61723 1.44175C1.36485 1.52166 1.18206 1.59959 1.05882 1.66Z" fill="#F3F5F5"/>
<path fill-rule="evenodd" clip-rule="evenodd" d="M0.529412 10.8952C0.821798 10.8952 1.05882 11.1297 1.05882 11.419V21.4762C1.05882 21.7655 0.821798 22 0.529412 22C0.237026 22 0 21.7655 0 21.4762V11.419C0 11.1297 0.237026 10.8952 0.529412 10.8952Z" fill="#F3F5F5"/>
</svg>
