<svg width="23" height="22" viewBox="0 0 23 22" fill="none" xmlns="http://www.w3.org/2000/svg">
<path d="M15.9398 22C8.86556 22 4.04431 15.2283 2.19986 12.1905C1.11506 10.3506 0.476594 8.24334 0.34374 6.06435C0.291441 5.11517 0.439898 4.16558 0.777773 3.28811C1.11565 2.41064 1.634 1.62849 2.29325 1.00141C2.66438 0.620509 3.11046 0.335999 3.59783 0.169357C4.0852 0.00271431 4.60111 -0.0417055 5.10662 0.0394503C5.44036 0.112181 5.75538 0.263158 6.02963 0.481804C6.30388 0.70045 6.53072 0.981474 6.69425 1.30519C7.23248 2.37231 7.71574 3.47097 8.14179 4.5961C8.29355 4.93785 8.39861 5.21631 8.46866 5.35554C8.70044 5.84633 8.74848 6.41521 8.60275 6.94348C8.45702 7.47175 8.12878 7.9186 7.68652 8.19079C6.99777 8.65911 6.85768 8.93757 6.83433 9.06415C6.81099 9.19072 6.83434 9.17806 6.91605 9.34261C7.61423 10.7247 8.5264 11.9663 9.61268 13.0132C10.721 14.1057 12.0077 14.9642 13.4066 15.5447L13.7102 15.6839L13.8386 15.5574C14.0707 15.2791 14.2889 14.9876 14.4923 14.684C14.8425 14.203 15.1927 13.7094 15.4729 13.4183C15.7032 13.1802 15.99 13.0162 16.3013 12.9447C16.6126 12.8732 16.9361 12.8969 17.2356 13.0132L19.0217 13.9625C19.8155 14.3549 20.6093 14.7473 20.8428 14.8865C21.2428 15.0634 21.6104 15.3163 21.9285 15.6333C22.2904 16.0257 22.7223 16.975 21.6833 19.0508C21.2811 19.7989 20.7274 20.4382 20.0642 20.9205C19.4009 21.4029 18.6453 21.7157 17.8543 21.8354C17.2213 21.9465 16.5811 22.0015 15.9398 22ZM4.60465 1.30519C4.04873 1.29999 3.51129 1.52134 3.09874 1.9254C2.57005 2.42746 2.1527 3.05244 1.8778 3.75375C1.60291 4.45506 1.47757 5.2146 1.51111 5.97575C1.62832 7.94267 2.20258 9.84547 3.18046 11.507C5.05993 14.646 10.1847 21.8228 17.6676 20.5823C18.2821 20.4837 18.8678 20.234 19.3797 19.8523C19.8916 19.4705 20.3162 18.9669 20.621 18.38C21.2747 17.1142 21.1463 16.5446 21.0763 16.4687C20.8464 16.2494 20.5813 16.0778 20.2942 15.9624C20.049 15.8232 19.2785 15.4308 18.5081 15.0511L16.792 14.1777C16.7042 14.1554 16.6127 14.1564 16.5253 14.1806C16.4379 14.2049 16.3572 14.2516 16.2901 14.317C16.0683 14.5574 15.7297 15.0384 15.4145 15.4688C15.1789 15.8171 14.9256 16.1509 14.6557 16.4687C14.4473 16.731 14.1569 16.9006 13.8402 16.945C13.5235 16.9894 13.2028 16.9054 12.9397 16.7092C11.4273 16.0799 10.0374 15.1482 8.84222 13.9625C7.66962 12.8273 6.6794 11.4884 5.91211 10.0008C5.79465 9.81884 5.71414 9.61193 5.67591 9.39374C5.63767 9.17554 5.64258 8.95104 5.69031 8.73506C5.94393 8.03273 6.43132 7.45911 7.05614 7.12757C7.15344 7.07524 7.24014 7.0024 7.31118 6.9133C7.38221 6.82421 7.43616 6.72066 7.46985 6.6087C7.50354 6.49675 7.51632 6.37863 7.50742 6.26125C7.49852 6.14388 7.46813 6.02961 7.41802 5.92512L7.07948 5.10239C6.66895 4.0606 6.20918 3.04244 5.70198 2.05197C5.6259 1.86919 5.51301 1.70723 5.37159 1.578C5.23018 1.44876 5.06384 1.35554 4.88482 1.30519H4.60465Z" fill="#F3F5F5"/>
<path fill-rule="evenodd" clip-rule="evenodd" d="M13.1999 0.987424C13.2303 0.700614 13.477 0.493888 13.7509 0.525689C15.8025 0.763857 17.7158 1.72393 19.1766 3.2485C20.6374 4.77308 21.5588 6.77156 21.7894 8.91586C21.8202 9.20262 21.6232 9.46126 21.3493 9.49354C21.0754 9.52582 20.8284 9.31953 20.7976 9.03277C20.5924 7.12456 19.7724 5.34579 18.4719 3.98859C17.1715 2.63138 15.4679 1.77642 13.6409 1.56432C13.367 1.53252 13.1695 1.27423 13.1999 0.987424ZM13.2061 4.93975C13.2588 4.6565 13.5208 4.4716 13.7913 4.52676C14.822 4.7369 15.7695 5.26371 16.5122 6.0399C17.255 6.8161 17.7594 7.80638 17.9606 8.88407C18.0135 9.16727 17.8371 9.44174 17.5666 9.4971C17.2961 9.55246 17.0339 9.36775 16.981 9.08455C16.818 8.21139 16.4093 7.40879 15.8072 6.77953C15.205 6.15025 14.4367 5.72296 13.6005 5.55249C13.33 5.49733 13.1534 5.223 13.2061 4.93975Z" fill="#F3F5F5"/>
</svg>
