<svg width="113" height="16" viewBox="0 0 113 16" fill="none" xmlns="http://www.w3.org/2000/svg">
<path d="M0.666667 8C0.666667 10.9455 3.05448 13.3333 6 13.3333C8.94552 13.3333 11.3333 10.9455 11.3333 8C11.3333 5.05448 8.94552 2.66667 6 2.66667C3.05448 2.66667 0.666667 5.05448 0.666667 8ZM112.04 8.70711C112.431 8.31658 112.431 7.68342 112.04 7.29289L105.676 0.928932C105.286 0.538408 104.653 0.538408 104.262 0.928932C103.872 1.31946 103.872 1.95262 104.262 2.34315L109.919 8L104.262 13.6569C103.872 14.0474 103.872 14.6805 104.262 15.0711C104.653 15.4616 105.286 15.4616 105.676 15.0711L112.04 8.70711ZM6 9H111.333V7H6V9Z" fill="#396780"/>
</svg>
