<svg width="21" height="25" viewBox="0 0 21 25" fill="none" xmlns="http://www.w3.org/2000/svg">
<path fill-rule="evenodd" clip-rule="evenodd" d="M7.77286 23.0952C7.56859 23.0952 7.36377 23.2756 7.36377 23.5476C7.36377 23.8196 7.56859 24 7.77286 24C7.97713 24 8.18195 23.8196 8.18195 23.5476C8.18195 23.2756 7.97713 23.0952 7.77286 23.0952ZM6.36377 23.5476C6.36377 22.7676 6.97298 22.0952 7.77286 22.0952C8.57274 22.0952 9.18195 22.7676 9.18195 23.5476C9.18195 24.3275 8.57274 25 7.77286 25C6.97298 25 6.36377 24.3275 6.36377 23.5476Z" fill="#F3F5F5"/>
<path fill-rule="evenodd" clip-rule="evenodd" d="M17.7724 23.0952C17.5681 23.0952 17.3633 23.2756 17.3633 23.5476C17.3633 23.8196 17.5681 24 17.7724 24C17.9766 24 18.1815 23.8196 18.1815 23.5476C18.1815 23.2756 17.9766 23.0952 17.7724 23.0952ZM16.3633 23.5476C16.3633 22.7676 16.9725 22.0952 17.7724 22.0952C18.5723 22.0952 19.1815 22.7676 19.1815 23.5476C19.1815 24.3275 18.5723 25 17.7724 25C16.9725 25 16.3633 24.3275 16.3633 23.5476Z" fill="#F3F5F5"/>
<path fill-rule="evenodd" clip-rule="evenodd" d="M0 4.5C0 4.22386 0.223858 4 0.5 4H4.13636C4.37633 4 4.58245 4.17047 4.62748 4.40617L5.45965 8.7619H20.5C20.6483 8.7619 20.7889 8.82772 20.8839 8.94157C20.9789 9.05542 21.0185 9.20557 20.9919 9.35145L19.5374 17.3419L19.5367 17.3455C19.4328 17.8937 19.1473 18.3908 18.7246 18.7473C18.3026 19.1031 17.7712 19.2954 17.2225 19.2857H8.39565C7.84697 19.2954 7.31554 19.1031 6.89361 18.7473C6.47097 18.3908 6.18553 17.8939 6.08155 17.3459C6.08152 17.3458 6.08157 17.346 6.08155 17.3459L4.56025 9.38312C4.55586 9.36548 4.5524 9.34748 4.54994 9.32915L3.72285 5H0.5C0.223858 5 0 4.77614 0 4.5ZM5.6507 9.7619L7.06384 17.1586C7.12618 17.4873 7.29623 17.7787 7.53829 17.9828C7.7798 18.1865 8.07815 18.2919 8.38087 18.2858L8.39091 18.2856L17.2373 18.2857C17.54 18.2918 17.8384 18.1865 18.0799 17.9828C18.3215 17.779 18.4913 17.489 18.5539 17.1609C18.554 17.1604 18.5541 17.1598 18.5542 17.1592L19.9008 9.7619H5.6507Z" fill="#F3F5F5"/>
<path fill-rule="evenodd" clip-rule="evenodd" d="M13.5 0C13.7761 0 14 0.223858 14 0.5V6.5C14 6.77614 13.7761 7 13.5 7C13.2239 7 13 6.77614 13 6.5V0.5C13 0.223858 13.2239 0 13.5 0Z" fill="#F3F5F5"/>
<path fill-rule="evenodd" clip-rule="evenodd" d="M11.1464 4.14645C11.3417 3.95118 11.6583 3.95118 11.8536 4.14645L13.5 5.79289L15.1464 4.14645C15.3417 3.95118 15.6583 3.95118 15.8536 4.14645C16.0488 4.34171 16.0488 4.65829 15.8536 4.85355L13.5 7.20711L11.1464 4.85355C10.9512 4.65829 10.9512 4.34171 11.1464 4.14645Z" fill="#F3F5F5"/>
</svg>
