<svg width="81" height="81" viewBox="0 0 81 81" fill="none" xmlns="http://www.w3.org/2000/svg">
<path d="M3.5443 0.0835284L76.4557 0.00383478C77.3924 0.0133371 78.2882 0.389154 78.9514 1.05085C79.6145 1.71254 79.9923 2.60753 80.0038 3.54426L80.0835 76.4556C80.074 77.3924 79.6982 78.2882 79.0365 78.9513C78.3748 79.6145 77.4798 79.9922 76.5431 80.0038L3.63174 80.0835C2.69499 80.074 1.79918 79.6982 1.13603 79.0365C0.472892 78.3748 0.0951176 77.4798 0.0835676 76.5431L0.00387399 3.6317C0.0133763 2.69495 0.389194 1.79914 1.05089 1.13599C1.71258 0.472853 2.60757 0.0950784 3.5443 0.0835284Z" fill="url(#paint0_radial_597_15993)"/>
<path fill-rule="evenodd" clip-rule="evenodd" d="M23 13.5C21.067 13.5 19.5 15.067 19.5 17V27C19.5 28.2949 20.2029 29.4261 21.2504 30.0321L21.5 30.1765V44.9822L23 65.9822L24.5 44.9822V30.1765L24.7496 30.0321C25.7971 29.4261 26.5 28.2949 26.5 27V17C26.5 15.067 24.933 13.5 23 13.5ZM18.5 17C18.5 14.5147 20.5147 12.5 23 12.5C25.4853 12.5 27.5 14.5147 27.5 17V27C27.5 28.5609 26.7051 29.9355 25.5 30.7421V45.0178L23.8977 67.4499C23.8181 68.5644 22.1819 68.5643 22.1023 67.4499L20.5 45.0178V30.7421C19.2949 29.9355 18.5 28.5609 18.5 27V17Z" fill="#282828"/>
<path fill-rule="evenodd" clip-rule="evenodd" d="M25 36H21V35H25V36Z" fill="#282828"/>
<path fill-rule="evenodd" clip-rule="evenodd" d="M25 41H21V40H25V41Z" fill="#282828"/>
<path fill-rule="evenodd" clip-rule="evenodd" d="M25 46H21V45H25V46Z" fill="#282828"/>
<path fill-rule="evenodd" clip-rule="evenodd" d="M25 51H21V50H25V51Z" fill="#282828"/>
<path fill-rule="evenodd" clip-rule="evenodd" d="M40 13.5C38.067 13.5 36.5 15.067 36.5 17V27C36.5 28.2949 37.2029 29.4261 38.2504 30.0321L38.5 30.1765V44.9822L40 65.9822L41.5 44.9822V30.1765L41.7496 30.0321C42.7971 29.4261 43.5 28.2949 43.5 27V17C43.5 15.067 41.933 13.5 40 13.5ZM35.5 17C35.5 14.5147 37.5147 12.5 40 12.5C42.4853 12.5 44.5 14.5147 44.5 17V27C44.5 28.5609 43.7051 29.9355 42.5 30.7421V45.0178L40.8977 67.4499C40.8181 68.5644 39.1819 68.5643 39.1023 67.4499L37.5 45.0178V30.7421C36.2949 29.9355 35.5 28.5609 35.5 27V17Z" fill="#282828"/>
<path fill-rule="evenodd" clip-rule="evenodd" d="M42 36H38V35H42V36Z" fill="#282828"/>
<path fill-rule="evenodd" clip-rule="evenodd" d="M42 41H38V40H42V41Z" fill="#282828"/>
<path fill-rule="evenodd" clip-rule="evenodd" d="M42 46H38V45H42V46Z" fill="#282828"/>
<path fill-rule="evenodd" clip-rule="evenodd" d="M42 51H38V50H42V51Z" fill="#282828"/>
<path fill-rule="evenodd" clip-rule="evenodd" d="M57 13.5C55.067 13.5 53.5 15.067 53.5 17V27C53.5 28.2949 54.2029 29.4261 55.2504 30.0321L55.5 30.1765V44.9822L57 65.9822L58.5 44.9822V30.1765L58.7496 30.0321C59.7971 29.4261 60.5 28.2949 60.5 27V17C60.5 15.067 58.933 13.5 57 13.5ZM52.5 17C52.5 14.5147 54.5147 12.5 57 12.5C59.4853 12.5 61.5 14.5147 61.5 17V27C61.5 28.5609 60.7051 29.9355 59.5 30.7421V45.0178L57.8977 67.4499C57.8181 68.5644 56.1819 68.5643 56.1023 67.4499L54.5 45.0178V30.7421C53.2949 29.9355 52.5 28.5609 52.5 27V17Z" fill="#282828"/>
<path fill-rule="evenodd" clip-rule="evenodd" d="M59 36H55V35H59V36Z" fill="#282828"/>
<path fill-rule="evenodd" clip-rule="evenodd" d="M59 41H55V40H59V41Z" fill="#282828"/>
<path fill-rule="evenodd" clip-rule="evenodd" d="M59 46H55V45H59V46Z" fill="#282828"/>
<path fill-rule="evenodd" clip-rule="evenodd" d="M59 51H55V50H59V51Z" fill="#282828"/>
<defs>
<radialGradient id="paint0_radial_597_15993" cx="0" cy="0" r="1" gradientUnits="userSpaceOnUse" gradientTransform="translate(40.0437 40.0437) rotate(89.9374) scale(62.8571)">
<stop stop-color="#DBEFF4"/>
<stop offset="1" stop-color="#9FBCCB"/>
</radialGradient>
</defs>
</svg>
