<?xml version="1.0" encoding="utf-8"?>
<!-- Generator: Adobe Illustrator 18.1.1, SVG Export Plug-In . SVG Version: 6.00 Build 0)  -->
<svg version="1.1" id="Слой_1" xmlns="http://www.w3.org/2000/svg" xmlns:xlink="http://www.w3.org/1999/xlink" x="0px" y="0px"
	 viewBox="-21 23 20 20" enable-background="new -21 23 20 20" xml:space="preserve">
<path fill="none" stroke="#B2B6BC" d="M-17,23.5h12c1.9,0,3.5,1.6,3.5,3.5v12c0,1.9-1.6,3.5-3.5,3.5h-12c-1.9,0-3.5-1.6-3.5-3.5V27
	C-20.5,25.1-18.9,23.5-17,23.5z"/>
<path fill="none" stroke="#B2B6BC" stroke-linecap="round" stroke-linejoin="round" d="M-15,39.5v-11c0-1.1,0.9-2,2-2h4
	c1.1,0,2,0.9,2,2v9c0,1.1-0.9,2-2,2h-1.8c-1.1,0-2-0.9-2-2v-5.7c0-1,0.8-1.8,1.8-1.8l0,0c1,0,1.8,0.8,1.8,1.8V37"/>
</svg>
