<svg width="22" height="22" viewBox="0 0 22 22" fill="none" xmlns="http://www.w3.org/2000/svg">
<path fill-rule="evenodd" clip-rule="evenodd" d="M13.6147 11.0001L21.4585 3.15623C22.1805 2.4342 22.1805 1.26356 21.4585 0.541628C20.7364 -0.180405 19.5659 -0.180405 18.8439 0.541628L11 8.38555L3.15605 0.541525C2.43402 -0.180508 1.26348 -0.180508 0.541447 0.541525C-0.180482 1.26356 -0.180482 2.4342 0.541447 3.15613L8.38536 10.9999L0.541447 18.8439C-0.180482 19.5659 -0.180482 20.7365 0.541447 21.4585C1.26348 22.1805 2.43402 22.1805 3.15605 21.4585L11 13.6146L18.8439 21.4585C19.5658 22.1805 20.7364 22.1805 21.4585 21.4585C22.1805 20.7364 22.1805 19.5659 21.4585 18.8439L13.6147 11.0001Z" fill="#fff"/>
</svg>
