<?xml version="1.0" encoding="utf-8"?>
<!-- Generator: Adobe Illustrator 18.1.1, SVG Export Plug-In . SVG Version: 6.00 Build 0)  -->
<svg version="1.1" id="Слой_1" xmlns="http://www.w3.org/2000/svg" xmlns:xlink="http://www.w3.org/1999/xlink" x="0px" y="0px"
	 viewBox="-24 26 14 14" enable-background="new -24 26 14 14" xml:space="preserve">
<path fill="#EB5757" d="M-23.6,38.9c-0.2,0.2-0.2,0.5,0,0.7s0.5,0.2,0.7,0l5.9-5.9l5.9,5.9c0.2,0.2,0.5,0.2,0.7,0
	c0.2-0.2,0.2-0.5,0-0.7l-5.9-5.9l5.9-5.9c0.2-0.2,0.2-0.5,0-0.7s-0.5-0.2-0.7,0l-5.9,5.9l-5.9-5.9c-0.2-0.2-0.5-0.2-0.7,0
	c-0.2,0.2-0.2,0.5,0,0.7l5.9,5.9L-23.6,38.9z"/>
</svg>
