<?xml version="1.0" encoding="utf-8"?>
<!-- Generator: Adobe Illustrator 18.1.1, SVG Export Plug-In . SVG Version: 6.00 Build 0)  -->
<svg version="1.1" id="Слой_1" xmlns="http://www.w3.org/2000/svg" xmlns:xlink="http://www.w3.org/1999/xlink" x="0px" y="0px"
	 viewBox="0 0 64 64" enable-background="new 0 0 64 64" xml:space="preserve">
<g>
	<path fill="#2BAA58" d="M46.1,32c0-3.2-0.9-6.2-2.5-8.8l6.2-6.5l-2-1.9L41.9,21c-3-3.4-7.4-5.6-12.3-5.6c-9.1,0-16.5,7.4-16.5,16.6
		c0,1.3,0.1,2.6,0.5,3.8c-2.7,0.6-4.7,3.1-4.7,5.9c0,3.4,2.7,6.1,6.1,6.1c2,0,3.8-1,4.9-2.5c2.7,2.1,6.2,3.2,9.8,3.2s7-1.2,9.7-3.2
		l5.6,6.2l2.1-1.9l-5.6-6.1C44.3,40.6,46.1,36.5,46.1,32z"/>
	<g>
		<path fill="#FFFFFF" d="M38,38.8c-3.2,2.2-7.6,2.5-11.2,0.3c-4.8-3-6.4-9.2-3.4-14c1.1-1.8,2.7-3.2,4.5-3.9
			c-3.8,0-7.5,1.9-9.6,5.4c-3.3,5.4-1.5,12.5,3.9,15.8C27.6,45.8,34.7,44.1,38,38.8z"/>
	</g>
</g>
<g>
	<path fill="#FFFFFF" d="M18,44.3c-1.2,0.8-2.8,0.9-4.1,0.1c-1.8-1.1-2.4-3.4-1.3-5.1c0.4-0.7,1-1.1,1.7-1.5c-1.4,0-2.8,0.7-3.5,2
		c-1.2,2-0.6,4.6,1.5,5.8C14.1,46.8,16.7,46.2,18,44.3z"/>
</g>
<g>
	<g>
		<path fill="#2BAA58" d="M52.9,53.6c0,3.4-2.7,6.1-6.1,6.1c-3.4,0-6.1-2.7-6.1-6.1c0-3.4,2.7-6.1,6.1-6.1
			C50.2,47.5,52.9,50.2,52.9,53.6z"/>
	</g>
	<g>
		<path fill="#FFFFFF" d="M49.9,56.1c-1.2,0.8-2.8,0.9-4.1,0.1c-1.8-1.1-2.4-3.4-1.3-5.1c0.4-0.7,1-1.1,1.7-1.5
			c-1.4,0-2.8,0.7-3.5,2c-1.2,2-0.6,4.6,1.5,5.8C46.1,58.6,48.7,58.1,49.9,56.1z"/>
	</g>
</g>
<g>
	<g>
		<path fill="#2BAA58" d="M57.3,12.8c0,3.4-2.7,6.1-6.1,6.1c-3.4,0-6.1-2.7-6.1-6.1s2.7-6.1,6.1-6.1C54.6,6.7,57.3,9.4,57.3,12.8z"
			/>
	</g>
	<g>
		<path fill="#FFFFFF" d="M54.4,15.3c-1.2,0.8-2.8,0.9-4.1,0.1c-1.8-1.1-2.4-3.4-1.3-5.1c0.4-0.7,1-1.1,1.7-1.5
			c-1.4,0-2.8,0.7-3.5,2c-1.2,2-0.6,4.6,1.5,5.8S53.2,17.3,54.4,15.3z"/>
	</g>
</g>
<rect x="-42" y="-29.6" fill="none" width="160" height="62.6"/>
</svg>
