<?xml version="1.0" encoding="utf-8"?>
<!-- Generator: Adobe Illustrator 18.1.1, SVG Export Plug-In . SVG Version: 6.00 Build 0)  -->
<svg version="1.1" id="Слой_1" xmlns="http://www.w3.org/2000/svg" xmlns:xlink="http://www.w3.org/1999/xlink" x="0px" y="0px"
	 viewBox="0 0 64 64" enable-background="new 0 0 64 64" xml:space="preserve">
<circle fill="#04AF55" cx="31.4" cy="60.6" r="2.7"/>
<path fill="#04AF55" d="M31.4,5.9c-11.4,0.4-20.6,9.7-20.6,21.2c0,7.8,4.2,14.6,10.4,18.3l0,0c6.6,4.8,9.4,8.7,10.1,9.7
	c0.7-1,3.6-4.9,10.1-9.7l0,0c6.2-3.7,10.4-10.5,10.4-18.3C52,15.6,42.8,6.3,31.4,5.9z"/>
<g>
	<path fill="#FFFFFF" d="M43.7,35.6C39.3,38.7,33.3,39,28.3,36c-6.6-4-8.8-12.6-4.8-19.1c1.6-2.5,3.7-4.3,6.2-5.4
		c-5.2,0.1-10.2,2.7-13.2,7.4C12.2,26.3,14.5,36,22,40.6C29.5,45.1,39.1,42.9,43.7,35.6z"/>
</g>
</svg>
