<?xml version="1.0" encoding="utf-8"?>
<!-- Generator: Adobe Illustrator 18.1.1, SVG Export Plug-In . SVG Version: 6.00 Build 0)  -->
<svg version="1.1" id="Слой_1" xmlns="http://www.w3.org/2000/svg" xmlns:xlink="http://www.w3.org/1999/xlink" x="0px" y="0px"
	 viewBox="0 0 64 64" enable-background="new 0 0 64 64" xml:space="preserve">
<g>
	<rect fill="none" width="64" height="64"/>
	<path fill="none" stroke="#396780" stroke-linejoin="round" d="M40,5.3v7.2c0,2.9,2.4,5.3,5.3,5.3h8 M40,5.3H18.7h-0.3
		c-2.9,0.3-5.1,2.4-5.1,5.3v42.7c0,2.9,2.4,5.3,5.3,5.3H48c2.9,0,5.3-2.4,5.3-5.3l0,0V17.9L40,5.3z"/>
	<path fill="#396780" d="M21.1,37.9v3.5c0,0.8-0.5,1.3-1.3,1.3c-0.5,0-1.1-0.5-1.1-1.3V30.9c0-0.8,0.8-1.6,1.6-1.6h2.9
		c0.8,0,1.6,0.3,2.4,0.5c0.8,0.3,1.1,0.8,1.6,1.6c0.3,0.8,0.5,1.3,0.5,2.4c0,1.3-0.3,2.4-1.1,3.2c-0.8,0.8-1.9,1.1-3.2,1.1
		L21.1,37.9L21.1,37.9z M21.1,35.7h2.1c0.5,0,1.1-0.3,1.3-0.5c0.3-0.3,0.5-0.8,0.5-1.3s-0.3-1.1-0.5-1.6c-0.3-0.5-0.8-0.5-1.3-0.5
		h-2.1V35.7z"/>
	<path fill="#396780" d="M31.2,42.1c-0.8,0-1.6-0.3-1.6-1.1V30.9c0-0.8,0.8-1.6,1.6-1.6h1.9c1.1,0,1.9,0.3,2.7,0.8s1.3,1.3,1.9,2.1
		c0.5,1.1,0.8,2.1,0.8,3.2V36c0,1.3-0.3,2.4-0.8,3.2c-0.5,1.1-1.1,1.6-1.9,2.1s-1.9,0.8-2.7,0.8H31.2L31.2,42.1z M32,31.5v8.8h1.1
		c1.1,0,1.6-0.3,2.1-1.1c0.5-0.8,0.8-1.6,0.8-2.9v-0.8c0-1.3-0.3-2.4-0.8-3.2c-0.5-0.8-1.3-1.1-2.1-1.1L32,31.5L32,31.5z"/>
	<path fill="#396780" d="M47.5,36c0,0.5-0.5,1.1-1.1,1.1h-3.7v4.3c0,0.8-0.5,1.3-1.3,1.3c-0.8,0-1.3-0.5-1.3-1.3V30.7
		c0-0.8,0.8-1.6,1.6-1.6h5.1c0.5,0,1.1,0.5,1.1,1.1s-0.5,1.1-1.1,1.1h-4v3.5h3.5C46.9,34.9,47.5,35.5,47.5,36z"/>
</g>
</svg>
