<?xml version="1.0" encoding="utf-8"?>
<!-- Generator: Adobe Illustrator 23.0.2, SVG Export Plug-In . SVG Version: 6.00 Build 0)  -->
<svg version="1.1" id="Слой_1" xmlns="http://www.w3.org/2000/svg" xmlns:xlink="http://www.w3.org/1999/xlink" x="0px" y="0px"
	 viewBox="0 0 24 24" style="enable-background:new 0 0 24 24;" xml:space="preserve">
<style type="text/css">
	.st0{fill:#D96565;}
	.st1{fill:#8C3333;}
	.st2{fill:#F0F0F2;}
</style>
<g>
	<g>
		<path className="st0" d="M18.4,22H5.6C4.7,22,4,21.4,4,20.6V3.5c0-0.8,0.7-1.4,1.6-1.4h8.9c0.9,0.8,4.7,3.8,5.5,4.6v13.9
			C20,21.4,19.3,22,18.4,22z"/>
		<path className="st1" d="M14.5,2v3.2c0,0.8,0.7,1.4,1.6,1.4h4L14.5,2z"/>
	</g>
	<path className="st2" d="M17.2,11.4c0.3,0,0.4-0.2,0.4-0.5c0-0.2-0.1-0.5-0.4-0.5h-1.6c-0.3,0-0.5,0.3-0.5,0.5v3.9
		c0,0.3,0.2,0.5,0.5,0.5c0.3,0,0.5-0.2,0.5-0.5v-1.1h1c0.3,0,0.4-0.2,0.4-0.5c0-0.2-0.1-0.5-0.4-0.5h-1v-1.5
		C16.1,11.4,17.2,11.4,17.2,11.4z M12,10.4h-1.2c-0.3,0-0.5,0.2-0.5,0.5v3.9c0,0.4,0.3,0.5,0.6,0.5h1.2c1.4,0,2.4-1,2.4-2.4
		C14.5,11.4,13.6,10.4,12,10.4z M12.1,14.4h-0.7v-3.1H12c1,0,1.4,0.7,1.4,1.5C13.4,13.7,13,14.4,12.1,14.4z M8,10.4H6.8
		c-0.3,0-0.5,0.2-0.5,0.5v4c0,0.3,0.2,0.5,0.5,0.5c0.3,0,0.5-0.2,0.5-0.5v-1.1h0.7c0.9,0,1.6-0.6,1.6-1.7C9.7,11.1,9,10.4,8,10.4z
		 M8,12.8H7.3v-1.5H8c0.4,0,0.7,0.3,0.7,0.7C8.7,12.5,8.4,12.8,8,12.8z"/>
</g>
</svg>
