<svg 
 xmlns="http://www.w3.org/2000/svg"
 xmlns:xlink="http://www.w3.org/1999/xlink"
 width="24px" height="24px">
<path fill-rule="evenodd"  fill="rgb(57, 103, 128)"
 d="M4.000,-0.001 L20.001,-0.001 C22.208,-0.001 23.999,1.792 23.999,4.000 L23.999,20.000 C23.999,22.209 22.208,24.000 20.001,24.000 L4.000,24.000 C1.792,24.000 -0.001,22.209 -0.001,20.000 L-0.001,4.000 C-0.001,1.792 1.792,-0.001 4.000,-0.001 Z"/>
<path fill-rule="evenodd"  fill="rgb(255, 255, 255)"
 d="M21.000,13.000 L12.999,13.000 L12.999,20.000 L11.999,20.000 L11.999,13.000 L4.000,13.000 L4.000,11.999 L11.999,11.999 L11.999,4.000 L12.999,4.000 L12.999,11.999 L21.000,11.999 L21.000,13.000 Z"/>
</svg>